<svg width="35" height="35" viewBox="0 0 35 35" fill="none" xmlns="http://www.w3.org/2000/svg">
<rect x="1" y="1" width="33" height="33" rx="16.5" transform="matrix(1.39071e-07 1 1 -1.39071e-07 1.39071e-07 -1.39071e-07)" fill="white" stroke="#001319" stroke-width="2"/>
<path d="M18.0625 22.7501C18.2702 22.7501 18.4782 22.6706 18.6369 22.512L26.7619 14.387C27.0794 14.0695 27.0794 13.5554 26.7619 13.2381C26.4444 12.9208 25.9303 12.9206 25.613 13.2381L18.0625 20.7887L10.5119 13.2381C10.1944 12.9206 9.68029 12.9206 9.36301 13.2381C9.04573 13.5556 9.04553 14.0697 9.36301 14.387L17.488 22.512C17.6467 22.6706 17.8547 22.7501 18.0625 22.7501Z" fill="#001319"/>
</svg>
