<svg width="45" height="45" viewBox="0 0 45 45" fill="none" xmlns="http://www.w3.org/2000/svg">
<path d="M28.125 42.6562H16.875C6.69375 42.6562 2.34375 38.3063 2.34375 28.125V16.875C2.34375 6.69375 6.69375 2.34375 16.875 2.34375H28.125C38.3063 2.34375 42.6562 6.69375 42.6562 16.875V28.125C42.6562 38.3063 38.3063 42.6562 28.125 42.6562ZM16.875 5.15625C8.23125 5.15625 5.15625 8.23125 5.15625 16.875V28.125C5.15625 36.7687 8.23125 39.8438 16.875 39.8438H28.125C36.7687 39.8438 39.8438 36.7687 39.8438 28.125V16.875C39.8438 8.23125 36.7687 5.15625 28.125 5.15625H16.875Z" fill="#DF7E27"/>
<path d="M24.8621 30.5258C24.5059 30.5258 24.1496 30.3945 23.8684 30.1133L17.2496 23.4945C16.7059 22.9508 16.7059 22.0508 17.2496 21.507L23.8684 14.8883C24.4121 14.3445 25.3121 14.3445 25.8559 14.8883C26.3996 15.432 26.3996 16.332 25.8559 16.8758L20.2309 22.5008L25.8559 28.1258C26.3996 28.6695 26.3996 29.5695 25.8559 30.1133C25.5934 30.3945 25.2371 30.5258 24.8621 30.5258Z" fill="#DF7E27"/>
</svg>
