<svg width="45" height="45" viewBox="0 0 45 45" fill="none" xmlns="http://www.w3.org/2000/svg">
<path d="M28.125 42.6562H16.875C6.69375 42.6562 2.34375 38.3063 2.34375 28.125V16.875C2.34375 6.69375 6.69375 2.34375 16.875 2.34375H28.125C38.3063 2.34375 42.6562 6.69375 42.6562 16.875V28.125C42.6562 38.3063 38.3063 42.6562 28.125 42.6562ZM16.875 5.15625C8.23125 5.15625 5.15625 8.23125 5.15625 16.875V28.125C5.15625 36.7687 8.23125 39.8438 16.875 39.8438H28.125C36.7687 39.8438 39.8438 36.7687 39.8438 28.125V16.875C39.8438 8.23125 36.7687 5.15625 28.125 5.15625H16.875Z" fill="#DF7E27"/>
<path d="M20.1379 30.5258C19.7816 30.5258 19.4254 30.3945 19.1441 30.1133C18.6004 29.5695 18.6004 28.6695 19.1441 28.1258L24.7691 22.5008L19.1441 16.8758C18.6004 16.332 18.6004 15.432 19.1441 14.8883C19.6879 14.3445 20.5879 14.3445 21.1316 14.8883L27.7504 21.507C28.2941 22.0508 28.2941 22.9508 27.7504 23.4945L21.1316 30.1133C20.8504 30.3945 20.4941 30.5258 20.1379 30.5258Z" fill="#DF7E27"/>
</svg>
