<svg width="40" height="40" viewBox="0 0 40 40" fill="none" xmlns="http://www.w3.org/2000/svg">
<path d="M26.25 15.575L21.7625 20L26.25 24.425C26.3748 24.5419 26.4744 24.6832 26.5425 24.8402C26.6105 24.9972 26.6456 25.1664 26.6456 25.3375C26.6456 25.5086 26.6105 25.6778 26.5425 25.8348C26.4744 25.9918 26.3748 26.1331 26.25 26.25C26.1332 26.3659 25.9946 26.4575 25.8423 26.5197C25.69 26.5819 25.527 26.6135 25.3625 26.6125C25.0345 26.6111 24.7203 26.4809 24.4875 26.25L20 21.7625L15.575 26.25C15.3421 26.4809 15.0279 26.6111 14.7 26.6125C14.5354 26.6135 14.3724 26.5819 14.2201 26.5197C14.0678 26.4575 13.9293 26.3659 13.8125 26.25C13.5796 26.0158 13.449 25.699 13.449 25.3688C13.449 25.0385 13.5796 24.7217 13.8125 24.4875L18.2375 20L13.8125 15.575C13.6077 15.3359 13.5007 15.0283 13.5128 14.7137C13.525 14.3991 13.6554 14.1007 13.878 13.8781C14.1006 13.6554 14.399 13.525 14.7136 13.5129C15.0282 13.5007 15.3358 13.6077 15.575 13.8125L20 18.2375L24.425 13.8125C24.5407 13.6927 24.6789 13.5968 24.8317 13.5304C24.9844 13.464 25.1488 13.4283 25.3154 13.4254C25.4819 13.4225 25.6474 13.4524 25.8024 13.5135C25.9574 13.5745 26.0989 13.6655 26.2187 13.7813C26.3385 13.897 26.4344 14.0352 26.5008 14.188C26.5672 14.3407 26.6029 14.5051 26.6058 14.6717C26.6087 14.8382 26.5788 15.0037 26.5177 15.1587C26.4567 15.3137 26.3657 15.4552 26.25 15.575ZM32.375 32.375C29.9275 34.8222 26.8093 36.4888 23.4146 37.1639C20.02 37.839 16.5015 37.4923 13.3038 36.1677C10.1062 34.8431 7.37322 32.6001 5.45038 29.7223C3.52753 26.8445 2.50122 23.4611 2.50122 20C2.50122 16.5389 3.52753 13.1555 5.45038 10.2777C7.37322 7.39989 10.1062 5.15687 13.3038 3.83229C16.5015 2.5077 20.02 2.16104 23.4146 2.83613C26.8093 3.51123 29.9275 5.17777 32.375 7.62501C34.0002 9.25006 35.2894 11.1793 36.1689 13.3026C37.0485 15.426 37.5012 17.7017 37.5012 20C37.5012 22.2983 37.0485 24.5741 36.1689 26.6974C35.2894 28.8207 34.0002 30.75 32.375 32.375ZM30.6125 9.38751C28.5126 7.29493 25.8398 5.87149 22.9315 5.29693C20.0232 4.72237 17.0099 5.02246 14.272 6.1593C11.5342 7.29615 9.19455 9.21876 7.54863 11.6844C5.90271 14.15 5.02429 17.048 5.02429 20.0125C5.02429 22.977 5.90271 25.875 7.54863 28.3406C9.19455 30.8063 11.5342 32.7289 14.272 33.8657C17.0099 35.0026 20.0232 35.3026 22.9315 34.7281C25.8398 34.1535 28.5126 32.7301 30.6125 30.6375C32.0109 29.244 33.1204 27.5881 33.8775 25.7648C34.6346 23.9415 35.0243 21.9867 35.0243 20.0125C35.0243 18.0383 34.6346 16.0835 33.8775 14.2602C33.1204 12.437 32.0109 10.7811 30.6125 9.38751Z" fill="#C12026"/>
</svg>
