<svg width="150" height="86" viewBox="0 0 150 86" fill="none" xmlns="http://www.w3.org/2000/svg">
<mask id="mask0_46_283" style="mask-type:alpha" maskUnits="userSpaceOnUse" x="0" y="0" width="150" height="86">
<rect width="150" height="86" fill="#D9D9D9"/>
</mask>
<g mask="url(#mask0_46_283)">
<g opacity="0.1">
<g clip-path="url(#clip0_46_283)">
<path d="M106.962 25.9898C100.419 29.6753 94.3149 32.273 88.6489 33.783C77.6416 37.566 69.4754 37.4362 69.4754 37.4362C69.4754 37.4362 75.6933 32.9877 85.1826 26.6965C87.147 24.9593 89.6553 23.4413 92.3827 21.3794C94.891 19.8613 97.0745 17.5803 99.802 15.5184C102.529 13.4565 104.713 11.1754 107.44 9.11352C109.624 6.83246 113.114 4.44584 115.298 2.16478C117.482 -0.116281 120.428 -2.72206 122.612 -5.00312C123.594 -5.87171 124.795 -7.28417 125.778 -8.15277C111.994 -25.7188 87.1864 -33.1864 66.146 -23.3313C27.1174 -4.92006 46.0073 17.2322 0.168584 58.8191C0.168584 58.8191 51.0417 92.595 106.524 69.4347C131.705 58.7191 143.32 29.8936 132.824 4.16946C130.421 6.9944 128.018 9.81934 125.072 12.4251C119.722 17.8558 113.285 22.8482 106.962 25.9898Z" fill="#3D5501"/>
</g>
</g>
</g>
<defs>
<clipPath id="clip0_46_283">
<rect width="140.73" height="140.73" fill="white" transform="translate(115 119) rotate(-158.052)"/>
</clipPath>
</defs>
</svg>
