<svg width="35" height="35" viewBox="0 0 35 35" fill="none" xmlns="http://www.w3.org/2000/svg">
<g clip-path="url(#clip0_47_405)">
<path d="M34.599 16.5322C34.5986 16.5318 34.5983 16.5313 34.5978 16.5309L27.4539 9.42156C26.9188 8.88897 26.0531 8.89095 25.5204 9.42621C24.9877 9.96139 24.9898 10.827 25.525 11.3597L30.3214 16.1328H1.36719C0.61209 16.1328 0 16.7449 0 17.5C0 18.2551 0.61209 18.8672 1.36719 18.8672H30.3213L25.5251 23.6403C24.9899 24.173 24.9878 25.0386 25.5205 25.5738C26.0532 26.1091 26.9189 26.111 27.454 25.5784L34.5978 18.4691C34.5983 18.4686 34.5986 18.4682 34.5991 18.4678C35.1345 17.9333 35.1328 17.0649 34.599 16.5322Z" fill="white"/>
</g>
<defs>
<clipPath id="clip0_47_405">
<rect width="35" height="35" fill="white"/>
</clipPath>
</defs>
</svg>
