<svg width="35" height="35" viewBox="0 0 35 35" fill="none" xmlns="http://www.w3.org/2000/svg">
<g clip-path="url(#clip0_115_32)">
<path d="M0.400992 16.5322C0.401402 16.5318 0.401744 16.5313 0.402223 16.5309L7.54605 9.42156C8.08124 8.88897 8.94687 8.89095 9.4796 9.42621C10.0123 9.96139 10.0102 10.827 9.47502 11.3597L4.67865 16.1328H33.6328C34.3879 16.1328 35 16.7449 35 17.5C35 18.2551 34.3879 18.8672 33.6328 18.8672H4.67872L9.47495 23.6403C10.0101 24.173 10.0122 25.0386 9.47953 25.5738C8.9468 26.1091 8.0811 26.111 7.54598 25.5784L0.402154 18.4691C0.401744 18.4686 0.401402 18.4682 0.400923 18.4678C-0.134536 17.9333 -0.132826 17.0649 0.400992 16.5322Z" fill="#0091FF"/>
</g>
<defs>
<clipPath id="clip0_115_32">
<rect width="35" height="35" fill="white" transform="matrix(-1 0 0 1 35 0)"/>
</clipPath>
</defs>
</svg>
