<svg width="25" height="31" viewBox="0 0 25 31" fill="none" xmlns="http://www.w3.org/2000/svg">
<path fill-rule="evenodd" clip-rule="evenodd" d="M13.9956 0.319809C15.1902 0.640467 15.1903 0.640132 15.1904 0.639841L15.1897 0.642663L15.1848 0.661256C15.1802 0.679095 15.173 0.707793 15.1632 0.747208C15.1438 0.826038 15.1147 0.947729 15.0781 1.11114C15.0049 1.43796 14.9019 1.9316 14.7866 2.58291C14.5562 3.88559 14.277 5.8186 14.0905 8.30885C13.7176 13.2893 13.7156 20.4975 15.2152 29.3507C15.3293 30.0242 14.8757 30.6627 14.2021 30.7768C13.5286 30.8909 12.8901 30.4374 12.776 29.7638C11.2393 20.6915 11.2373 13.2811 11.6235 8.12413C11.8165 5.5457 12.1066 3.53036 12.3506 2.15187C12.4725 1.4626 12.5829 0.932449 12.664 0.570627C12.7045 0.389711 12.7376 0.250866 12.7612 0.155241C12.773 0.107427 12.7823 0.0704177 12.7891 0.0443553L12.7971 0.0134892L12.7995 0.00424711L12.8006 3.50949e-05C12.8008 -0.000428915 12.8009 -0.000849787 13.9956 0.319809Z" fill="#0A0A0A"/>
<path fill-rule="evenodd" clip-rule="evenodd" d="M15.1194 16.6839C11.1178 16.4356 6.02625 16.4419 1.4964 17.4126C0.828408 17.5558 0.170854 17.1303 0.0277132 16.4623C-0.115427 15.7943 0.310051 15.1367 0.978045 14.9936C5.8285 13.9542 11.1782 13.9606 15.2726 14.2148C17.3287 14.3424 19.087 14.5338 20.3331 14.6935C20.9565 14.7734 21.4525 14.8456 21.7945 14.898C21.9655 14.9242 22.0981 14.9455 22.1889 14.9605C22.2342 14.9679 22.2692 14.9738 22.2933 14.9779L22.3212 14.9826L22.332 14.9845C22.3323 14.9846 22.3325 14.9846 22.1196 16.2031L22.3325 14.9846C23.0055 15.1022 23.4557 15.7431 23.3381 16.4161C23.2205 17.0889 22.5798 17.5391 21.9069 17.4217L21.9012 17.4207L21.8793 17.4169C21.8593 17.4135 21.8285 17.4084 21.7874 17.4016C21.7051 17.3881 21.5814 17.3682 21.4195 17.3433C21.0959 17.2937 20.62 17.2245 20.0185 17.1474C18.8149 16.9931 17.1114 16.8076 15.1194 16.6839Z" fill="#0A0A0A"/>
<path fill-rule="evenodd" clip-rule="evenodd" d="M24.2834 5.21852C24.2833 5.21861 24.2831 5.21871 24.283 5.2188L24.2778 5.22242L24.2534 5.23941C24.2308 5.25517 24.1959 5.27976 24.1493 5.31304C24.056 5.37962 23.916 5.48093 23.7348 5.61582C23.3724 5.88567 22.8458 6.2896 22.2001 6.8184C20.9077 7.87676 19.1431 9.43121 17.2638 11.4079C13.4906 15.3768 9.32894 20.971 7.52361 27.6045C7.34421 28.2637 6.6644 28.6527 6.00522 28.4733C5.34604 28.2939 4.9571 27.6141 5.1365 26.9549C7.09316 19.7653 11.558 13.8191 15.4708 9.70336C17.4346 7.63776 19.2779 6.01383 20.6326 4.90438C21.3105 4.34928 21.8673 3.92195 22.2573 3.63152C22.4524 3.48627 22.6059 3.37519 22.7121 3.2994C22.7652 3.2615 22.8064 3.23242 22.8352 3.2123L22.8689 3.18886L22.8785 3.1822L22.8825 3.17945C22.8829 3.17918 22.8832 3.17895 23.5831 4.19888L22.8832 3.17895C23.4465 2.79241 24.2165 2.9357 24.603 3.49899C24.9895 4.06211 24.8463 4.83187 24.2834 5.21852Z" fill="#0A0A0A"/>
<path fill-rule="evenodd" clip-rule="evenodd" d="M2.64799 2.90708C3.25269 2.58921 4.00058 2.82173 4.31845 3.42643C6.39351 7.37388 11.064 12.1667 15.347 16.0525C17.466 17.9749 19.4511 19.641 20.9066 20.8266C21.6341 21.4192 22.2283 21.8909 22.6398 22.2138C22.8455 22.3753 23.0055 22.4995 23.1135 22.5829C23.1675 22.6246 23.2085 22.6561 23.2358 22.677L23.2662 22.7003L23.2735 22.7059L23.2751 22.7071C23.8187 23.121 23.9241 23.8973 23.5102 24.4408C23.0964 24.9844 22.3203 25.0895 21.7767 24.6757L22.5261 23.6915C21.7767 24.6757 21.7766 24.6756 21.7764 24.6754L21.7732 24.673L21.7643 24.6662L21.7305 24.6403C21.7009 24.6176 21.6576 24.5843 21.6012 24.5408C21.4884 24.4537 21.3235 24.3256 21.1125 24.16C20.6906 23.8289 20.0846 23.3478 19.3443 22.7448C17.8644 21.5394 15.8444 19.8441 13.6847 17.8847C9.41056 14.007 4.42981 8.95512 2.12864 4.57755C1.81077 3.97285 2.04329 3.22496 2.64799 2.90708Z" fill="#0A0A0A"/>
</svg>
