<svg width="46" height="48" viewBox="0 0 46 48" fill="none" xmlns="http://www.w3.org/2000/svg">
<path fill-rule="evenodd" clip-rule="evenodd" d="M26.99 0.280438C27.8917 0.476173 28.464 1.36585 28.2683 2.26758C26.7988 9.03757 19.4165 22.4893 1.67076 22.4893C0.748023 22.4893 0 21.7413 0 20.8186C0 19.8958 0.748023 19.1478 1.67076 19.1478C17.3026 19.1478 23.7366 7.39231 25.0028 1.55876C25.1986 0.657028 26.0882 0.0847028 26.99 0.280438Z" fill="#0A0A0A"/>
<path fill-rule="evenodd" clip-rule="evenodd" d="M32.7626 35.5857C30.128 39.2134 28.7404 43.6141 28.2867 46.5256C28.1446 47.4374 27.2903 48.0613 26.3786 47.9192C25.4668 47.7771 24.8429 46.9228 24.985 46.0111C25.5008 42.7016 27.046 37.7708 30.0588 33.6222C33.0993 29.4355 37.7337 25.9346 44.3294 25.9346C45.2521 25.9346 46.0001 26.6826 46.0001 27.6053C46.0001 28.5281 45.2521 29.2761 44.3294 29.2761C39.0971 29.2761 35.3694 31.9962 32.7626 35.5857Z" fill="#0A0A0A"/>
<path fill-rule="evenodd" clip-rule="evenodd" d="M26.4495 0.0105587C27.3665 -0.0922823 28.1933 0.567711 28.2961 1.4847C28.7655 5.67017 30.1907 11.9385 32.8913 17.106C35.6193 22.3259 39.3649 25.9345 44.3293 25.9345C45.252 25.9345 46.0001 26.6825 46.0001 27.6052C46.0001 28.528 45.252 29.276 44.3293 29.276C37.4657 29.276 32.8493 24.2398 29.9299 18.6537C26.9831 13.0152 25.4755 6.31644 24.9754 1.85712C24.8726 0.940131 25.5326 0.1134 26.4495 0.0105587Z" fill="#0A0A0A"/>
<path fill-rule="evenodd" clip-rule="evenodd" d="M0 20.8187C0 19.896 0.748023 19.1479 1.67076 19.1479C10.6718 19.1479 17.0227 23.7541 21.2342 29.3586C25.4146 34.9219 27.5677 41.5539 28.285 46.0023C28.4319 46.9133 27.8125 47.7708 26.9015 47.9177C25.9906 48.0646 25.133 47.4452 24.9861 46.5342C24.3355 42.4995 22.3506 36.4067 18.5628 31.366C14.806 26.3665 9.35846 22.4895 1.67076 22.4895C0.748023 22.4895 0 21.7414 0 20.8187Z" fill="#0A0A0A"/>
</svg>
