<svg width="66" height="66" viewBox="0 0 66 66" fill="none" xmlns="http://www.w3.org/2000/svg">
<path d="M17.8752 8.25C9.52189 8.25 2.7502 15.0217 2.7502 23.375C2.7502 29.5449 5.96205 35.5147 10.7558 36.6666C12.6049 37.1109 14.0775 39.4839 13.7611 42.1928C13.3376 45.8186 10.0587 49.4818 3.56654 52.3686C2.12102 53.0114 2.72629 55.1859 4.29601 54.9893C21.2156 52.8711 32.9437 41.8406 33 26.2346C33.0002 15.5019 26.6593 8.25 17.8752 8.25Z" fill="url(#paint0_linear_1_216)"/>
<path d="M50.8752 8.25C42.5219 8.25 35.7502 15.0217 35.7502 23.375C35.7502 29.5449 38.9621 35.5147 43.7558 36.6666C45.6049 37.1109 47.0775 39.4839 46.7611 42.1928C46.3376 45.8186 43.0587 49.4818 36.5665 52.3686C35.121 53.0114 35.7263 55.1859 37.296 54.9893C54.2156 52.8711 65.9437 41.8406 66 26.2346C66.0002 15.5019 59.6593 8.25 50.8752 8.25Z" fill="url(#paint1_linear_1_216)"/>
<defs>
<linearGradient id="paint0_linear_1_216" x1="17.8733" y1="8.25" x2="17.8733" y2="55.0019" gradientUnits="userSpaceOnUse">
<stop stop-color="#A90201"/>
<stop offset="1" stop-color="#430100"/>
</linearGradient>
<linearGradient id="paint1_linear_1_216" x1="50.8733" y1="8.25" x2="50.8733" y2="55.0019" gradientUnits="userSpaceOnUse">
<stop stop-color="#A90201"/>
<stop offset="1" stop-color="#430100"/>
</linearGradient>
</defs>
</svg>
