<svg width="66" height="66" viewBox="0 0 66 66" fill="none" xmlns="http://www.w3.org/2000/svg">
<path d="M48.1248 8.25C56.4781 8.25 63.2498 15.0217 63.2498 23.375C63.2498 29.5449 60.0379 35.5147 55.2442 36.6666C53.3951 37.1109 51.9225 39.4839 52.2389 42.1928C52.6624 45.8186 55.9413 49.4818 62.4335 52.3686C63.879 53.0114 63.2737 55.1859 61.704 54.9893C44.7844 52.8711 33.0563 41.8406 33 26.2346C32.9998 15.5019 39.3407 8.25 48.1248 8.25Z" fill="url(#paint0_linear_1_210)"/>
<path d="M15.1248 8.25C23.4781 8.25 30.2498 15.0217 30.2498 23.375C30.2498 29.5449 27.0379 35.5147 22.2442 36.6666C20.3951 37.1109 18.9225 39.4839 19.2389 42.1928C19.6624 45.8186 22.9413 49.4818 29.4335 52.3686C30.879 53.0114 30.2737 55.1859 28.704 54.9893C11.7844 52.8711 0.056265 41.8406 4.85712e-09 26.2346C-0.000202643 15.5019 6.34072 8.25 15.1248 8.25Z" fill="url(#paint1_linear_1_210)"/>
<defs>
<linearGradient id="paint0_linear_1_210" x1="48.1267" y1="8.25" x2="48.1267" y2="55.0019" gradientUnits="userSpaceOnUse">
<stop stop-color="#A90201"/>
<stop offset="1" stop-color="#430100"/>
</linearGradient>
<linearGradient id="paint1_linear_1_210" x1="15.1267" y1="8.25" x2="15.1267" y2="55.0019" gradientUnits="userSpaceOnUse">
<stop stop-color="#A90201"/>
<stop offset="1" stop-color="#430100"/>
</linearGradient>
</defs>
</svg>
