<svg width="216" height="65" viewBox="0 0 216 65" fill="none" xmlns="http://www.w3.org/2000/svg">
<rect width="216" height="65" rx="12" fill="#222222"/>
<g clip-path="url(#clip0_1_1478)">
<path d="M40.499 20.5C39.2195 20.5885 37.724 21.4075 36.8525 22.474C36.0575 23.4415 35.4035 24.8785 35.6585 26.275C37.0565 26.3185 38.501 25.48 39.338 24.3955C40.121 23.386 40.7135 21.958 40.499 20.5Z" fill="white"/>
<path d="M45.5554 28.5519C44.327 27.0114 42.6005 26.1174 40.97 26.1174C38.8175 26.1174 37.907 27.1479 36.4115 27.1479C34.8695 27.1479 33.698 26.1204 31.8365 26.1204C30.008 26.1204 28.061 27.2379 26.8266 29.1489C25.0911 31.8399 25.3881 36.8994 28.2005 41.2088C29.207 42.7508 30.551 44.4848 32.309 44.4998C33.8735 44.5148 34.3145 43.4963 36.434 43.4858C38.5535 43.4738 38.9555 44.5133 40.517 44.4968C42.2765 44.4833 43.694 42.5618 44.7004 41.0198C45.4219 39.9144 45.6904 39.3579 46.2499 38.1099C42.1805 36.5604 41.528 30.7734 45.5554 28.5519Z" fill="white"/>
</g>
<path d="M57.584 20C57.408 20 57.272 19.956 57.176 19.868C57.088 19.772 57.044 19.636 57.044 19.46V12.08C57.044 11.904 57.088 11.772 57.176 11.684C57.272 11.588 57.408 11.54 57.584 11.54H59.9C61.268 11.54 62.324 11.9 63.068 12.62C63.812 13.34 64.184 14.388 64.184 15.764C64.184 16.452 64.088 17.06 63.896 17.588C63.712 18.108 63.436 18.548 63.068 18.908C62.7 19.268 62.252 19.54 61.724 19.724C61.196 19.908 60.588 20 59.9 20H57.584ZM58.028 19.16H59.828C60.388 19.16 60.872 19.088 61.28 18.944C61.696 18.8 62.04 18.588 62.312 18.308C62.592 18.028 62.8 17.676 62.936 17.252C63.072 16.82 63.14 16.324 63.14 15.764C63.14 14.636 62.864 13.792 62.312 13.232C61.76 12.664 60.932 12.38 59.828 12.38H58.028V19.16ZM68.2423 20.108C67.6743 20.108 67.1823 19.984 66.7663 19.736C66.3503 19.488 66.0263 19.14 65.7943 18.692C65.5703 18.236 65.4583 17.7 65.4583 17.084C65.4583 16.62 65.5223 16.204 65.6503 15.836C65.7783 15.46 65.9663 15.14 66.2143 14.876C66.4623 14.612 66.7543 14.412 67.0903 14.276C67.4343 14.132 67.8183 14.06 68.2423 14.06C68.8103 14.06 69.3023 14.184 69.7183 14.432C70.1343 14.68 70.4543 15.032 70.6783 15.488C70.9103 15.936 71.0263 16.468 71.0263 17.084C71.0263 17.548 70.9623 17.964 70.8343 18.332C70.7063 18.7 70.5183 19.02 70.2703 19.292C70.0223 19.556 69.7263 19.76 69.3823 19.904C69.0463 20.04 68.6663 20.108 68.2423 20.108ZM68.2423 19.328C68.6023 19.328 68.9183 19.24 69.1903 19.064C69.4623 18.888 69.6703 18.632 69.8143 18.296C69.9663 17.96 70.0423 17.556 70.0423 17.084C70.0423 16.356 69.8783 15.8 69.5503 15.416C69.2303 15.032 68.7943 14.84 68.2423 14.84C67.8743 14.84 67.5543 14.928 67.2823 15.104C67.0183 15.272 66.8103 15.524 66.6583 15.86C66.5143 16.188 66.4423 16.596 66.4423 17.084C66.4423 17.804 66.6063 18.36 66.9343 18.752C67.2623 19.136 67.6983 19.328 68.2423 19.328ZM74.4202 20.084C74.2842 20.084 74.1642 20.048 74.0602 19.976C73.9562 19.904 73.8722 19.788 73.8082 19.628L72.0202 14.768C71.9722 14.632 71.9562 14.512 71.9722 14.408C71.9962 14.304 72.0482 14.224 72.1282 14.168C72.2082 14.112 72.3082 14.084 72.4282 14.084C72.5482 14.084 72.6442 14.112 72.7162 14.168C72.7962 14.224 72.8602 14.328 72.9082 14.48L74.5882 19.28H74.3002L76.0282 14.48C76.0842 14.336 76.1522 14.236 76.2322 14.18C76.3202 14.116 76.4322 14.084 76.5682 14.084C76.6962 14.084 76.8042 14.116 76.8922 14.18C76.9802 14.244 77.0482 14.344 77.0962 14.48L78.7882 19.28H78.5122L80.2162 14.456C80.2722 14.312 80.3402 14.216 80.4202 14.168C80.5002 14.112 80.5962 14.084 80.7082 14.084C80.8362 14.084 80.9322 14.116 80.9962 14.18C81.0682 14.244 81.1082 14.328 81.1162 14.432C81.1242 14.536 81.1042 14.648 81.0562 14.768L79.2682 19.628C79.2122 19.78 79.1282 19.896 79.0162 19.976C78.9122 20.048 78.7922 20.084 78.6562 20.084C78.5202 20.084 78.4002 20.048 78.2962 19.976C78.1922 19.896 78.1122 19.78 78.0562 19.628L76.2802 14.756H76.7962L75.0322 19.628C74.9762 19.78 74.8962 19.896 74.7922 19.976C74.6882 20.048 74.5642 20.084 74.4202 20.084ZM82.974 20.084C82.814 20.084 82.694 20.04 82.614 19.952C82.534 19.864 82.494 19.74 82.494 19.58V14.576C82.494 14.416 82.534 14.296 82.614 14.216C82.694 14.128 82.81 14.084 82.962 14.084C83.114 14.084 83.23 14.128 83.31 14.216C83.398 14.296 83.442 14.416 83.442 14.576V15.608L83.31 15.464C83.478 15 83.75 14.652 84.126 14.42C84.51 14.18 84.95 14.06 85.446 14.06C85.91 14.06 86.294 14.144 86.598 14.312C86.91 14.48 87.142 14.736 87.294 15.08C87.446 15.416 87.522 15.844 87.522 16.364V19.58C87.522 19.74 87.478 19.864 87.39 19.952C87.31 20.04 87.194 20.084 87.042 20.084C86.882 20.084 86.758 20.04 86.67 19.952C86.59 19.864 86.55 19.74 86.55 19.58V16.424C86.55 15.88 86.442 15.484 86.226 15.236C86.018 14.98 85.682 14.852 85.218 14.852C84.682 14.852 84.254 15.02 83.934 15.356C83.622 15.684 83.466 16.124 83.466 16.676V19.58C83.466 19.916 83.302 20.084 82.974 20.084ZM91.0903 20.108C90.5143 20.108 90.0743 19.932 89.7703 19.58C89.4663 19.228 89.3143 18.724 89.3143 18.068V11.948C89.3143 11.788 89.3543 11.668 89.4343 11.588C89.5143 11.5 89.6343 11.456 89.7943 11.456C89.9463 11.456 90.0663 11.5 90.1543 11.588C90.2423 11.668 90.2863 11.788 90.2863 11.948V17.996C90.2863 18.428 90.3703 18.752 90.5383 18.968C90.7143 19.176 90.9703 19.28 91.3063 19.28C91.3783 19.28 91.4423 19.276 91.4983 19.268C91.5543 19.26 91.6103 19.256 91.6663 19.256C91.7543 19.248 91.8143 19.268 91.8463 19.316C91.8863 19.364 91.9063 19.46 91.9063 19.604C91.9063 19.748 91.8743 19.856 91.8103 19.928C91.7463 20 91.6423 20.048 91.4983 20.072C91.4343 20.08 91.3663 20.088 91.2943 20.096C91.2223 20.104 91.1543 20.108 91.0903 20.108ZM95.2305 20.108C94.6625 20.108 94.1705 19.984 93.7545 19.736C93.3385 19.488 93.0145 19.14 92.7825 18.692C92.5585 18.236 92.4465 17.7 92.4465 17.084C92.4465 16.62 92.5105 16.204 92.6385 15.836C92.7665 15.46 92.9545 15.14 93.2025 14.876C93.4505 14.612 93.7425 14.412 94.0785 14.276C94.4225 14.132 94.8065 14.06 95.2305 14.06C95.7985 14.06 96.2905 14.184 96.7065 14.432C97.1225 14.68 97.4425 15.032 97.6665 15.488C97.8985 15.936 98.0145 16.468 98.0145 17.084C98.0145 17.548 97.9505 17.964 97.8225 18.332C97.6945 18.7 97.5065 19.02 97.2585 19.292C97.0105 19.556 96.7145 19.76 96.3705 19.904C96.0345 20.04 95.6545 20.108 95.2305 20.108ZM95.2305 19.328C95.5905 19.328 95.9065 19.24 96.1785 19.064C96.4505 18.888 96.6585 18.632 96.8025 18.296C96.9545 17.96 97.0305 17.556 97.0305 17.084C97.0305 16.356 96.8665 15.8 96.5385 15.416C96.2185 15.032 95.7825 14.84 95.2305 14.84C94.8625 14.84 94.5425 14.928 94.2705 15.104C94.0065 15.272 93.7985 15.524 93.6465 15.86C93.5025 16.188 93.4305 16.596 93.4305 17.084C93.4305 17.804 93.5945 18.36 93.9225 18.752C94.2505 19.136 94.6865 19.328 95.2305 19.328ZM101.311 20.108C100.911 20.108 100.551 20.032 100.231 19.88C99.9185 19.72 99.6705 19.504 99.4865 19.232C99.3025 18.96 99.2105 18.656 99.2105 18.32C99.2105 17.888 99.3185 17.548 99.5345 17.3C99.7585 17.052 100.123 16.876 100.627 16.772C101.139 16.668 101.835 16.616 102.715 16.616H103.255V17.252H102.727C102.079 17.252 101.567 17.284 101.191 17.348C100.823 17.404 100.563 17.504 100.411 17.648C100.267 17.792 100.195 17.996 100.195 18.26C100.195 18.588 100.307 18.856 100.531 19.064C100.763 19.272 101.075 19.376 101.467 19.376C101.787 19.376 102.067 19.3 102.307 19.148C102.555 18.996 102.747 18.788 102.883 18.524C103.027 18.26 103.099 17.956 103.099 17.612V16.244C103.099 15.748 102.999 15.392 102.799 15.176C102.599 14.952 102.271 14.84 101.815 14.84C101.535 14.84 101.255 14.876 100.975 14.948C100.695 15.02 100.399 15.136 100.087 15.296C99.9745 15.352 99.8785 15.372 99.7985 15.356C99.7185 15.332 99.6545 15.288 99.6065 15.224C99.5585 15.16 99.5305 15.088 99.5225 15.008C99.5145 14.92 99.5305 14.836 99.5705 14.756C99.6185 14.676 99.6905 14.612 99.7865 14.564C100.139 14.388 100.487 14.26 100.831 14.18C101.175 14.1 101.503 14.06 101.815 14.06C102.319 14.06 102.735 14.144 103.063 14.312C103.391 14.472 103.635 14.72 103.795 15.056C103.955 15.384 104.035 15.808 104.035 16.328V19.58C104.035 19.74 103.995 19.864 103.915 19.952C103.843 20.04 103.735 20.084 103.591 20.084C103.439 20.084 103.323 20.04 103.243 19.952C103.163 19.864 103.123 19.74 103.123 19.58V18.644H103.231C103.167 18.948 103.043 19.208 102.859 19.424C102.683 19.64 102.463 19.808 102.199 19.928C101.935 20.048 101.639 20.108 101.311 20.108ZM108.058 20.108C107.538 20.108 107.082 19.984 106.69 19.736C106.306 19.488 106.006 19.14 105.79 18.692C105.582 18.236 105.478 17.7 105.478 17.084C105.478 16.46 105.582 15.924 105.79 15.476C106.006 15.02 106.306 14.672 106.69 14.432C107.082 14.184 107.538 14.06 108.058 14.06C108.586 14.06 109.038 14.192 109.414 14.456C109.79 14.72 110.042 15.076 110.17 15.524H110.038V11.948C110.038 11.788 110.078 11.668 110.158 11.588C110.246 11.5 110.37 11.456 110.53 11.456C110.682 11.456 110.798 11.5 110.878 11.588C110.966 11.668 111.01 11.788 111.01 11.948V19.58C111.01 19.74 110.97 19.864 110.89 19.952C110.81 20.04 110.69 20.084 110.53 20.084C110.378 20.084 110.258 20.04 110.17 19.952C110.09 19.864 110.05 19.74 110.05 19.58V18.44L110.182 18.608C110.054 19.064 109.798 19.428 109.414 19.7C109.038 19.972 108.586 20.108 108.058 20.108ZM108.262 19.328C108.622 19.328 108.938 19.24 109.21 19.064C109.482 18.888 109.69 18.632 109.834 18.296C109.986 17.96 110.062 17.556 110.062 17.084C110.062 16.356 109.898 15.8 109.57 15.416C109.25 15.032 108.814 14.84 108.262 14.84C107.894 14.84 107.574 14.928 107.302 15.104C107.038 15.272 106.83 15.524 106.678 15.86C106.534 16.188 106.462 16.596 106.462 17.084C106.462 17.804 106.626 18.36 106.954 18.752C107.282 19.136 107.718 19.328 108.262 19.328ZM119.612 20.108C118.828 20.108 118.144 19.932 117.56 19.58C116.984 19.22 116.536 18.716 116.216 18.068C115.904 17.42 115.748 16.652 115.748 15.764C115.748 15.092 115.836 14.492 116.012 13.964C116.196 13.428 116.456 12.976 116.792 12.608C117.128 12.232 117.532 11.944 118.004 11.744C118.484 11.536 119.02 11.432 119.612 11.432C120.412 11.432 121.1 11.608 121.676 11.96C122.26 12.312 122.708 12.812 123.02 13.46C123.34 14.1 123.5 14.864 123.5 15.752C123.5 16.424 123.408 17.028 123.224 17.564C123.04 18.1 122.78 18.556 122.444 18.932C122.108 19.308 121.7 19.6 121.22 19.808C120.748 20.008 120.212 20.108 119.612 20.108ZM119.612 19.232C120.22 19.232 120.732 19.096 121.148 18.824C121.572 18.552 121.896 18.156 122.12 17.636C122.344 17.116 122.456 16.492 122.456 15.764C122.456 14.668 122.208 13.82 121.712 13.22C121.224 12.612 120.524 12.308 119.612 12.308C119.02 12.308 118.512 12.444 118.088 12.716C117.672 12.988 117.352 13.384 117.128 13.904C116.904 14.416 116.792 15.036 116.792 15.764C116.792 16.852 117.04 17.704 117.536 18.32C118.032 18.928 118.724 19.232 119.612 19.232ZM125.607 20.084C125.447 20.084 125.327 20.04 125.247 19.952C125.167 19.864 125.127 19.74 125.127 19.58V14.576C125.127 14.416 125.167 14.296 125.247 14.216C125.327 14.128 125.443 14.084 125.595 14.084C125.747 14.084 125.863 14.128 125.943 14.216C126.031 14.296 126.075 14.416 126.075 14.576V15.608L125.943 15.464C126.111 15 126.383 14.652 126.759 14.42C127.143 14.18 127.583 14.06 128.079 14.06C128.543 14.06 128.927 14.144 129.231 14.312C129.543 14.48 129.775 14.736 129.927 15.08C130.079 15.416 130.155 15.844 130.155 16.364V19.58C130.155 19.74 130.111 19.864 130.023 19.952C129.943 20.04 129.827 20.084 129.675 20.084C129.515 20.084 129.391 20.04 129.303 19.952C129.223 19.864 129.183 19.74 129.183 19.58V16.424C129.183 15.88 129.075 15.484 128.859 15.236C128.651 14.98 128.315 14.852 127.851 14.852C127.315 14.852 126.887 15.02 126.567 15.356C126.255 15.684 126.099 16.124 126.099 16.676V19.58C126.099 19.916 125.935 20.084 125.607 20.084ZM137.381 20.108C136.925 20.108 136.541 20.028 136.229 19.868C135.925 19.7 135.697 19.46 135.545 19.148C135.393 18.828 135.317 18.44 135.317 17.984V14.924H134.513C134.377 14.924 134.273 14.892 134.201 14.828C134.129 14.756 134.093 14.66 134.093 14.54C134.093 14.42 134.129 14.328 134.201 14.264C134.273 14.2 134.377 14.168 134.513 14.168H135.317V12.788C135.317 12.628 135.361 12.508 135.449 12.428C135.537 12.34 135.657 12.296 135.809 12.296C135.961 12.296 136.077 12.34 136.157 12.428C136.245 12.508 136.289 12.628 136.289 12.788V14.168H137.801C137.937 14.168 138.041 14.2 138.113 14.264C138.185 14.328 138.221 14.42 138.221 14.54C138.221 14.66 138.185 14.756 138.113 14.828C138.041 14.892 137.937 14.924 137.801 14.924H136.289V17.888C136.289 18.344 136.385 18.692 136.577 18.932C136.769 19.164 137.081 19.28 137.513 19.28C137.665 19.28 137.793 19.264 137.897 19.232C138.009 19.2 138.101 19.184 138.173 19.184C138.245 19.176 138.305 19.2 138.353 19.256C138.401 19.312 138.425 19.408 138.425 19.544C138.425 19.64 138.405 19.728 138.365 19.808C138.333 19.888 138.273 19.944 138.185 19.976C138.089 20.008 137.961 20.036 137.801 20.06C137.649 20.092 137.509 20.108 137.381 20.108ZM139.787 20.084C139.627 20.084 139.507 20.04 139.427 19.952C139.347 19.864 139.307 19.74 139.307 19.58V11.948C139.307 11.788 139.347 11.668 139.427 11.588C139.507 11.5 139.627 11.456 139.787 11.456C139.939 11.456 140.059 11.5 140.147 11.588C140.235 11.668 140.279 11.788 140.279 11.948V15.464H140.123C140.291 15 140.563 14.652 140.939 14.42C141.323 14.18 141.763 14.06 142.259 14.06C142.723 14.06 143.107 14.144 143.411 14.312C143.723 14.48 143.955 14.736 144.107 15.08C144.259 15.416 144.335 15.844 144.335 16.364V19.58C144.335 19.74 144.291 19.864 144.203 19.952C144.123 20.04 144.007 20.084 143.855 20.084C143.695 20.084 143.571 20.04 143.483 19.952C143.403 19.864 143.363 19.74 143.363 19.58V16.424C143.363 15.88 143.255 15.484 143.039 15.236C142.831 14.98 142.495 14.852 142.031 14.852C141.495 14.852 141.067 15.02 140.747 15.356C140.435 15.684 140.279 16.124 140.279 16.676V19.58C140.279 19.916 140.115 20.084 139.787 20.084ZM148.755 20.108C148.139 20.108 147.607 19.988 147.159 19.748C146.719 19.5 146.375 19.152 146.127 18.704C145.887 18.256 145.767 17.72 145.767 17.096C145.767 16.488 145.887 15.96 146.127 15.512C146.367 15.056 146.695 14.7 147.111 14.444C147.535 14.188 148.023 14.06 148.575 14.06C148.967 14.06 149.319 14.128 149.631 14.264C149.943 14.392 150.207 14.58 150.423 14.828C150.647 15.076 150.815 15.376 150.927 15.728C151.047 16.08 151.107 16.476 151.107 16.916C151.107 17.044 151.071 17.14 150.999 17.204C150.927 17.26 150.823 17.288 150.687 17.288H146.511V16.652H150.459L150.267 16.808C150.267 16.376 150.203 16.012 150.075 15.716C149.947 15.412 149.759 15.18 149.511 15.02C149.271 14.86 148.967 14.78 148.599 14.78C148.191 14.78 147.843 14.876 147.555 15.068C147.275 15.252 147.063 15.512 146.919 15.848C146.775 16.176 146.703 16.56 146.703 17V17.072C146.703 17.808 146.879 18.368 147.231 18.752C147.591 19.136 148.099 19.328 148.755 19.328C149.027 19.328 149.295 19.292 149.559 19.22C149.831 19.148 150.095 19.028 150.351 18.86C150.463 18.788 150.563 18.756 150.651 18.764C150.747 18.764 150.823 18.792 150.879 18.848C150.935 18.896 150.971 18.96 150.987 19.04C151.011 19.112 151.003 19.192 150.963 19.28C150.931 19.368 150.863 19.444 150.759 19.508C150.495 19.7 150.183 19.848 149.823 19.952C149.463 20.056 149.107 20.108 148.755 20.108Z" fill="white"/>
<path d="M58.016 48.192C57.632 48.192 57.32 48.104 57.08 47.928C56.856 47.752 56.72 47.52 56.672 47.232C56.624 46.928 56.68 46.592 56.84 46.224L63.176 32.184C63.384 31.72 63.632 31.392 63.92 31.2C64.224 30.992 64.568 30.888 64.952 30.888C65.32 30.888 65.648 30.992 65.936 31.2C66.24 31.392 66.496 31.72 66.704 32.184L73.064 46.224C73.24 46.592 73.304 46.928 73.256 47.232C73.208 47.536 73.072 47.776 72.848 47.952C72.624 48.112 72.328 48.192 71.96 48.192C71.512 48.192 71.16 48.088 70.904 47.88C70.664 47.656 70.448 47.32 70.256 46.872L68.696 43.248L69.992 44.088H59.864L61.16 43.248L59.624 46.872C59.416 47.336 59.2 47.672 58.976 47.88C58.752 48.088 58.432 48.192 58.016 48.192ZM64.904 34.416L61.544 42.408L60.92 41.64H68.936L68.336 42.408L64.952 34.416H64.904ZM76.9074 52.512C76.4274 52.512 76.0594 52.384 75.8034 52.128C75.5474 51.872 75.4194 51.496 75.4194 51V37.584C75.4194 37.088 75.5474 36.712 75.8034 36.456C76.0594 36.2 76.4194 36.072 76.8834 36.072C77.3634 36.072 77.7314 36.2 77.9874 36.456C78.2434 36.712 78.3714 37.088 78.3714 37.584V39.456L78.1074 38.736C78.3474 37.92 78.8354 37.264 79.5714 36.768C80.3234 36.272 81.1954 36.024 82.1874 36.024C83.2114 36.024 84.1074 36.272 84.8754 36.768C85.6594 37.264 86.2674 37.968 86.6994 38.88C87.1314 39.776 87.3474 40.856 87.3474 42.12C87.3474 43.368 87.1314 44.456 86.6994 45.384C86.2674 46.296 85.6674 47 84.8994 47.496C84.1314 47.992 83.2274 48.24 82.1874 48.24C81.2114 48.24 80.3554 48 79.6194 47.52C78.8834 47.024 78.3874 46.384 78.1314 45.6H78.4194V51C78.4194 51.496 78.2834 51.872 78.0114 52.128C77.7554 52.384 77.3874 52.512 76.9074 52.512ZM81.3474 45.96C81.9394 45.96 82.4594 45.816 82.9074 45.528C83.3554 45.24 83.6994 44.816 83.9394 44.256C84.1954 43.68 84.3234 42.968 84.3234 42.12C84.3234 40.84 84.0514 39.888 83.5074 39.264C82.9634 38.624 82.2434 38.304 81.3474 38.304C80.7554 38.304 80.2354 38.448 79.7874 38.736C79.3394 39.008 78.9874 39.432 78.7314 40.008C78.4914 40.568 78.3714 41.272 78.3714 42.12C78.3714 43.384 78.6434 44.344 79.1874 45C79.7314 45.64 80.4514 45.96 81.3474 45.96ZM91.298 52.512C90.818 52.512 90.45 52.384 90.194 52.128C89.938 51.872 89.81 51.496 89.81 51V37.584C89.81 37.088 89.938 36.712 90.194 36.456C90.45 36.2 90.81 36.072 91.274 36.072C91.754 36.072 92.122 36.2 92.378 36.456C92.634 36.712 92.762 37.088 92.762 37.584V39.456L92.498 38.736C92.738 37.92 93.226 37.264 93.962 36.768C94.714 36.272 95.586 36.024 96.578 36.024C97.602 36.024 98.498 36.272 99.266 36.768C100.05 37.264 100.658 37.968 101.09 38.88C101.522 39.776 101.738 40.856 101.738 42.12C101.738 43.368 101.522 44.456 101.09 45.384C100.658 46.296 100.058 47 99.29 47.496C98.522 47.992 97.618 48.24 96.578 48.24C95.602 48.24 94.746 48 94.01 47.52C93.274 47.024 92.778 46.384 92.522 45.6H92.81V51C92.81 51.496 92.674 51.872 92.402 52.128C92.146 52.384 91.778 52.512 91.298 52.512ZM95.738 45.96C96.33 45.96 96.85 45.816 97.298 45.528C97.746 45.24 98.09 44.816 98.33 44.256C98.586 43.68 98.714 42.968 98.714 42.12C98.714 40.84 98.442 39.888 97.898 39.264C97.354 38.624 96.634 38.304 95.738 38.304C95.146 38.304 94.626 38.448 94.178 38.736C93.73 39.008 93.378 39.432 93.122 40.008C92.882 40.568 92.762 41.272 92.762 42.12C92.762 43.384 93.034 44.344 93.578 45C94.122 45.64 94.842 45.96 95.738 45.96ZM116.836 48.24C116.132 48.24 115.428 48.184 114.724 48.072C114.02 47.976 113.356 47.824 112.732 47.616C112.108 47.392 111.548 47.12 111.052 46.8C110.764 46.608 110.564 46.376 110.452 46.104C110.34 45.832 110.3 45.568 110.332 45.312C110.38 45.04 110.484 44.808 110.644 44.616C110.82 44.408 111.036 44.28 111.292 44.232C111.548 44.184 111.828 44.256 112.132 44.448C112.836 44.864 113.58 45.168 114.364 45.36C115.148 45.552 115.972 45.648 116.836 45.648C118.1 45.648 119.02 45.44 119.596 45.024C120.172 44.592 120.46 44.04 120.46 43.368C120.46 42.808 120.252 42.368 119.836 42.048C119.436 41.728 118.74 41.464 117.748 41.256L115.108 40.704C113.588 40.384 112.452 39.848 111.7 39.096C110.964 38.328 110.596 37.32 110.596 36.072C110.596 35.288 110.756 34.576 111.076 33.936C111.396 33.296 111.844 32.744 112.42 32.28C113.012 31.816 113.708 31.464 114.508 31.224C115.324 30.968 116.22 30.84 117.196 30.84C118.156 30.84 119.068 30.96 119.932 31.2C120.796 31.44 121.572 31.792 122.26 32.256C122.516 32.432 122.684 32.648 122.764 32.904C122.86 33.16 122.884 33.416 122.836 33.672C122.788 33.912 122.676 34.12 122.5 34.296C122.324 34.472 122.1 34.576 121.828 34.608C121.572 34.64 121.276 34.56 120.94 34.368C120.348 34.032 119.748 33.792 119.14 33.648C118.532 33.504 117.876 33.432 117.172 33.432C116.436 33.432 115.804 33.536 115.276 33.744C114.748 33.952 114.34 34.248 114.052 34.632C113.78 35 113.644 35.44 113.644 35.952C113.644 36.528 113.836 36.992 114.22 37.344C114.604 37.68 115.26 37.944 116.188 38.136L118.804 38.688C120.388 39.024 121.564 39.552 122.332 40.272C123.116 40.992 123.508 41.952 123.508 43.152C123.508 43.92 123.348 44.616 123.028 45.24C122.724 45.864 122.276 46.4 121.684 46.848C121.108 47.296 120.412 47.64 119.596 47.88C118.78 48.12 117.86 48.24 116.836 48.24ZM131.116 48.24C130.076 48.24 129.204 48.064 128.5 47.712C127.812 47.36 127.3 46.848 126.964 46.176C126.628 45.488 126.46 44.64 126.46 43.632V38.52H125.212C124.828 38.52 124.532 38.424 124.324 38.232C124.116 38.024 124.012 37.744 124.012 37.392C124.012 37.024 124.116 36.744 124.324 36.552C124.532 36.36 124.828 36.264 125.212 36.264H126.46V34.08C126.46 33.584 126.588 33.208 126.844 32.952C127.116 32.696 127.492 32.568 127.972 32.568C128.452 32.568 128.82 32.696 129.076 32.952C129.332 33.208 129.46 33.584 129.46 34.08V36.264H132.004C132.388 36.264 132.684 36.36 132.892 36.552C133.1 36.744 133.204 37.024 133.204 37.392C133.204 37.744 133.1 38.024 132.892 38.232C132.684 38.424 132.388 38.52 132.004 38.52H129.46V43.464C129.46 44.232 129.628 44.808 129.964 45.192C130.3 45.576 130.844 45.768 131.596 45.768C131.868 45.768 132.108 45.744 132.316 45.696C132.524 45.648 132.708 45.616 132.868 45.6C133.06 45.584 133.22 45.648 133.348 45.792C133.476 45.92 133.54 46.192 133.54 46.608C133.54 46.928 133.484 47.216 133.372 47.472C133.276 47.712 133.092 47.88 132.82 47.976C132.612 48.04 132.34 48.096 132.004 48.144C131.668 48.208 131.372 48.24 131.116 48.24ZM140.185 48.24C138.969 48.24 137.913 47.992 137.017 47.496C136.121 47 135.425 46.296 134.929 45.384C134.433 44.456 134.185 43.368 134.185 42.12C134.185 41.176 134.321 40.336 134.593 39.6C134.881 38.848 135.289 38.208 135.817 37.68C136.345 37.136 136.977 36.728 137.713 36.456C138.449 36.168 139.273 36.024 140.185 36.024C141.401 36.024 142.457 36.272 143.353 36.768C144.249 37.264 144.945 37.968 145.441 38.88C145.937 39.792 146.185 40.872 146.185 42.12C146.185 43.064 146.041 43.912 145.753 44.664C145.481 45.416 145.081 46.064 144.553 46.608C144.025 47.136 143.393 47.544 142.657 47.832C141.921 48.104 141.097 48.24 140.185 48.24ZM140.185 45.96C140.777 45.96 141.297 45.816 141.745 45.528C142.193 45.24 142.537 44.816 142.777 44.256C143.033 43.68 143.161 42.968 143.161 42.12C143.161 40.84 142.889 39.888 142.345 39.264C141.801 38.624 141.081 38.304 140.185 38.304C139.593 38.304 139.073 38.448 138.625 38.736C138.177 39.008 137.825 39.432 137.569 40.008C137.329 40.568 137.209 41.272 137.209 42.12C137.209 43.384 137.481 44.344 138.025 45C138.569 45.64 139.289 45.96 140.185 45.96ZM150.198 48.192C149.702 48.192 149.318 48.064 149.046 47.808C148.79 47.536 148.662 47.152 148.662 46.656V37.584C148.662 37.088 148.79 36.712 149.046 36.456C149.302 36.2 149.662 36.072 150.126 36.072C150.59 36.072 150.95 36.2 151.206 36.456C151.462 36.712 151.59 37.088 151.59 37.584V39.096H151.35C151.574 38.136 152.014 37.408 152.67 36.912C153.326 36.416 154.198 36.12 155.286 36.024C155.622 35.992 155.886 36.08 156.078 36.288C156.286 36.48 156.406 36.784 156.438 37.2C156.47 37.6 156.374 37.928 156.15 38.184C155.942 38.424 155.622 38.568 155.19 38.616L154.662 38.664C153.686 38.76 152.95 39.064 152.454 39.576C151.958 40.072 151.71 40.776 151.71 41.688V46.656C151.71 47.152 151.582 47.536 151.326 47.808C151.07 48.064 150.694 48.192 150.198 48.192ZM163.657 48.24C162.329 48.24 161.185 47.992 160.225 47.496C159.265 47 158.521 46.296 157.993 45.384C157.481 44.472 157.225 43.392 157.225 42.144C157.225 40.928 157.473 39.864 157.969 38.952C158.481 38.04 159.177 37.328 160.057 36.816C160.953 36.288 161.969 36.024 163.105 36.024C163.937 36.024 164.681 36.16 165.337 36.432C166.009 36.704 166.577 37.096 167.041 37.608C167.521 38.12 167.881 38.744 168.121 39.48C168.377 40.2 168.505 41.016 168.505 41.928C168.505 42.216 168.401 42.44 168.193 42.6C168.001 42.744 167.721 42.816 167.353 42.816H159.649V41.088H166.393L166.009 41.448C166.009 40.712 165.897 40.096 165.673 39.6C165.465 39.104 165.153 38.728 164.737 38.472C164.337 38.2 163.833 38.064 163.225 38.064C162.553 38.064 161.977 38.224 161.497 38.544C161.033 38.848 160.673 39.288 160.417 39.864C160.177 40.424 160.057 41.096 160.057 41.88V42.048C160.057 43.36 160.361 44.344 160.969 45C161.593 45.64 162.505 45.96 163.705 45.96C164.121 45.96 164.585 45.912 165.097 45.816C165.625 45.704 166.121 45.52 166.585 45.264C166.921 45.072 167.217 44.992 167.473 45.024C167.729 45.04 167.929 45.128 168.073 45.288C168.233 45.448 168.329 45.648 168.361 45.888C168.393 46.112 168.345 46.344 168.217 46.584C168.105 46.824 167.905 47.032 167.617 47.208C167.057 47.56 166.409 47.824 165.673 48C164.953 48.16 164.281 48.24 163.657 48.24Z" fill="white"/>
<defs>
<clipPath id="clip0_1_1478">
<rect width="24" height="24" fill="white" transform="translate(24 20.5)"/>
</clipPath>
</defs>
</svg>
