<svg width="216" height="65" viewBox="0 0 216 65" fill="none" xmlns="http://www.w3.org/2000/svg">
<rect width="216" height="65" rx="12" fill="#222222"/>
<g clip-path="url(#clip0_1_1489)">
<path d="M41.9232 28.7324C39.1352 27.173 34.6603 24.669 27.7194 20.7826C27.2515 20.4736 26.7131 20.4331 26.2479 20.5905L38.1565 32.4991L41.9232 28.7324Z" fill="#32BBFF"/>
<path d="M26.2479 20.5905C26.1607 20.62 26.0758 20.6556 25.9947 20.6986C25.481 20.9765 25.1035 21.5112 25.1035 22.1875V42.8107C25.1035 43.4869 25.481 44.0216 25.9947 44.2995C26.0757 44.3424 26.1605 44.3782 26.2476 44.4079L38.1565 32.4991L26.2479 20.5905Z" fill="#32BBFF"/>
<path d="M38.1569 32.499L26.248 44.4079C26.7134 44.5665 27.2518 44.5291 27.7199 44.2155C34.451 40.4463 38.8755 37.972 41.6958 36.3993C41.7743 36.3552 41.8512 36.3121 41.9272 36.2694L38.1569 32.499Z" fill="#32BBFF"/>
<path d="M25.1035 32.499V42.8106C25.1035 43.4869 25.481 44.0216 25.9947 44.2994C26.0757 44.3424 26.1605 44.3782 26.2476 44.4079L38.1565 32.499H25.1035Z" fill="#2C9FD9"/>
<path d="M27.7198 20.7826C27.1641 20.4156 26.5088 20.4261 25.9951 20.6987L37.9761 32.6798L41.9235 28.7323C39.1356 27.1729 34.6607 24.6689 27.7198 20.7826Z" fill="#29CC5E"/>
<path d="M37.9762 32.3185L25.9951 44.2995C26.5088 44.5721 27.1641 44.5878 27.7198 44.2157C34.4509 40.4464 38.8754 37.9721 41.6957 36.3994C41.7742 36.3553 41.8511 36.3122 41.9271 36.2695L37.9762 32.3185Z" fill="#D93F21"/>
<path d="M46.8966 32.4992C46.8966 31.9278 46.6082 31.3511 46.0368 31.0313C46.0368 31.0313 44.9681 30.435 41.6923 28.6028L37.7959 32.4992L41.6961 36.3994C44.9359 34.5803 46.0367 33.967 46.0367 33.967C46.6082 33.6472 46.8966 33.0706 46.8966 32.4992Z" fill="#FFD500"/>
<path d="M46.0368 33.9669C46.6082 33.6471 46.8966 33.0704 46.8966 32.499H37.7959L41.6961 36.3993C44.936 34.5802 46.0368 33.9669 46.0368 33.9669Z" fill="#FFAA00"/>
</g>
<path d="M60.908 20.108C60.004 20.108 59.24 19.936 58.616 19.592C58 19.248 57.532 18.752 57.212 18.104C56.892 17.456 56.732 16.68 56.732 15.776C56.732 15.104 56.82 14.5 56.996 13.964C57.18 13.428 57.444 12.976 57.788 12.608C58.14 12.232 58.564 11.944 59.06 11.744C59.564 11.536 60.132 11.432 60.764 11.432C61.268 11.432 61.756 11.504 62.228 11.648C62.7 11.784 63.12 12.004 63.488 12.308C63.584 12.38 63.644 12.46 63.668 12.548C63.692 12.636 63.688 12.724 63.656 12.812C63.632 12.9 63.588 12.976 63.524 13.04C63.468 13.096 63.392 13.128 63.296 13.136C63.208 13.144 63.116 13.116 63.02 13.052C62.692 12.796 62.344 12.612 61.976 12.5C61.608 12.38 61.2 12.32 60.752 12.32C60.112 12.32 59.568 12.456 59.12 12.728C58.68 13 58.344 13.392 58.112 13.904C57.888 14.416 57.776 15.04 57.776 15.776C57.776 16.896 58.036 17.752 58.556 18.344C59.084 18.936 59.876 19.232 60.932 19.232C61.316 19.232 61.692 19.196 62.06 19.124C62.428 19.044 62.776 18.936 63.104 18.8L62.888 19.364V16.376H61.172C61.028 16.376 60.92 16.34 60.848 16.268C60.776 16.196 60.74 16.1 60.74 15.98C60.74 15.852 60.776 15.756 60.848 15.692C60.92 15.628 61.028 15.596 61.172 15.596H63.32C63.456 15.596 63.56 15.632 63.632 15.704C63.704 15.776 63.74 15.88 63.74 16.016V19.148C63.74 19.268 63.72 19.368 63.68 19.448C63.64 19.528 63.572 19.588 63.476 19.628C63.14 19.764 62.736 19.88 62.264 19.976C61.8 20.064 61.348 20.108 60.908 20.108ZM66.291 20C66.115 20 65.979 19.956 65.883 19.868C65.795 19.772 65.751 19.636 65.751 19.46V12.08C65.751 11.904 65.795 11.772 65.883 11.684C65.979 11.588 66.115 11.54 66.291 11.54H70.755C70.891 11.54 70.995 11.576 71.067 11.648C71.139 11.72 71.175 11.82 71.175 11.948C71.175 12.084 71.139 12.188 71.067 12.26C70.995 12.332 70.891 12.368 70.755 12.368H66.711V15.296H70.503C70.639 15.296 70.743 15.332 70.815 15.404C70.887 15.468 70.923 15.568 70.923 15.704C70.923 15.84 70.887 15.944 70.815 16.016C70.743 16.088 70.639 16.124 70.503 16.124H66.711V19.172H70.755C70.891 19.172 70.995 19.208 71.067 19.28C71.139 19.352 71.175 19.452 71.175 19.58C71.175 19.716 71.139 19.82 71.067 19.892C70.995 19.964 70.891 20 70.755 20H66.291ZM75.1628 20.084C75.0108 20.084 74.8908 20.04 74.8028 19.952C74.7148 19.856 74.6708 19.728 74.6708 19.568V12.392H71.9708C71.8268 12.392 71.7148 12.352 71.6348 12.272C71.5548 12.192 71.5148 12.088 71.5148 11.96C71.5148 11.824 71.5548 11.72 71.6348 11.648C71.7148 11.576 71.8268 11.54 71.9708 11.54H78.3668C78.5108 11.54 78.6228 11.576 78.7028 11.648C78.7828 11.72 78.8228 11.824 78.8228 11.96C78.8228 12.096 78.7828 12.204 78.7028 12.284C78.6228 12.356 78.5108 12.392 78.3668 12.392H75.6668V19.568C75.6668 19.728 75.6228 19.856 75.5348 19.952C75.4548 20.04 75.3308 20.084 75.1628 20.084ZM83.3993 20.084C83.2393 20.084 83.1153 20.04 83.0273 19.952C82.9473 19.856 82.9073 19.728 82.9073 19.568V11.972C82.9073 11.804 82.9473 11.676 83.0273 11.588C83.1153 11.5 83.2393 11.456 83.3993 11.456C83.5593 11.456 83.6793 11.5 83.7593 11.588C83.8473 11.676 83.8913 11.804 83.8913 11.972V19.568C83.8913 19.728 83.8513 19.856 83.7713 19.952C83.6913 20.04 83.5673 20.084 83.3993 20.084ZM88.5573 20.084C88.4053 20.084 88.2853 20.04 88.1973 19.952C88.1093 19.856 88.0653 19.728 88.0653 19.568V12.392H85.3653C85.2213 12.392 85.1093 12.352 85.0293 12.272C84.9493 12.192 84.9093 12.088 84.9093 11.96C84.9093 11.824 84.9493 11.72 85.0293 11.648C85.1093 11.576 85.2213 11.54 85.3653 11.54H91.7613C91.9053 11.54 92.0173 11.576 92.0973 11.648C92.1773 11.72 92.2173 11.824 92.2173 11.96C92.2173 12.096 92.1773 12.204 92.0973 12.284C92.0173 12.356 91.9053 12.392 91.7613 12.392H89.0613V19.568C89.0613 19.728 89.0173 19.856 88.9293 19.952C88.8493 20.04 88.7253 20.084 88.5573 20.084ZM99.8538 20.108C99.0698 20.108 98.3858 19.932 97.8018 19.58C97.2258 19.22 96.7778 18.716 96.4578 18.068C96.1458 17.42 95.9898 16.652 95.9898 15.764C95.9898 15.092 96.0778 14.492 96.2538 13.964C96.4378 13.428 96.6978 12.976 97.0338 12.608C97.3698 12.232 97.7738 11.944 98.2458 11.744C98.7258 11.536 99.2618 11.432 99.8538 11.432C100.654 11.432 101.342 11.608 101.918 11.96C102.502 12.312 102.95 12.812 103.262 13.46C103.582 14.1 103.742 14.864 103.742 15.752C103.742 16.424 103.65 17.028 103.466 17.564C103.282 18.1 103.022 18.556 102.686 18.932C102.35 19.308 101.942 19.6 101.462 19.808C100.99 20.008 100.454 20.108 99.8538 20.108ZM99.8538 19.232C100.462 19.232 100.974 19.096 101.39 18.824C101.814 18.552 102.138 18.156 102.362 17.636C102.586 17.116 102.698 16.492 102.698 15.764C102.698 14.668 102.45 13.82 101.954 13.22C101.466 12.612 100.766 12.308 99.8538 12.308C99.2618 12.308 98.7538 12.444 98.3298 12.716C97.9138 12.988 97.5938 13.384 97.3698 13.904C97.1458 14.416 97.0338 15.036 97.0338 15.764C97.0338 16.852 97.2818 17.704 97.7778 18.32C98.2738 18.928 98.9658 19.232 99.8538 19.232ZM105.969 20.084C105.817 20.084 105.701 20.044 105.621 19.964C105.541 19.876 105.501 19.752 105.501 19.592V11.96C105.501 11.8 105.541 11.676 105.621 11.588C105.701 11.5 105.805 11.456 105.933 11.456C106.061 11.456 106.153 11.48 106.209 11.528C106.273 11.568 106.345 11.644 106.425 11.756L111.657 18.728H111.369V11.936C111.369 11.784 111.409 11.668 111.489 11.588C111.569 11.5 111.685 11.456 111.837 11.456C111.981 11.456 112.089 11.5 112.161 11.588C112.241 11.668 112.281 11.784 112.281 11.936V19.604C112.281 19.756 112.245 19.876 112.173 19.964C112.109 20.044 112.013 20.084 111.885 20.084C111.765 20.084 111.669 20.06 111.597 20.012C111.525 19.964 111.449 19.888 111.369 19.784L106.149 12.812H106.425V19.592C106.425 19.752 106.385 19.876 106.305 19.964C106.225 20.044 106.113 20.084 105.969 20.084Z" fill="white"/>
<path d="M65.984 48.24C64.112 48.24 62.528 47.888 61.232 47.184C59.952 46.48 58.976 45.48 58.304 44.184C57.632 42.888 57.296 41.352 57.296 39.576C57.296 38.232 57.488 37.024 57.872 35.952C58.272 34.88 58.84 33.968 59.576 33.216C60.328 32.448 61.24 31.864 62.312 31.464C63.384 31.048 64.6 30.84 65.96 30.84C66.856 30.84 67.752 30.952 68.648 31.176C69.56 31.384 70.416 31.744 71.216 32.256C71.488 32.432 71.664 32.648 71.744 32.904C71.84 33.16 71.856 33.424 71.792 33.696C71.728 33.952 71.608 34.176 71.432 34.368C71.256 34.56 71.032 34.68 70.76 34.728C70.504 34.776 70.216 34.712 69.896 34.536C69.288 34.184 68.672 33.928 68.048 33.768C67.424 33.608 66.728 33.528 65.96 33.528C64.776 33.528 63.776 33.768 62.96 34.248C62.144 34.712 61.528 35.392 61.112 36.288C60.712 37.184 60.512 38.28 60.512 39.576C60.512 41.544 60.984 43.04 61.928 44.064C62.872 45.088 64.272 45.6 66.128 45.6C66.768 45.6 67.416 45.536 68.072 45.408C68.728 45.28 69.368 45.104 69.992 44.88L69.392 46.248V41.136H66.752C66.352 41.136 66.04 41.032 65.816 40.824C65.608 40.616 65.504 40.336 65.504 39.984C65.504 39.616 65.608 39.336 65.816 39.144C66.04 38.952 66.352 38.856 66.752 38.856H70.712C71.112 38.856 71.416 38.968 71.624 39.192C71.848 39.4 71.96 39.704 71.96 40.104V45.936C71.96 46.288 71.888 46.584 71.744 46.824C71.616 47.064 71.4 47.24 71.096 47.352C70.392 47.608 69.584 47.824 68.672 48C67.76 48.16 66.864 48.24 65.984 48.24ZM80.5839 48.24C79.3679 48.24 78.3119 47.992 77.4159 47.496C76.5199 47 75.8239 46.296 75.3279 45.384C74.8319 44.456 74.5839 43.368 74.5839 42.12C74.5839 41.176 74.7199 40.336 74.9919 39.6C75.2799 38.848 75.6879 38.208 76.2159 37.68C76.7439 37.136 77.3759 36.728 78.1119 36.456C78.8479 36.168 79.6719 36.024 80.5839 36.024C81.7999 36.024 82.8559 36.272 83.7519 36.768C84.6479 37.264 85.3439 37.968 85.8399 38.88C86.3359 39.792 86.5839 40.872 86.5839 42.12C86.5839 43.064 86.4399 43.912 86.1519 44.664C85.8799 45.416 85.4799 46.064 84.9519 46.608C84.4239 47.136 83.7919 47.544 83.0559 47.832C82.3199 48.104 81.4959 48.24 80.5839 48.24ZM80.5839 45.96C81.1759 45.96 81.6959 45.816 82.1439 45.528C82.5919 45.24 82.9359 44.816 83.1759 44.256C83.4319 43.68 83.5599 42.968 83.5599 42.12C83.5599 40.84 83.2879 39.888 82.7439 39.264C82.1999 38.624 81.4799 38.304 80.5839 38.304C79.9919 38.304 79.4719 38.448 79.0239 38.736C78.5759 39.008 78.2239 39.432 77.9679 40.008C77.7279 40.568 77.6079 41.272 77.6079 42.12C77.6079 43.384 77.8799 44.344 78.4239 45C78.9679 45.64 79.6879 45.96 80.5839 45.96ZM94.412 48.24C93.196 48.24 92.14 47.992 91.244 47.496C90.348 47 89.652 46.296 89.156 45.384C88.66 44.456 88.412 43.368 88.412 42.12C88.412 41.176 88.548 40.336 88.82 39.6C89.108 38.848 89.516 38.208 90.044 37.68C90.572 37.136 91.204 36.728 91.94 36.456C92.676 36.168 93.5 36.024 94.412 36.024C95.628 36.024 96.684 36.272 97.58 36.768C98.476 37.264 99.172 37.968 99.668 38.88C100.164 39.792 100.412 40.872 100.412 42.12C100.412 43.064 100.268 43.912 99.98 44.664C99.708 45.416 99.308 46.064 98.78 46.608C98.252 47.136 97.62 47.544 96.884 47.832C96.148 48.104 95.324 48.24 94.412 48.24ZM94.412 45.96C95.004 45.96 95.524 45.816 95.972 45.528C96.42 45.24 96.764 44.816 97.004 44.256C97.26 43.68 97.388 42.968 97.388 42.12C97.388 40.84 97.116 39.888 96.572 39.264C96.028 38.624 95.308 38.304 94.412 38.304C93.82 38.304 93.3 38.448 92.852 38.736C92.404 39.008 92.052 39.432 91.796 40.008C91.556 40.568 91.436 41.272 91.436 42.12C91.436 43.384 91.708 44.344 92.252 45C92.796 45.64 93.516 45.96 94.412 45.96ZM108.36 52.56C107.496 52.56 106.656 52.48 105.84 52.32C105.04 52.16 104.312 51.912 103.656 51.576C103.352 51.416 103.144 51.224 103.032 51C102.936 50.776 102.904 50.544 102.936 50.304C102.984 50.08 103.08 49.88 103.224 49.704C103.384 49.528 103.576 49.408 103.8 49.344C104.024 49.28 104.256 49.312 104.496 49.44C105.2 49.792 105.864 50.016 106.488 50.112C107.128 50.224 107.672 50.28 108.12 50.28C109.192 50.28 109.992 50.016 110.52 49.488C111.064 48.976 111.336 48.208 111.336 47.184V45.024H111.552C111.312 45.84 110.808 46.496 110.04 46.992C109.288 47.472 108.432 47.712 107.472 47.712C106.416 47.712 105.496 47.472 104.712 46.992C103.928 46.496 103.32 45.808 102.888 44.928C102.456 44.048 102.24 43.024 102.24 41.856C102.24 40.976 102.36 40.184 102.6 39.48C102.856 38.76 103.208 38.144 103.656 37.632C104.12 37.12 104.672 36.728 105.312 36.456C105.968 36.168 106.688 36.024 107.472 36.024C108.464 36.024 109.328 36.272 110.064 36.768C110.816 37.248 111.304 37.888 111.528 38.688L111.288 39.288V37.584C111.288 37.088 111.416 36.712 111.672 36.456C111.944 36.2 112.312 36.072 112.776 36.072C113.256 36.072 113.624 36.2 113.88 36.456C114.136 36.712 114.264 37.088 114.264 37.584V46.824C114.264 48.728 113.76 50.16 112.752 51.12C111.744 52.08 110.28 52.56 108.36 52.56ZM108.288 45.432C108.912 45.432 109.448 45.288 109.896 45C110.344 44.712 110.688 44.304 110.928 43.776C111.184 43.232 111.312 42.592 111.312 41.856C111.312 40.752 111.04 39.888 110.496 39.264C109.952 38.624 109.216 38.304 108.288 38.304C107.664 38.304 107.128 38.448 106.68 38.736C106.232 39.024 105.88 39.432 105.624 39.96C105.384 40.488 105.264 41.12 105.264 41.856C105.264 42.96 105.536 43.832 106.08 44.472C106.624 45.112 107.36 45.432 108.288 45.432ZM121.381 48.24C120.053 48.24 119.053 47.864 118.381 47.112C117.709 46.344 117.373 45.224 117.373 43.752V32.4C117.373 31.904 117.501 31.528 117.757 31.272C118.013 31.016 118.381 30.888 118.861 30.888C119.341 30.888 119.709 31.016 119.965 31.272C120.237 31.528 120.373 31.904 120.373 32.4V43.608C120.373 44.344 120.525 44.888 120.829 45.24C121.149 45.592 121.597 45.768 122.173 45.768C122.301 45.768 122.421 45.768 122.533 45.768C122.645 45.752 122.757 45.736 122.868 45.72C123.093 45.688 123.245 45.752 123.325 45.912C123.405 46.056 123.445 46.36 123.445 46.824C123.445 47.224 123.365 47.536 123.205 47.76C123.045 47.984 122.781 48.12 122.413 48.168C122.253 48.184 122.085 48.2 121.909 48.216C121.733 48.232 121.557 48.24 121.381 48.24ZM130.703 48.24C129.375 48.24 128.231 47.992 127.271 47.496C126.311 47 125.567 46.296 125.039 45.384C124.527 44.472 124.271 43.392 124.271 42.144C124.271 40.928 124.519 39.864 125.015 38.952C125.527 38.04 126.223 37.328 127.103 36.816C127.999 36.288 129.015 36.024 130.151 36.024C130.983 36.024 131.727 36.16 132.383 36.432C133.055 36.704 133.623 37.096 134.087 37.608C134.567 38.12 134.927 38.744 135.167 39.48C135.423 40.2 135.551 41.016 135.551 41.928C135.551 42.216 135.447 42.44 135.239 42.6C135.047 42.744 134.767 42.816 134.399 42.816H126.695V41.088H133.439L133.055 41.448C133.055 40.712 132.943 40.096 132.719 39.6C132.511 39.104 132.199 38.728 131.783 38.472C131.383 38.2 130.879 38.064 130.271 38.064C129.599 38.064 129.023 38.224 128.543 38.544C128.079 38.848 127.719 39.288 127.463 39.864C127.223 40.424 127.103 41.096 127.103 41.88V42.048C127.103 43.36 127.407 44.344 128.015 45C128.639 45.64 129.551 45.96 130.751 45.96C131.167 45.96 131.631 45.912 132.143 45.816C132.671 45.704 133.167 45.52 133.631 45.264C133.967 45.072 134.263 44.992 134.519 45.024C134.775 45.04 134.975 45.128 135.119 45.288C135.279 45.448 135.375 45.648 135.407 45.888C135.439 46.112 135.391 46.344 135.263 46.584C135.151 46.824 134.951 47.032 134.663 47.208C134.103 47.56 133.455 47.824 132.719 48C131.999 48.16 131.327 48.24 130.703 48.24ZM146.267 48.192C145.771 48.192 145.387 48.056 145.115 47.784C144.859 47.496 144.731 47.104 144.731 46.608V32.64C144.731 32.128 144.867 31.744 145.139 31.488C145.411 31.216 145.795 31.08 146.291 31.08H152.075C153.931 31.08 155.363 31.544 156.371 32.472C157.379 33.4 157.883 34.696 157.883 36.36C157.883 38.024 157.379 39.328 156.371 40.272C155.363 41.2 153.931 41.664 152.075 41.664H147.803V46.608C147.803 47.104 147.675 47.496 147.419 47.784C147.163 48.056 146.779 48.192 146.267 48.192ZM147.803 39.24H151.595C152.683 39.24 153.507 39 154.067 38.52C154.627 38.024 154.907 37.304 154.907 36.36C154.907 35.416 154.627 34.704 154.067 34.224C153.507 33.744 152.683 33.504 151.595 33.504H147.803V39.24ZM164.107 48.24C162.779 48.24 161.779 47.864 161.107 47.112C160.435 46.344 160.099 45.224 160.099 43.752V32.4C160.099 31.904 160.227 31.528 160.483 31.272C160.739 31.016 161.107 30.888 161.587 30.888C162.067 30.888 162.435 31.016 162.691 31.272C162.963 31.528 163.099 31.904 163.099 32.4V43.608C163.099 44.344 163.251 44.888 163.555 45.24C163.875 45.592 164.323 45.768 164.899 45.768C165.027 45.768 165.147 45.768 165.259 45.768C165.371 45.752 165.483 45.736 165.595 45.72C165.819 45.688 165.971 45.752 166.051 45.912C166.131 46.056 166.171 46.36 166.171 46.824C166.171 47.224 166.091 47.536 165.931 47.76C165.771 47.984 165.507 48.12 165.139 48.168C164.979 48.184 164.811 48.2 164.635 48.216C164.459 48.232 164.283 48.24 164.107 48.24ZM171.627 48.24C170.779 48.24 170.019 48.08 169.347 47.76C168.691 47.424 168.171 46.976 167.787 46.416C167.419 45.856 167.235 45.224 167.235 44.52C167.235 43.656 167.459 42.976 167.907 42.48C168.355 41.968 169.083 41.6 170.091 41.376C171.099 41.152 172.451 41.04 174.147 41.04H175.347V42.768H174.171C173.179 42.768 172.387 42.816 171.795 42.912C171.203 43.008 170.779 43.176 170.523 43.416C170.283 43.64 170.163 43.96 170.163 44.376C170.163 44.904 170.347 45.336 170.715 45.672C171.083 46.008 171.595 46.176 172.251 46.176C172.779 46.176 173.243 46.056 173.643 45.816C174.059 45.56 174.387 45.216 174.627 44.784C174.867 44.352 174.987 43.856 174.987 43.296V40.536C174.987 39.736 174.811 39.16 174.459 38.808C174.107 38.456 173.515 38.28 172.683 38.28C172.219 38.28 171.715 38.336 171.171 38.448C170.643 38.56 170.083 38.752 169.491 39.024C169.187 39.168 168.915 39.208 168.675 39.144C168.451 39.08 168.275 38.952 168.147 38.76C168.019 38.552 167.955 38.328 167.955 38.088C167.955 37.848 168.019 37.616 168.147 37.392C168.275 37.152 168.491 36.976 168.795 36.864C169.531 36.56 170.235 36.344 170.907 36.216C171.595 36.088 172.219 36.024 172.779 36.024C173.931 36.024 174.875 36.2 175.611 36.552C176.363 36.904 176.923 37.44 177.291 38.16C177.659 38.864 177.843 39.776 177.843 40.896V46.656C177.843 47.152 177.723 47.536 177.483 47.808C177.243 48.064 176.899 48.192 176.451 48.192C176.003 48.192 175.651 48.064 175.395 47.808C175.155 47.536 175.035 47.152 175.035 46.656V45.504H175.227C175.115 46.064 174.891 46.552 174.555 46.968C174.235 47.368 173.827 47.68 173.331 47.904C172.835 48.128 172.267 48.24 171.627 48.24ZM183.747 52.512C183.395 52.512 183.107 52.416 182.883 52.224C182.659 52.048 182.523 51.808 182.475 51.504C182.443 51.2 182.499 50.88 182.643 50.544L184.275 46.92V48.168L179.907 38.064C179.763 37.712 179.715 37.384 179.763 37.08C179.811 36.776 179.955 36.536 180.195 36.36C180.451 36.168 180.795 36.072 181.227 36.072C181.595 36.072 181.891 36.16 182.115 36.336C182.339 36.496 182.539 36.808 182.715 37.272L185.955 45.36H185.235L188.547 37.248C188.723 36.8 188.931 36.496 189.171 36.336C189.411 36.16 189.731 36.072 190.131 36.072C190.483 36.072 190.763 36.168 190.971 36.36C191.179 36.536 191.307 36.776 191.355 37.08C191.403 37.368 191.347 37.688 191.187 38.04L185.355 51.36C185.147 51.808 184.923 52.112 184.683 52.272C184.443 52.432 184.131 52.512 183.747 52.512Z" fill="white"/>
<defs>
<clipPath id="clip0_1_1489">
<rect width="24" height="24" fill="white" transform="translate(24 20.5)"/>
</clipPath>
</defs>
</svg>
