<svg width="652" height="652" viewBox="0 0 652 652" fill="none" xmlns="http://www.w3.org/2000/svg">
<path d="M615 326C615 485.61 485.61 615 326 615C166.39 615 37 485.61 37 326C37 166.39 166.39 37 326 37C485.61 37 615 166.39 615 326ZM164.322 326C164.322 415.292 236.708 487.678 326 487.678C415.292 487.678 487.678 415.292 487.678 326C487.678 236.708 415.292 164.322 326 164.322C236.708 164.322 164.322 236.708 164.322 326Z" fill="#A90201" fill-opacity="0.04"/>
<path d="M652 326C652 506.045 506.045 652 326 652C145.955 652 0 506.045 0 326C0 145.955 145.955 0 326 0C506.045 0 652 145.955 652 326ZM3.65189 326C3.65189 504.028 147.972 648.348 326 648.348C504.028 648.348 648.348 504.028 648.348 326C648.348 147.972 504.028 3.65189 326 3.65189C147.972 3.65189 3.65189 147.972 3.65189 326Z" fill="#A90201" fill-opacity="0.04"/>
</svg>
