<svg width="120" height="120" viewBox="0 0 120 120" fill="none" xmlns="http://www.w3.org/2000/svg">
<path d="M118.239 110.731H110.144V77.7711C110.144 76.7984 109.355 76.0098 108.383 76.0098C107.41 76.0098 106.622 76.7984 106.622 77.7711V110.731H92.9044V52.7573C92.9044 52.4337 93.1677 52.1702 93.4915 52.1702H106.034C106.358 52.1702 106.622 52.4337 106.622 52.7573V70.7261C106.622 71.6987 107.41 72.4873 108.383 72.4873C109.355 72.4873 110.144 71.6987 110.144 70.7261V52.7573C110.144 50.4914 108.301 48.6477 106.034 48.6477H93.4915C91.2256 48.6477 89.3819 50.4914 89.3819 52.7573V110.731H83.6353V65.575C83.6353 63.3091 81.7916 61.4654 79.5257 61.4654H66.9828C64.7166 61.4654 62.8732 63.3091 62.8732 65.575V110.731H57.1266V78.3927C57.1266 76.1268 55.2831 74.2831 53.017 74.2831H40.4741C38.2081 74.2831 36.3645 76.1268 36.3645 78.3927V93.7935C36.3645 94.7662 37.153 95.5548 38.1257 95.5548C39.0984 95.5548 39.887 94.7662 39.887 93.7935V78.3927C39.887 78.0688 40.1505 77.8056 40.4741 77.8056H53.017C53.3408 77.8056 53.6041 78.0688 53.6041 78.3927V110.731H39.887V100.839C39.887 99.8659 39.0984 99.0773 38.1257 99.0773C37.153 99.0773 36.3645 99.8659 36.3645 100.839V110.731H30.6178V91.2104C30.6178 88.9445 28.7744 87.1008 26.5083 87.1008H13.9656C11.6996 87.1008 9.85597 88.9445 9.85597 91.2104V110.731H1.76125C0.788571 110.731 0 111.519 0 112.492C0 113.465 0.788571 114.253 1.76125 114.253H118.239C119.211 114.253 120 113.465 120 112.492C120 111.519 119.211 110.731 118.239 110.731ZM66.3957 65.575C66.3957 65.2514 66.6592 64.9879 66.9828 64.9879H79.5257C79.8493 64.9879 80.1128 65.2514 80.1128 65.575V110.731H66.3957V65.575ZM13.3785 91.2104C13.3785 90.8868 13.642 90.6233 13.9656 90.6233H26.5085C26.8323 90.6233 27.0956 90.8868 27.0956 91.2104V110.731H13.3785V91.2104Z" fill="url(#paint0_linear_1_1748)"/>
<path d="M18.8078 66.0746C18.9043 66.0746 19.0018 66.071 19.0995 66.0645C32.0886 65.1622 44.303 62.3276 55.4038 57.6391C70.3515 51.3258 82.726 41.8094 92.2091 29.3395L98.1452 33.467C99.3147 34.3389 101.097 33.2908 100.903 31.845L98.4427 7.33586C98.3627 6.2892 97.2559 5.51918 96.2463 5.80732L72.3924 12.0201C70.9684 12.3413 70.6058 14.3773 71.8307 15.1706L77.8211 19.3356C76.6293 21.2082 74.0034 24.9211 69.4248 29.4628C68.7342 30.1481 68.7297 31.2631 69.4147 31.9535C70.0997 32.6441 71.215 32.6486 71.9054 31.9636C78.9638 24.962 81.6287 19.8426 81.7386 19.6282C82.1408 18.8434 81.9008 17.882 81.1768 17.3785L76.9851 14.464L95.1436 9.73468L97.0166 28.3915L92.8213 25.4746C92.0355 24.9284 90.9584 25.1092 90.3938 25.8814C81.1653 38.5084 68.9317 48.1016 54.0334 54.3939C40.6532 60.045 27.5183 61.9483 18.8557 62.5502C18.3497 62.6798 18.1963 61.7506 18.7003 61.6966C37.9977 55.7414 54.1137 47.3696 66.6005 36.8138C67.3435 36.1859 67.4365 35.0746 66.8085 34.3319C66.1808 33.5891 65.0691 33.4956 64.3266 34.1238C52.204 44.3717 36.5037 52.516 17.6618 58.3307C15.7052 58.9344 14.5571 60.8321 14.9319 62.8428C15.2881 64.7548 16.8937 66.0746 18.8078 66.0746Z" fill="url(#paint1_linear_1_1748)"/>
<defs>
<linearGradient id="paint0_linear_1_1748" x1="60" y1="48.6477" x2="60" y2="114.253" gradientUnits="userSpaceOnUse">
<stop stop-color="#A90201"/>
<stop offset="1" stop-color="#430100"/>
</linearGradient>
<linearGradient id="paint1_linear_1_1748" x1="57.8895" y1="5.74634" x2="57.8895" y2="66.0746" gradientUnits="userSpaceOnUse">
<stop stop-color="#A90201"/>
<stop offset="1" stop-color="#430100"/>
</linearGradient>
</defs>
</svg>
