<svg width="120" height="120" viewBox="0 0 120 120" fill="none" xmlns="http://www.w3.org/2000/svg">
<g clip-path="url(#clip0_1_1754)">
<path d="M117.669 0.00288297C83.4716 -0.264303 53.8688 18.0625 33.2244 45.6162C24.3794 41.4854 13.7403 43.2826 6.73507 50.2878C5.82031 51.2027 5.81985 52.687 6.73507 53.6025L25.6532 72.5207L22.1322 85.032C21.9026 85.8481 22.1315 86.7246 22.7311 87.3242L32.6755 97.2689C33.2781 97.8715 34.1568 98.0962 34.9677 97.8677L47.4788 94.3465C49.5134 96.3811 64.3765 111.244 66.397 113.265C67.312 114.18 68.7965 114.18 69.7117 113.265C76.7186 106.258 78.5153 95.618 74.3809 86.7739C81.9814 81.0809 92.2932 72.0472 101.177 59.692C101.933 58.6411 101.694 57.1767 100.643 56.4208C99.592 55.6655 98.1274 55.9047 97.3716 56.9554C88.1958 69.7164 77.4161 78.808 69.9883 84.1885C62.2959 89.7645 56.4978 92.6691 53.6815 93.9199C51.425 91.6634 44.1442 84.3826 41.5379 81.7763L54.7962 68.518C55.7114 67.6028 55.7114 66.1188 54.7962 65.2033C53.8812 64.2883 52.3969 64.2883 51.4817 65.2033L38.2234 78.4616C29.4546 69.6925 38.9975 79.2331 26.08 66.318C33.5385 49.5249 57.1955 18.2836 92.4814 8.12909C93.2592 12.9673 95.5287 17.4443 99.0415 20.9592C102.555 24.4701 107.03 26.7393 111.866 27.5179C110.739 31.4319 109.332 35.3134 107.662 39.0889C107.138 40.2727 107.673 41.6569 108.857 42.1805C110.043 42.7046 111.425 42.1676 111.948 40.9852C117.564 28.2901 120.089 15.277 119.996 2.32998C119.987 1.04866 118.951 0.0120235 117.669 0.00288297ZM70.4896 89.5749C73.0288 95.7621 72.0616 102.893 67.9509 108.189L57.2152 97.4529C61.2014 95.5364 65.875 92.7654 70.4896 89.5749ZM29.4534 76.3203C30.9435 77.8105 42.1705 89.0377 43.6789 90.5459L35.0193 92.9829L27.0164 84.9797L29.4534 76.3203ZM22.5466 62.7845L11.8107 52.0488C17.1047 47.9391 24.2353 46.9714 30.423 49.508C27.2346 54.1207 24.4643 58.7953 22.5466 62.7845ZM113.054 22.9588C109.017 22.4067 105.272 20.5589 102.356 17.6442C99.4406 14.7274 97.5926 10.9826 97.0404 6.94573C102.99 5.57301 109.112 4.81973 115.296 4.70372C115.179 10.8877 114.426 17.0097 113.054 22.9588Z" fill="url(#paint0_linear_1_1754)"/>
<path d="M62.833 33.9658C56.4284 40.37 56.4277 50.762 62.833 57.167C69.237 63.5711 79.6292 63.5722 86.0342 57.167C92.4387 50.7627 92.4394 40.3708 86.0342 33.9658C79.6301 27.5617 69.238 27.5608 62.833 33.9658ZM82.7197 53.8525C78.1473 58.4251 70.7204 58.4254 66.1477 53.8525C61.5753 49.2805 61.5746 41.8529 66.1477 37.2805C70.7201 32.7079 78.1468 32.7076 82.7199 37.2805C87.2921 41.8525 87.2928 49.28 82.7197 53.8525Z" fill="url(#paint1_linear_1_1754)"/>
<path d="M104.596 51.5564C105.89 51.5564 106.939 50.5071 106.939 49.2126C106.939 47.9182 105.89 46.8689 104.596 46.8689C103.301 46.8689 102.252 47.9182 102.252 49.2126C102.252 50.5071 103.301 51.5564 104.596 51.5564Z" fill="url(#paint2_linear_1_1754)"/>
<path d="M12.7866 93.9546C9.90892 96.8346 1.82603 113.352 0.234858 116.634C-0.200611 117.532 -0.0194392 118.608 0.686498 119.314C1.39619 120.023 2.47314 120.199 3.36634 119.765C6.6483 118.174 23.1656 110.091 26.0459 107.214C26.0461 107.213 26.0463 107.213 26.0466 107.213C29.7021 103.557 29.7021 97.6092 26.0466 93.9539C22.3828 90.2899 16.4531 90.2875 12.7866 93.9546ZM22.7325 103.897C21.443 105.186 14.3297 109.021 7.53681 112.463C10.9788 105.67 14.8142 98.5572 16.1018 97.2684C17.9344 95.4356 20.8985 95.4349 22.7318 97.2684C24.5595 99.096 24.5597 102.07 22.7325 103.897Z" fill="url(#paint3_linear_1_1754)"/>
</g>
<defs>
<linearGradient id="paint0_linear_1_1754" x1="63.0238" y1="0" x2="63.0238" y2="113.951" gradientUnits="userSpaceOnUse">
<stop stop-color="#A90201"/>
<stop offset="1" stop-color="#430100"/>
</linearGradient>
<linearGradient id="paint1_linear_1_1754" x1="74.4336" y1="29.1624" x2="74.4336" y2="61.9705" gradientUnits="userSpaceOnUse">
<stop stop-color="#A90201"/>
<stop offset="1" stop-color="#430100"/>
</linearGradient>
<linearGradient id="paint2_linear_1_1754" x1="104.596" y1="46.8689" x2="104.596" y2="51.5564" gradientUnits="userSpaceOnUse">
<stop stop-color="#A90201"/>
<stop offset="1" stop-color="#430100"/>
</linearGradient>
<linearGradient id="paint3_linear_1_1754" x1="14.3941" y1="91.2051" x2="14.3941" y2="120" gradientUnits="userSpaceOnUse">
<stop stop-color="#A90201"/>
<stop offset="1" stop-color="#430100"/>
</linearGradient>
<clipPath id="clip0_1_1754">
<rect width="120" height="120" fill="white"/>
</clipPath>
</defs>
</svg>
