<svg width="120" height="120" viewBox="0 0 120 120" fill="none" xmlns="http://www.w3.org/2000/svg">
<path d="M110.208 36.5281L103.716 34.9321C103.344 34.8121 103.224 34.6801 103.224 34.5601C102.852 33.4561 102.24 32.2321 101.88 31.3801C101.76 31.1281 101.628 30.8881 101.76 30.6361L105.432 24.7561C105.972 23.7786 106.181 22.6518 106.025 21.5456C105.869 20.4395 105.357 19.4141 104.568 18.6241L101.268 15.3121C100.488 14.5395 99.4675 14.0574 98.3757 13.9461C97.2839 13.8347 96.187 14.1008 95.2676 14.7001L89.5076 18.1321C89.2686 18.2024 89.0145 18.2024 88.7756 18.1321C87.7916 17.6401 86.6876 17.2801 85.4636 16.7881C85.3436 16.7881 85.2236 16.6681 85.2236 16.2961L83.5076 9.80408C83.2273 8.73577 82.6078 7.78732 81.7422 7.10133C80.8766 6.41534 79.8117 6.02889 78.7076 6.00008H74.0756C72.9496 5.98724 71.8526 6.35637 70.9634 7.04723C70.0742 7.73808 69.4454 8.70989 69.1796 9.80408L67.5956 16.2961C67.4636 16.6681 67.3436 16.7881 66.9836 16.7881C65.9996 17.2801 64.8956 17.6401 63.9236 18.1321C63.6716 18.2641 63.5516 18.2641 63.1796 18.1321L57.4316 14.7001C56.487 14.1123 55.3744 13.8536 54.2674 13.9643C53.1604 14.075 52.1211 14.5489 51.3116 15.3121L47.9996 18.6241C47.197 19.4385 46.6983 20.5038 46.5869 21.6417C46.4755 22.7797 46.7581 23.9215 47.3876 24.8761C47.6795 25.3639 48.1528 25.7161 48.7039 25.8555C49.2549 25.995 49.8388 25.9103 50.3276 25.6201C50.807 25.3176 51.1509 24.8415 51.2873 24.2913C51.4238 23.7411 51.3422 23.1595 51.0596 22.6681C50.6876 22.0561 50.9396 21.8161 51.0596 21.6961L54.2396 18.5041C54.3697 18.3823 54.5351 18.305 54.712 18.2835C54.8889 18.2619 55.068 18.2971 55.2236 18.3841L61.1036 21.8161C61.7949 22.2589 62.5942 22.5042 63.4149 22.5253C64.2355 22.5465 65.0464 22.3427 65.7596 21.9361C66.7316 21.5641 67.5956 21.2041 68.3276 20.9521C69.1627 20.7011 69.9182 20.2373 70.5199 19.6062C71.1216 18.975 71.5488 18.1982 71.7596 17.3521L73.1996 10.9081C73.2613 10.7308 73.3763 10.5769 73.5288 10.4673C73.6813 10.3578 73.8638 10.298 74.0516 10.2961H78.7076C78.8423 10.3167 78.9694 10.3717 79.0766 10.4558C79.1838 10.5399 79.2675 10.6502 79.3196 10.7761L81.0356 17.4001C81.1685 18.2218 81.5412 18.986 82.107 19.5966C82.6728 20.2072 83.4063 20.637 84.2156 20.8321L86.7956 21.9361C87.5532 22.3384 88.4017 22.5388 89.2593 22.5177C90.1169 22.4967 90.9546 22.2551 91.6916 21.8161L97.4396 18.2161C97.5633 18.1693 97.697 18.1557 97.8276 18.1768C97.9582 18.1978 98.0809 18.2528 98.1836 18.3361L101.484 21.6481C101.637 21.7512 101.748 21.9071 101.794 22.0862C101.841 22.2653 101.82 22.4553 101.736 22.6201L98.0516 28.3801C97.6671 29.1181 97.4564 29.9343 97.4356 30.7662C97.4148 31.5981 97.5845 32.4238 97.9316 33.1801C98.3786 34.0457 98.748 34.9492 99.0356 35.8801C99.3512 36.651 99.8401 37.3388 100.464 37.8903C101.089 38.4418 101.832 38.842 102.636 39.0601L109.128 40.6561C109.305 40.6743 109.468 40.761 109.582 40.8978C109.697 41.0345 109.753 41.2104 109.74 41.3881V46.0561C109.74 46.5361 109.368 46.5361 109.128 46.6681L102.636 48.3841C101.779 48.5728 100.991 48.9924 100.356 49.5974C99.7217 50.2025 99.2649 50.9698 99.0356 51.8161C98.7956 52.5481 98.3036 53.4001 97.9316 54.3841C97.5744 55.1176 97.4102 55.9301 97.4542 56.7447C97.4983 57.5594 97.7494 58.3494 98.1836 59.0401L101.604 64.6801C101.976 65.2921 101.604 65.5441 101.484 65.6641L98.1836 68.9761C98.0516 69.2161 97.6916 69.2161 97.4396 69.0961C96.9622 68.789 96.3824 68.6841 95.8276 68.8045C95.2729 68.9249 94.7887 69.2607 94.4816 69.7381C94.1745 70.2155 94.0696 70.7953 94.19 71.35C94.3104 71.9048 94.6462 72.389 95.1236 72.6961C95.8911 73.2892 96.8422 73.5949 97.8116 73.5601C98.4533 73.5559 99.0876 73.4232 99.6771 73.1697C100.267 72.9162 100.799 72.547 101.244 72.0841L104.544 68.7721C105.334 67.9851 105.846 66.9616 106.002 65.857C106.158 64.7525 105.949 63.6272 105.408 62.6521L101.808 56.8801C101.735 56.7982 101.685 56.6982 101.664 56.5905C101.643 56.4828 101.651 56.3715 101.688 56.2681C102.21 55.2413 102.66 54.1786 103.032 53.0881C103.152 52.8361 103.272 52.5961 103.644 52.5961L110.004 50.8801C111.12 50.6731 112.126 50.0773 112.844 49.1986C113.563 48.3198 113.947 47.2149 113.928 46.0801V41.4241C113.943 40.2992 113.577 39.2024 112.888 38.3129C112.199 37.4235 111.229 36.7943 110.136 36.5281H110.208ZM82.0436 97.9441C73.9958 105.655 63.234 109.884 52.0898 109.716C40.9455 109.548 30.3163 104.995 22.505 97.0453C14.6936 89.095 10.3293 78.3873 10.3575 67.2418C10.3857 56.0963 14.8041 45.4107 22.6556 37.5001C22.8584 37.3002 23.0195 37.062 23.1294 36.7994C23.2393 36.5367 23.2959 36.2548 23.2959 35.9701C23.2959 35.6853 23.2393 35.4034 23.1294 35.1408C23.0195 34.8781 22.8584 34.6399 22.6556 34.4401C22.2252 34.084 21.6841 33.8892 21.1256 33.8892C20.567 33.8892 20.0259 34.084 19.5956 34.4401C13.0903 40.9715 8.66629 49.284 6.88206 58.328C5.09783 67.372 6.03344 76.7419 9.57074 85.2545C13.108 93.7672 19.0884 101.041 26.7567 106.157C34.425 111.273 43.4373 114.002 52.6556 114C64.7133 114.046 76.3125 109.383 84.9836 101.004C85.3597 100.608 85.5687 100.082 85.567 99.5354C85.5653 98.989 85.3532 98.4643 84.9746 98.0703C84.5961 97.6763 84.0803 97.4433 83.5344 97.4198C82.9885 97.3963 82.4546 97.5841 82.0436 97.9441ZM52.6556 29.7841C45.1988 29.7627 37.9032 31.9536 31.6919 36.0796C25.4806 40.2056 20.6327 46.0813 17.7616 52.9632C14.8905 59.8451 14.1251 67.424 15.5624 74.7409C16.9997 82.0579 20.575 88.7842 25.836 94.0687C31.097 99.3532 37.8072 102.958 45.1177 104.428C52.4282 105.898 60.0105 105.167 66.9051 102.326C73.7997 99.4859 79.6969 94.6643 83.8506 88.4714C88.0042 82.2786 90.2277 74.9929 90.2396 67.5361C90.2397 57.5527 86.2853 47.9757 79.2417 40.9006C72.1982 33.8255 62.6389 29.8285 52.6556 29.7841ZM83.3876 69.6001H85.7876C85.3458 76.9509 82.4564 83.9423 77.5796 89.4601L75.8756 87.7441C75.4443 87.3849 74.9008 87.1882 74.3396 87.1882C73.7783 87.1882 73.2348 87.3849 72.8036 87.7441C72.6008 87.9439 72.4397 88.1821 72.3298 88.4448C72.2198 88.7074 72.1632 88.9893 72.1632 89.2741C72.1632 89.5588 72.2198 89.8407 72.3298 90.1034C72.4397 90.366 72.6008 90.6042 72.8036 90.8041L74.5196 92.5201C69.0372 97.4185 62.0688 100.334 54.7316 100.8V98.4001C54.7414 97.8353 54.5296 97.2891 54.1415 96.8786C53.7535 96.4681 53.22 96.226 52.6556 96.2041C52.0791 96.1878 51.5194 96.3989 51.0973 96.7918C50.6752 97.1847 50.4246 97.7279 50.3996 98.3041V100.704C43.053 100.266 36.0669 97.3706 30.5636 92.4841L32.2796 90.7681C32.4824 90.5682 32.6435 90.33 32.7534 90.0674C32.8633 89.8047 32.9199 89.5228 32.9199 89.2381C32.9199 88.9533 32.8633 88.6714 32.7534 88.4088C32.6435 88.1461 32.4824 87.9079 32.2796 87.7081C31.8492 87.352 31.3082 87.1572 30.7496 87.1572C30.191 87.1572 29.6499 87.352 29.2196 87.7081L27.5996 89.4841C22.748 83.9368 19.848 76.9524 19.3436 69.6001H21.7436C22.2916 69.5821 22.8123 69.3563 23.2001 68.9686C23.5878 68.5808 23.8136 68.0601 23.8316 67.5121C23.8384 66.945 23.6243 66.3975 23.2346 65.9854C22.8449 65.5733 22.3102 65.329 21.7436 65.3041H19.3436C19.8582 57.9685 22.7576 51.0025 27.5996 45.4681L29.3156 47.1841C29.5165 47.385 29.755 47.5444 30.0175 47.6531C30.2801 47.7619 30.5614 47.8178 30.8456 47.8178C31.1297 47.8178 31.4111 47.7619 31.6736 47.6531C31.9361 47.5444 32.1747 47.385 32.3756 47.1841C32.5765 46.9832 32.7359 46.7446 32.8446 46.4821C32.9534 46.2196 33.0093 45.9382 33.0093 45.6541C33.0093 45.3699 32.9534 45.0886 32.8446 44.826C32.7359 44.5635 32.5765 44.325 32.3756 44.1241L30.6596 42.4081C36.1705 37.5959 43.1014 34.714 50.3996 34.2001V36.6001C50.4245 37.1667 50.6688 37.7014 51.0809 38.0911C51.493 38.4808 52.0405 38.6949 52.6076 38.6881C53.1545 38.6699 53.6738 38.4438 54.0596 38.0557C54.4454 37.6677 54.6686 37.1471 54.6836 36.6001V34.2001C62.0152 34.6934 68.983 37.5766 74.5196 42.4081L72.8036 44.1241C72.4377 44.539 72.2439 45.0779 72.2618 45.6309C72.2797 46.1838 72.5079 46.7091 72.8998 47.0995C73.2918 47.4899 73.8179 47.7161 74.3709 47.7318C74.9239 47.7475 75.4621 47.5516 75.8756 47.1841L77.5796 45.4681C82.4564 50.9859 85.3458 57.9773 85.7876 65.3281H83.3876C82.802 65.3281 82.2404 65.5607 81.8263 65.9748C81.4122 66.3889 81.1796 66.9505 81.1796 67.5361C81.2105 68.0984 81.4574 68.6271 81.8689 69.0117C82.2803 69.3963 82.8244 69.6071 83.3876 69.6001ZM71.1476 65.3041H58.1636C57.7327 64.1811 56.9804 63.2101 56.0008 62.5122C55.0212 61.8143 53.8577 61.4205 52.6556 61.3801C51.8564 61.3799 51.0653 61.5393 50.3286 61.8491C49.5919 62.1588 48.9245 62.6126 48.3656 63.1838C47.8067 63.7551 47.3675 64.4322 47.0739 65.1754C46.7802 65.9187 46.638 66.7131 46.6556 67.5121C46.6843 68.3106 46.8507 69.0982 47.1476 69.8401L41.5076 75.4801C41.1401 75.8936 40.9442 76.4317 40.9599 76.9847C40.9756 77.5377 41.2017 78.0639 41.5922 78.4558C41.9826 78.8478 42.5079 79.076 43.0608 79.0939C43.6137 79.1118 44.1526 78.918 44.5676 78.5521L50.2076 72.9121C50.961 73.2526 51.7809 73.4207 52.6076 73.4041C53.8079 73.3985 54.979 73.0331 55.9695 72.3549C56.96 71.6768 57.7243 70.7172 58.1636 69.6001H71.1476C71.6862 69.5764 72.1963 69.351 72.5764 68.9686C72.9566 68.5862 73.179 68.0749 73.1996 67.5361C73.2065 66.9709 72.994 66.4251 72.6069 66.0134C72.2198 65.6016 71.6881 65.356 71.1236 65.3281L71.1476 65.3041ZM52.6556 69.1321C52.4377 69.1417 52.2201 69.1079 52.0154 69.0326C51.8107 68.9573 51.623 68.842 51.4633 68.6935C51.3036 68.545 51.175 68.3661 51.0851 68.1674C50.9952 67.9687 50.9457 67.7541 50.9396 67.5361C50.9201 67.3076 50.9482 67.0775 51.0223 66.8604C51.0964 66.6434 51.2147 66.4441 51.3698 66.2752C51.525 66.1062 51.7135 65.9714 51.9234 65.8791C52.1334 65.7869 52.3602 65.7392 52.5896 65.7392C52.8189 65.7392 53.0458 65.7869 53.2557 65.8791C53.4657 65.9714 53.6542 66.1062 53.8093 66.2752C53.9644 66.4441 54.0828 66.6434 54.1568 66.8604C54.2309 67.0775 54.2591 67.3076 54.2396 67.5361C54.2335 67.9554 54.065 68.356 53.7696 68.6537C53.4742 68.9513 53.0748 69.1228 52.6556 69.1321ZM69.6716 26.2321C69.1307 26.4427 68.6905 26.8517 68.4407 27.3757C68.191 27.8997 68.1505 28.4993 68.3276 29.0521C68.4248 29.323 68.5769 29.5708 68.7744 29.7801C68.9719 29.9894 69.2106 30.1556 69.4754 30.2683C69.7402 30.381 70.0254 30.4377 70.3132 30.4349C70.6009 30.4321 70.885 30.3699 71.1476 30.2521C80.9396 26.6521 91.9556 36.1321 89.5076 45.8521C89.3475 46.4058 89.4128 47.0004 89.6893 47.5062C89.9658 48.0119 90.431 48.3879 90.9836 48.5521C91.5484 48.651 92.13 48.5445 92.6231 48.2517C93.1161 47.959 93.4881 47.4994 93.6716 46.9561C96.8516 33.8281 82.7996 21.6001 69.6716 26.2321Z" fill="url(#paint0_linear_1_1744)"/>
<defs>
<linearGradient id="paint0_linear_1_1744" x1="59.9641" y1="5.99976" x2="59.9641" y2="114" gradientUnits="userSpaceOnUse">
<stop stop-color="#A90201"/>
<stop offset="1" stop-color="#430100"/>
</linearGradient>
</defs>
</svg>
