<svg width="644" height="371" viewBox="0 0 644 371" fill="none" xmlns="http://www.w3.org/2000/svg">
<path d="M505 231.5L505.991 231.362L505 231.5ZM403 175L402.451 174.164L403 175ZM639.114 303.422C639.623 303.636 640.209 303.395 640.422 302.886L643.897 294.583C644.11 294.074 643.87 293.488 643.36 293.275C642.851 293.062 642.265 293.302 642.052 293.811L638.964 301.191L631.584 298.103C631.074 297.89 630.488 298.13 630.275 298.64C630.062 299.149 630.302 299.735 630.812 299.948L639.114 303.422ZM1.07859 6.49677C5.17371 6.17394 9.38331 5.86092 13.699 5.56186L13.5608 3.56664C9.23852 3.86616 5.0226 4.17964 0.92141 4.50296L1.07859 6.49677ZM39.0429 4.05377C47.2704 3.64588 55.7768 3.30491 64.517 3.05322L64.4594 1.05405C55.7047 1.30616 47.1844 1.64769 38.9439 2.05622L39.0429 4.05377ZM89.8959 2.59765C98.2264 2.54035 106.715 2.57476 115.328 2.71778L115.362 0.718054C106.732 0.57476 98.2275 0.5403 89.8821 0.597701L89.8959 2.59765ZM140.774 3.45863C149.155 3.81034 157.617 4.27489 166.131 4.86678L166.27 2.8716C157.736 2.27837 149.256 1.81283 140.858 1.46039L140.774 3.45863ZM191.46 7.00466C199.864 7.84344 208.291 8.81779 216.712 9.94126L216.976 7.95882C208.532 6.83228 200.084 5.8554 191.659 5.01455L191.46 7.00466ZM241.835 13.756C250.195 15.1859 258.522 16.7775 266.789 18.5442L267.207 16.5883C258.912 14.8156 250.558 13.2189 242.172 11.7846L241.835 13.756ZM291.503 24.4138C299.727 26.5734 307.862 28.9263 315.878 31.4864L316.486 29.5812C308.435 27.0099 300.267 24.6473 292.011 22.4794L291.503 24.4138ZM339.832 39.9136C347.784 42.986 355.58 46.2912 363.191 49.8444L364.037 48.0321C356.382 44.4587 348.544 41.1357 340.553 38.048L339.832 39.9136ZM385.737 61.4306C393.147 65.6181 400.328 70.0837 407.248 74.8436L408.381 73.1959C401.411 68.4008 394.179 63.9042 386.72 59.6894L385.737 61.4306ZM427.399 90.2018C433.859 95.6611 440.014 101.442 445.829 107.56L447.279 106.182C441.411 100.009 435.203 94.1786 428.69 88.6742L427.399 90.2018ZM462.168 126.874C467.182 133.563 471.837 140.596 476.099 147.988L477.831 146.989C473.529 139.526 468.83 132.426 463.768 125.674L462.168 126.874ZM487.419 170.669C490.658 178.255 493.526 186.172 495.995 194.432L497.911 193.859C495.421 185.528 492.527 177.54 489.258 169.884L487.419 170.669ZM501.946 219.003C502.726 223.137 503.414 227.348 504.009 231.637L505.991 231.362C505.391 227.042 504.697 222.799 503.911 218.632L501.946 219.003ZM504.009 231.637C504.649 236.246 505.208 240.719 505.688 245.06L507.676 244.84C507.193 240.48 506.632 235.988 505.991 231.362L504.009 231.637ZM507.736 271.144C508.139 280.584 508.098 289.236 507.659 297.144L509.656 297.255C510.099 289.274 510.139 280.556 509.734 271.059L507.736 271.144ZM504.315 323.072C502.165 332.873 499.152 340.891 495.476 347.315L497.211 348.309C501.009 341.674 504.085 333.456 506.269 323.501L504.315 323.072ZM477.583 365.026C470.018 368.732 461.475 369.562 452.505 368.001L452.163 369.972C461.465 371.59 470.449 370.748 478.463 366.822L477.583 365.026ZM428.467 358.79C421.338 354.664 414.287 349.388 407.592 343.209L406.235 344.679C413.026 350.945 420.194 356.313 427.465 360.521L428.467 358.79ZM390.082 323.864C384.865 316.988 380.153 309.577 376.146 301.819L374.369 302.737C378.43 310.6 383.205 318.108 388.489 325.073L390.082 323.864ZM366.432 277.652C363.987 269.204 362.492 260.595 362.155 252.025L360.157 252.103C360.5 260.852 362.026 269.621 364.51 278.207L366.432 277.652ZM364.918 226.306C367.094 218.198 370.583 210.309 375.586 202.821L373.923 201.71C368.796 209.384 365.218 217.474 362.986 225.787L364.918 226.306ZM393.004 183.642C396.23 180.943 399.74 178.336 403.549 175.836L402.451 174.164C398.581 176.705 395.008 179.357 391.72 182.109L393.004 183.642ZM403.549 175.836C407.528 173.223 411.433 170.773 415.268 168.481L414.241 166.765C410.382 169.072 406.453 171.537 402.451 174.164L403.549 175.836ZM439.581 155.578C448.551 151.454 457.084 148.28 465.208 145.972L464.661 144.048C456.428 146.387 447.799 149.599 438.746 153.761L439.581 155.578ZM492.215 141.286C501.888 140.765 510.897 141.627 519.318 143.674L519.79 141.73C511.173 139.636 501.968 138.758 492.107 139.289L492.215 141.286ZM544.443 154.087C552.115 158.702 559.234 164.418 565.885 171.016L567.293 169.596C560.547 162.903 553.303 157.083 545.474 152.374L544.443 154.087ZM583.597 191.961C588.833 199.204 593.749 206.983 598.408 215.135L600.144 214.143C595.458 205.941 590.503 198.101 585.218 190.79L583.597 191.961ZM611.188 239.552C615.167 247.778 618.965 256.191 622.636 264.654L624.47 263.858C620.792 255.378 616.982 246.938 612.988 238.681L611.188 239.552ZM633.338 290.112C635.101 294.398 636.844 298.659 638.575 302.879L640.425 302.121C638.696 297.902 636.952 293.638 635.188 289.351L633.338 290.112Z" fill="url(#paint0_linear_1_1169)"/>
<defs>
<linearGradient id="paint0_linear_1_1169" x1="320.25" y1="1.57129" x2="320.25" y2="369.749" gradientUnits="userSpaceOnUse">
<stop stop-color="#A90201"/>
<stop offset="1" stop-color="#430100"/>
</linearGradient>
</defs>
</svg>
