<svg width="749" height="360" viewBox="0 0 749 360" fill="none" xmlns="http://www.w3.org/2000/svg">
<path d="M102.5 193.5L103.494 193.391L102.5 193.5ZM201 179.501L200.665 180.443L201 179.501ZM6.5 360.001L12.4928 350.13L0.948557 349.876L6.5 360.001ZM7.69761 351.047C7.75523 349.736 7.82536 348.424 7.90791 347.112L5.91186 346.987C5.82852 348.311 5.75771 349.636 5.69954 350.959L7.69761 351.047ZM11.075 321.512C12.633 313.056 14.6854 304.674 17.2034 296.451L15.291 295.865C12.7508 304.161 10.6801 312.618 9.10812 321.15L11.075 321.512ZM26.1596 272.259C29.6334 264.321 33.5561 256.635 37.897 249.287L36.1751 248.27C31.792 255.689 27.8327 263.448 24.3273 271.457L26.1596 272.259ZM52.4227 227.992C57.7977 221.152 63.5913 214.777 69.7687 208.966L68.3984 207.509C62.1441 213.393 56.2833 219.842 50.8501 226.756L52.4227 227.992ZM89.9281 192.985C97.1419 188.243 104.732 184.222 112.661 181.031L111.914 179.176C103.856 182.419 96.1478 186.503 88.8296 191.313L89.9281 192.985ZM137.348 174.071C145.614 172.695 154.163 172.193 162.962 172.666L163.069 170.669C154.125 170.188 145.429 170.698 137.019 172.099L137.348 174.071ZM188.332 176.651C192.401 177.704 196.513 178.965 200.665 180.443L201.335 178.558C197.129 177.062 192.96 175.783 188.833 174.715L188.332 176.651ZM200.665 180.443C205.169 182.046 209.175 183.948 212.714 186.102L213.754 184.394C210.088 182.163 205.958 180.204 201.335 178.558L200.665 180.443ZM230.473 204.968C234.353 212.744 235.844 221.499 235.398 230.556L237.396 230.655C237.856 221.318 236.322 212.211 232.263 204.075L230.473 204.968ZM229.387 256.288C226.05 264.435 221.484 272.259 216.053 279.231L217.631 280.46C223.171 273.348 227.83 265.366 231.238 257.047L229.387 256.288ZM196.9 297.497C189.204 302.741 180.926 306.179 172.592 307.1L172.811 309.088C181.54 308.123 190.124 304.535 198.026 299.15L196.9 297.497ZM147.556 301.411C141.136 297.456 134.95 291.372 129.283 282.725L127.61 283.822C133.406 292.665 139.792 298.977 146.507 303.114L147.556 301.411ZM117.584 258.902C114.771 251.34 112.223 242.766 109.999 233.093L108.049 233.541C110.291 243.287 112.863 251.946 115.709 259.599L117.584 258.902ZM105.205 206.985C104.581 202.622 104.009 198.092 103.494 193.391L101.506 193.609C102.023 198.331 102.597 202.883 103.226 207.269L105.205 206.985ZM103.494 193.391C103.004 188.919 102.759 184.544 102.751 180.264L100.751 180.268C100.76 184.622 101.009 189.068 101.506 193.609L103.494 193.391ZM105.748 154.516C107.817 146.014 110.929 137.94 115 130.276L113.234 129.337C109.087 137.144 105.914 145.374 103.805 154.043L105.748 154.516ZM129.68 108.869C135.166 102.441 141.417 96.3538 148.366 90.5932L147.089 89.0535C140.062 94.8795 133.726 101.047 128.159 107.57L129.68 108.869ZM169.51 75.3577C176.651 70.8533 184.273 66.59 192.328 62.5591L191.433 60.7705C183.325 64.8279 175.645 69.1231 168.443 73.6661L169.51 75.3577ZM216.255 51.7584C224.165 48.5337 232.386 45.4894 240.884 42.6188L240.244 40.724C231.711 43.6065 223.451 46.665 215.5 49.9064L216.255 51.7584ZM265.903 34.8804C274.166 32.5423 282.634 30.3458 291.282 28.2859L290.819 26.3403C282.145 28.4063 273.65 30.6098 265.358 32.9559L265.903 34.8804ZM316.916 22.6746C325.393 20.9735 334.007 19.3901 342.735 17.9197L342.403 15.9475C333.655 17.4211 325.021 19.0083 316.523 20.7136L316.916 22.6746ZM368.689 13.9213C377.294 12.7142 385.985 11.6082 394.742 10.5995L394.513 8.61261C385.741 9.62313 377.033 10.7312 368.411 11.9407L368.689 13.9213ZM420.868 7.89082C429.557 7.08694 438.289 6.37273 447.046 5.74449L446.903 3.74962C438.133 4.3788 429.387 5.09413 420.684 5.89932L420.868 7.89082ZM473.26 4.12007C482.006 3.66166 490.757 3.28475 499.497 2.98571L499.428 0.986883C490.677 1.28633 481.914 1.66375 473.156 2.12281L473.26 4.12007ZM525.745 2.31709C534.538 2.16899 543.299 2.09678 552.009 2.09669V0.0966857C543.288 0.0967776 534.516 0.169082 525.711 0.317373L525.745 2.31709ZM578.276 2.31407C587.11 2.46018 595.87 2.67858 604.534 2.96518L604.6 0.966271C595.925 0.679313 587.154 0.460637 578.309 0.314348L578.276 2.31407ZM630.772 4.05298C639.644 4.49586 648.386 5.00933 656.976 5.58864L657.11 3.59317C648.509 3.01307 639.755 2.49892 630.872 2.05546L630.772 4.05298ZM683.174 7.59787C692.126 8.36951 700.868 9.21293 709.368 10.122L709.58 8.13335C701.066 7.22276 692.311 6.37804 683.346 5.60526L683.174 7.59787ZM735.501 13.2211C739.871 13.7931 744.158 14.3831 748.357 14.9899L748.643 13.0104C744.435 12.4023 740.139 11.8112 735.76 11.238L735.501 13.2211Z" fill="url(#paint0_linear_1_1172)"/>
<defs>
<linearGradient id="paint0_linear_1_1172" x1="377.5" y1="1.09668" x2="377.5" y2="360.001" gradientUnits="userSpaceOnUse">
<stop stop-color="#A90201"/>
<stop offset="1" stop-color="#430100"/>
</linearGradient>
</defs>
</svg>
