<svg width="100" height="100" viewBox="0 0 100 100" fill="none" xmlns="http://www.w3.org/2000/svg">
<path d="M54.6875 12.5H45.3125C44.45 12.5 43.75 11.8 43.75 10.9375C43.75 10.075 44.45 9.375 45.3125 9.375H54.6875C55.55 9.375 56.25 10.075 56.25 10.9375C56.25 11.8 55.55 12.5 54.6875 12.5Z" fill="white"/>
<path d="M67.1875 96.875H32.8125C28.5031 96.875 25 93.3688 25 89.0625V35.9375C25 35.075 25.7 34.375 26.5625 34.375C27.425 34.375 28.125 35.075 28.125 35.9375V89.0625C28.125 91.6469 30.2281 93.75 32.8125 93.75H67.1875C69.7719 93.75 71.875 91.6469 71.875 89.0625V35.9375C71.875 35.075 72.575 34.375 73.4375 34.375C74.3 34.375 75 35.075 75 35.9375V89.0625C75 93.3688 71.4969 96.875 67.1875 96.875Z" fill="white"/>
<path d="M73.4375 46.875C72.575 46.875 71.875 46.175 71.875 45.3125V10.9375C71.875 8.35313 69.7719 6.25 67.1875 6.25H32.8125C30.2281 6.25 28.125 8.35313 28.125 10.9375V45.3125C28.125 46.175 27.425 46.875 26.5625 46.875C25.7 46.875 25 46.175 25 45.3125V10.9375C25 6.63125 28.5031 3.125 32.8125 3.125H67.1875C71.4969 3.125 75 6.63125 75 10.9375V45.3125C75 46.175 74.3 46.875 73.4375 46.875Z" fill="white"/>
<path d="M82.8125 18.9063C81.95 18.9063 81.25 18.3625 81.25 17.5V17.1875C81.25 16.325 81.95 15.625 82.8125 15.625C83.675 15.625 84.375 16.325 84.375 17.1875C84.375 18.05 83.675 18.9063 82.8125 18.9063Z" fill="white"/>
<path d="M82.8125 25.1563C81.95 25.1563 81.25 24.6125 81.25 23.75V23.4375C81.25 22.575 81.95 21.875 82.8125 21.875C83.675 21.875 84.375 22.575 84.375 23.4375C84.375 24.3 83.675 25.1563 82.8125 25.1563Z" fill="white"/>
<path d="M82.8125 31.4063C81.95 31.4063 81.25 30.8625 81.25 30V29.6875C81.25 28.825 81.95 28.125 82.8125 28.125C83.675 28.125 84.375 28.825 84.375 29.6875C84.375 30.55 83.675 31.4063 82.8125 31.4063Z" fill="white"/>
<path d="M17.1875 71.7188C16.325 71.7188 15.625 71.175 15.625 70.3125V70C15.625 69.1375 16.325 68.4375 17.1875 68.4375C18.05 68.4375 18.75 69.1375 18.75 70C18.75 70.8625 18.05 71.7188 17.1875 71.7188Z" fill="white"/>
<path d="M17.1875 77.9688C16.325 77.9688 15.625 77.425 15.625 76.5625V76.25C15.625 75.3875 16.325 74.6875 17.1875 74.6875C18.05 74.6875 18.75 75.3875 18.75 76.25C18.75 77.1125 18.05 77.9688 17.1875 77.9688Z" fill="white"/>
<path d="M17.1875 84.2188C16.325 84.2188 15.625 83.675 15.625 82.8125V82.5C15.625 81.6375 16.325 80.9375 17.1875 80.9375C18.05 80.9375 18.75 81.6375 18.75 82.5C18.75 83.3625 18.05 84.2188 17.1875 84.2188Z" fill="white"/>
<path d="M77.6281 84.375C77.5187 84.375 77.4063 84.3656 77.2969 84.3406C76.4531 84.1594 75.9187 83.3281 76.1 82.4844L77.1312 77.7031C77.2562 77.1156 77.7094 76.6563 78.2906 76.5156C79.7656 76.1594 81.2031 75.5594 82.5625 74.7312C83.0656 74.4187 83.7125 74.4281 84.2156 74.7469L87.3094 76.725L89.225 74.7938L87.2469 71.725C86.9219 71.2219 86.9156 70.575 87.225 70.0656C88.0531 68.7062 88.6531 67.2688 89.0063 65.7938C89.1469 65.2125 89.6031 64.7625 90.1875 64.6312L93.75 63.8406V61.1625L90.1906 60.3719C89.6063 60.2406 89.15 59.7906 89.0094 59.2094C88.6562 57.7344 88.0531 56.2969 87.2281 54.9375C86.9156 54.4281 86.9219 53.7844 87.2469 53.2812L89.2281 50.1844L87.3156 48.2719L84.2188 50.2531C83.7156 50.575 83.0719 50.5813 82.5656 50.2688C81.2031 49.4406 79.7656 48.8406 78.2938 48.4844C77.7094 48.3438 77.2594 47.8813 77.1344 47.2969L76.3656 43.75H75C74.1375 43.75 73.4375 43.05 73.4375 42.1875C73.4375 41.325 74.1375 40.625 75 40.625H77.625C78.3594 40.625 78.9969 41.1406 79.15 41.8594L79.9844 45.7125C81.1281 46.0594 82.25 46.5281 83.3313 47.1125L86.6875 44.9656C87.3062 44.5719 88.1125 44.6594 88.6344 45.1781L92.325 48.8656C92.8438 49.3844 92.9312 50.1938 92.5344 50.8125L90.3875 54.1687C90.9719 55.2531 91.4406 56.375 91.7875 57.5219L95.6469 58.3781C96.3656 58.5375 96.875 59.175 96.875 59.9062V65.0938C96.875 65.825 96.3656 66.4625 95.65 66.6188L91.7906 67.475C91.4437 68.6219 90.975 69.7437 90.3906 70.825L92.5344 74.15C92.9344 74.7656 92.85 75.5781 92.3312 76.0969L88.6406 79.8156C88.1187 80.3375 87.3094 80.425 86.6906 80.0312L83.3344 77.8844C82.25 78.4688 81.1313 78.9375 79.9875 79.2844L79.1531 83.1375C78.9938 83.875 78.3437 84.375 77.6281 84.375Z" fill="white"/>
<path d="M79.3475 70.5562C78.8475 70.5562 78.3538 70.3125 78.0507 69.8656C77.5694 69.15 77.76 68.1781 78.4788 67.6969C80.2132 66.5281 81.2507 64.5844 81.2507 62.5C81.2507 59.0531 78.4475 56.25 75.0007 56.25C74.5757 56.25 74.1538 56.2938 73.7507 56.375C72.9132 56.5438 72.0788 56.0062 71.9038 55.1562C71.7319 54.3094 72.2757 53.4844 73.1225 53.3125C73.735 53.1906 74.3663 53.125 75.0007 53.125C80.1694 53.125 84.3757 57.3312 84.3757 62.5C84.3757 65.6281 82.8225 68.5406 80.2163 70.2906C79.9507 70.4688 79.6475 70.5562 79.3475 70.5562Z" fill="white"/>
<path d="M25 46.875C19.8312 46.875 15.625 42.6688 15.625 37.5C15.625 34.3594 17.1875 31.4438 19.8062 29.6938C20.5156 29.2188 21.4906 29.4063 21.9719 30.1282C22.45 30.8438 22.2563 31.8157 21.5375 32.2938C19.7938 33.4625 18.75 35.4063 18.75 37.5C18.75 40.9469 21.5531 43.75 25 43.75C25.4187 43.75 25.8313 43.7094 26.225 43.6282C27.0531 43.4563 27.8938 44.0032 28.0656 44.8532C28.2375 45.7 27.6875 46.5219 26.8406 46.6907C26.2437 46.8125 25.6313 46.875 25 46.875Z" fill="white"/>
<path d="M25 59.3751H22.375C21.6406 59.3751 21.0031 58.8594 20.85 58.1407L20.0156 54.2876C18.8719 53.9407 17.75 53.4719 16.6688 52.8876L13.3125 55.0344C12.6906 55.4282 11.8875 55.3438 11.3656 54.8219L7.675 51.1344C7.15625 50.6157 7.06875 49.8063 7.46562 49.1876L9.6125 45.8313C9.02812 44.7469 8.55938 43.6251 8.2125 42.4782L4.35312 41.6219C3.63438 41.4626 3.125 40.8251 3.125 40.0938V34.9063C3.125 34.1751 3.63437 33.5376 4.35 33.3813L8.20938 32.5251C8.55625 31.3782 9.025 30.2563 9.60938 29.1751L7.46875 25.8469C7.06875 25.2313 7.15312 24.4188 7.67188 23.9001L11.3625 20.1813C11.8781 19.6563 12.6906 19.5688 13.3125 19.9657L16.6688 22.1126C17.7531 21.5282 18.8719 21.0594 20.0156 20.7126L20.85 16.8594C21.0312 16.0126 21.8781 15.4751 22.7062 15.6626C23.55 15.8438 24.0844 16.6751 23.9031 17.5188L22.8719 22.3001C22.7469 22.8876 22.2938 23.3469 21.7125 23.4876C20.2375 23.8438 18.8 24.4438 17.4375 25.2719C16.9312 25.5844 16.2875 25.5751 15.7844 25.2563L12.6906 23.2782L10.7719 25.2094L12.75 28.2782C13.0781 28.7813 13.0844 29.4282 12.7719 29.9376C11.9437 31.2969 11.3438 32.7344 10.9906 34.2094C10.85 34.7907 10.3937 35.2407 9.80937 35.3719L6.25 36.1594V38.8376L9.80937 39.6282C10.3937 39.7594 10.85 40.2094 10.9906 40.7907C11.3438 42.2657 11.9469 43.7032 12.7719 45.0626C13.0844 45.5719 13.0781 46.2157 12.7531 46.7188L10.7719 49.8126L12.6844 51.7251L15.7813 49.7438C16.2844 49.4251 16.9312 49.4188 17.4344 49.7282C18.7969 50.5563 20.2344 51.1563 21.7063 51.5126C22.2906 51.6532 22.7406 52.1157 22.8656 52.7001L23.6344 56.2501H25C25.8625 56.2501 26.5625 56.9501 26.5625 57.8126C26.5625 58.6751 25.8625 59.3751 25 59.3751Z" fill="white"/>
<path d="M48.4371 57.8128C48.3121 57.8128 48.1871 57.7972 48.059 57.766C47.2184 57.5566 46.7121 56.7097 46.9215 55.8722L50.0465 43.3722C50.2527 42.5316 51.0871 42.0253 51.9402 42.2347C52.7809 42.4441 53.2871 43.291 53.0777 44.1285L49.9527 56.6285C49.7777 57.341 49.1402 57.8128 48.4371 57.8128Z" fill="white"/>
<path d="M57.8123 57.8126C57.4123 57.8126 57.0123 57.6595 56.7061 57.3563C56.0967 56.747 56.0967 55.7563 56.7061 55.147L61.8529 50.0001L56.7092 44.8563C56.0998 44.247 56.0998 43.2563 56.7092 42.647C57.3186 42.0376 58.3092 42.0376 58.9186 42.647L65.1686 48.897C65.7779 49.5063 65.7779 50.497 65.1686 51.1063L58.9186 57.3563C58.6123 57.6595 58.2123 57.8126 57.8123 57.8126Z" fill="white"/>
<path d="M42.1873 57.8126C41.7873 57.8126 41.3873 57.6595 41.0811 57.3563L34.8311 51.1063C34.2217 50.497 34.2217 49.5063 34.8311 48.897L41.0811 42.647C41.6904 42.0376 42.6811 42.0376 43.2904 42.647C43.8998 43.2563 43.8998 44.247 43.2904 44.8563L38.1467 50.0001L43.2904 55.1438C43.8998 55.7532 43.8998 56.7438 43.2904 57.3532C42.9873 57.6595 42.5873 57.8126 42.1873 57.8126Z" fill="white"/>
</svg>
