<svg width="100" height="100" viewBox="0 0 100 100" fill="none" xmlns="http://www.w3.org/2000/svg">
<path d="M88.0001 15.2277C89.9849 15.2277 91.591 13.6217 91.591 11.6368C91.591 9.65196 89.9849 8.0459 88.0001 8.0459C86.0152 8.0459 84.4092 9.65196 84.4092 11.6368C84.4092 13.6217 86.0304 15.2277 88.0001 15.2277ZM88.0001 10.6065C88.5759 10.6065 89.0455 11.0762 89.0455 11.652C89.0455 12.2277 88.5759 12.6974 88.0001 12.6974C87.4092 12.6974 86.9546 12.2429 86.9546 11.652C86.9546 11.0611 87.4243 10.6065 88.0001 10.6065Z" fill="white"/>
<path d="M91.9844 2.24268H18.1663C15.3632 2.24268 13.0753 4.53056 13.0753 7.33359V15.1063H8.01474C5.21171 15.1063 2.92383 17.3942 2.92383 20.1972V84.0306C2.92383 86.8336 5.21171 89.1215 8.01474 89.1215H41.8481V96.4851C41.8481 97.1821 42.4238 97.7578 43.1208 97.7578H67.0299C67.7269 97.7578 68.3026 97.1821 68.3026 96.4851V89.1215H81.8329C84.6359 89.1215 86.9238 86.8336 86.9238 84.0306V76.2578H91.9844C94.7875 76.2578 97.0753 73.97 97.0753 71.1669V7.33359C97.0753 4.53056 94.7875 2.24268 91.9844 2.24268ZM15.6208 7.33359C15.6208 5.92449 16.7723 4.78813 18.1663 4.78813H91.9844C93.3935 4.78813 94.5299 5.93965 94.5299 7.33359V18.5003H46.2269L40.545 12.6063C40.1056 12.1518 39.4996 11.8942 38.8784 11.8942H26.3632C25.0905 11.8942 24.045 12.9396 24.045 14.2124V18.5003H15.6208V7.33359ZM8.01474 86.5912C6.60565 86.5912 5.46928 85.4397 5.46928 84.0457V20.1972C5.46928 18.7881 6.6208 17.6518 8.01474 17.6518H13.0753V71.1821C13.0753 73.9851 15.3632 76.273 18.1663 76.273H45.8026C46.3026 77.2427 46.5299 78.3336 46.439 79.4548H44.4693C43.0147 79.4548 41.8481 80.6366 41.8481 82.076V86.5912H8.01474ZM53.8178 59.9397C54.0753 59.4851 54.545 59.1972 55.0753 59.1972C55.8632 59.1972 56.4996 59.8336 56.4996 60.6215C56.4996 61.1366 56.2269 61.6063 55.7875 61.8639C55.3026 62.1518 54.7269 62.1215 54.1359 61.7881C54.0602 61.7427 53.9844 61.6821 53.9541 61.6063C53.4693 60.8336 53.6663 60.2275 53.8178 59.9397ZM53.8026 56.8942C52.8784 57.2124 52.0905 57.8336 51.6056 58.7124C50.8784 60.0154 50.9693 61.6063 51.8178 62.97C52.0905 63.3942 52.4541 63.7427 52.8935 64.0003C53.5905 64.3942 54.3481 64.6063 55.0905 64.6063C55.7875 64.6063 56.4693 64.4245 57.0753 64.076C58.2875 63.3639 59.045 62.0457 59.045 60.6366C59.045 58.8942 57.9087 57.4245 56.3481 56.8942V50.3487L67.6056 70.6669C67.5905 70.6821 67.5753 70.7124 67.5299 70.7275C63.545 71.7578 60.939 75.4851 61.1511 79.4548H49.0147C49.242 75.47 46.6208 71.7427 42.5602 70.6063L53.8026 50.3487V56.8942ZM65.7572 95.2124H44.3935L44.4693 81.9851H65.6814C65.7269 81.9851 65.7572 82.0154 65.7572 82.0609V95.2124ZM84.3784 84.0306C84.3784 85.4397 83.2269 86.576 81.8329 86.576H68.3026V82.0609C68.3026 80.6063 67.1208 79.4397 65.6814 79.4397H63.7117C63.6208 78.3184 63.8632 77.2275 64.3481 76.2578H84.3784V84.0306ZM91.9844 73.7275H66.8178C67.2269 73.5003 67.6663 73.3033 68.1511 73.1821C68.9541 72.97 69.6056 72.4093 69.939 71.6518C70.2572 70.9093 70.2117 70.076 69.8178 69.3639L56.7875 45.8942C56.4541 45.273 55.8026 44.879 55.0905 44.879C54.3632 44.8942 53.7117 45.2578 53.3632 45.879L40.3178 69.3639C39.9238 70.076 39.8935 70.9245 40.2117 71.6669C40.5299 72.4245 41.1814 72.97 41.9844 73.1821C42.4693 73.3033 42.8935 73.5003 43.3178 73.7275H18.1663C16.7572 73.7275 15.6208 72.576 15.6208 71.1821V21.0457H24.2572C25.5299 21.0457 26.5753 20.0003 26.5753 18.7275V14.4396H38.7723L44.4541 20.3336C44.8935 20.7881 45.4996 21.0457 46.1208 21.0457H94.5299V71.1669C94.5299 72.576 93.3935 73.7275 91.9844 73.7275Z" fill="white"/>
<path d="M79.3331 15.2275C81.3179 15.2275 82.924 13.6214 82.924 11.6366C82.924 9.65171 81.3179 8.04565 79.3331 8.04565C77.3482 8.04565 75.7422 9.65171 75.7422 11.6366C75.7422 13.6214 77.3482 15.2275 79.3331 15.2275ZM79.3331 10.6063C79.9089 10.6063 80.3785 11.076 80.3785 11.6517C80.3785 12.2275 79.9089 12.6972 79.3331 12.6972C78.7422 12.6972 78.2876 12.2426 78.2876 11.6517C78.2876 11.0608 78.7573 10.6063 79.3331 10.6063Z" fill="white"/>
<path d="M70.6515 15.2277C72.6363 15.2277 74.2424 13.6217 74.2424 11.6368C74.2424 9.65196 72.6363 8.0459 70.6515 8.0459C68.6666 8.0459 67.0605 9.65196 67.0605 11.6368C67.0605 13.6217 68.6666 15.2277 70.6515 15.2277ZM70.6515 10.6065C71.2272 10.6065 71.6969 11.0762 71.6969 11.652C71.6969 12.2277 71.2272 12.6974 70.6515 12.6974C70.0606 12.6974 69.606 12.2429 69.606 11.652C69.606 11.0611 70.0757 10.6065 70.6515 10.6065Z" fill="white"/>
<path d="M79.6056 32.1365C78.8632 32.8789 78.3935 33.8183 78.2117 34.8183H60.4086V32.8183C60.4086 31.4547 59.3026 30.3486 57.9389 30.3486H52.1965C50.8329 30.3486 49.7268 31.4547 49.7268 32.8183V34.8183H31.9389C31.7723 33.8335 31.3026 32.8941 30.545 32.1214C28.6207 30.2274 25.3329 30.2577 23.4541 32.1365C22.4995 33.0911 21.9844 34.3486 21.9844 35.682C21.9844 37.0304 22.5147 38.3032 23.4541 39.2274C24.4086 40.2123 25.6813 40.7123 26.9995 40.7123C27.8329 40.7123 28.6813 40.5153 29.4844 40.1062C30.348 39.6668 31.0601 38.9395 31.4844 38.0456C31.5904 37.8183 31.6813 37.5911 31.7571 37.3638H44.1056C37.3935 40.6365 32.3329 46.788 30.5753 54.2123H28.6056C27.2419 54.2123 26.1359 55.3183 26.1359 56.682V62.4244C26.1359 63.788 27.2419 64.8941 28.6056 64.8941H34.348C35.7116 64.8941 36.8177 63.788 36.8177 62.4244V56.682C36.8177 55.3183 35.7116 54.2123 34.348 54.2123H33.1965C35.3177 46.2123 41.7268 39.9395 49.7723 38.0001V38.5456C49.7723 39.9092 50.8783 41.0153 52.242 41.0153H57.9844C59.348 41.0153 60.4541 39.9092 60.4541 38.5456V38.0001C68.4844 39.9395 74.8935 46.2123 77.0298 54.2123H75.9844C74.6207 54.2123 73.5147 55.3183 73.5147 56.682V62.4244C73.5147 63.788 74.6207 64.8941 75.9844 64.8941H81.7268C83.0904 64.8941 84.1965 63.788 84.1965 62.4244V56.682C84.1965 55.3183 83.0904 54.2123 81.7268 54.2123H79.651C77.8783 46.788 72.8177 40.6214 66.1207 37.3638H78.4995C78.742 38.0608 79.1359 38.6971 79.6662 39.2274C80.6207 40.2123 81.8935 40.7123 83.2116 40.7123C84.045 40.7123 84.8935 40.5153 85.6965 40.1062C86.5601 39.6668 87.2723 38.9395 87.6965 38.0456C88.6814 35.9698 88.3329 33.7123 86.7723 32.1214C84.7874 30.2426 81.4995 30.2577 79.6056 32.1365ZM29.1662 36.9698C28.9844 37.3335 28.6813 37.6517 28.3177 37.8335C26.9995 38.5001 25.8632 38.0759 25.242 37.4244C24.7723 36.9698 24.5147 36.3486 24.5147 35.682C24.5147 35.0304 24.7723 34.4092 25.242 33.9244C25.7116 33.4547 26.3329 33.1971 26.9995 33.1971C27.651 33.1971 28.2874 33.4547 28.742 33.9092C29.5298 34.7274 29.6813 35.8638 29.1662 36.9698ZM34.3177 62.3486L28.651 62.4244L28.5753 56.7577H34.242L34.3177 62.3486ZM81.6814 62.3486L76.0147 62.4244L75.9389 56.7577H81.6056L81.6814 62.3486ZM52.2874 38.5608L52.2571 36.6517C52.2874 36.5153 52.2874 36.3789 52.2723 36.2274V36.2123C52.2723 36.1668 52.3026 36.1365 52.3026 36.0911C52.3026 36.0153 52.2723 35.9547 52.2571 35.8941L52.2116 32.9092H57.8783L57.9238 35.8941C57.9086 35.9698 57.8783 36.0304 57.8783 36.1062C57.8783 36.1517 57.8935 36.182 57.9086 36.2274V36.2426C57.8783 36.4395 57.8935 36.6214 57.9389 36.788L57.9692 38.5001L52.2874 38.5608ZM85.3329 36.9698C85.151 37.3335 84.848 37.6517 84.4844 37.8335C83.1662 38.5001 82.0298 38.0759 81.4086 37.4244C80.9389 36.9698 80.6813 36.3486 80.6813 35.682C80.6813 35.0304 80.9389 34.4092 81.4086 33.9244C81.8783 33.4547 82.4995 33.1971 83.1662 33.1971C83.8177 33.1971 84.4541 33.4547 84.9086 33.9092C85.6965 34.7274 85.848 35.8638 85.3329 36.9698Z" fill="white"/>
</svg>
