<svg width="100" height="100" viewBox="0 0 100 100" fill="none" xmlns="http://www.w3.org/2000/svg">
<g clip-path="url(#clip0_1_1140)">
<path d="M99.8829 7.46521C99.6663 3.49294 96.5071 0.334156 92.5348 0.117359C84.5196 -0.320532 68.8352 0.105445 53.8376 7.86267C46.192 11.8174 38.1061 18.5222 31.6532 26.2582C31.5737 26.3535 31.4963 26.4494 31.4174 26.5449L16.7729 27.6761C14.3624 27.8625 12.2153 29.126 10.8821 31.1424L0.891064 46.2541C-0.120068 47.7834 -0.280811 49.6972 0.460791 51.3736C1.20259 53.0502 2.72681 54.2185 4.53833 54.4992L16.8764 56.4101C16.8329 56.65 16.7891 56.8896 16.7491 57.1295C16.3383 59.5865 17.1524 62.1127 18.927 63.8871L36.1129 81.0732C37.5842 82.5445 39.5723 83.3556 41.6094 83.3556C42.029 83.3556 42.4508 83.3211 42.8708 83.251C43.1106 83.2109 43.3502 83.1672 43.5901 83.1236L45.501 95.4619C45.7817 97.2734 46.95 98.7978 48.6262 99.5394C49.3237 99.848 50.0618 100 50.7965 100C51.8284 100 52.853 99.6998 53.7459 99.1094L68.8577 89.1181C70.8743 87.7847 72.1375 85.6377 72.3235 83.2273L73.4547 68.583C73.5502 68.5041 73.6463 68.4267 73.7417 68.3472C81.4778 61.8943 88.1829 53.8084 92.1374 46.1627C99.895 31.1644 100.32 15.4799 99.8829 7.46521ZM65.6262 84.2302L51.1709 93.7875L49.3084 81.7631C55.4178 79.9668 61.4614 77.0898 67.219 73.2357L66.4821 82.7758C66.4362 83.3709 66.1241 83.9011 65.6262 84.2302ZM40.2561 76.9301L23.07 59.7439C22.6315 59.3053 22.4288 58.689 22.5282 58.0955C23.0391 55.0402 23.8331 52.1318 24.8159 49.392L50.6026 75.1787C47.312 76.3574 44.3645 77.0605 41.9045 77.4719C41.31 77.5707 40.6946 77.3685 40.2561 76.9301ZM17.2243 33.5181L26.7641 32.7812C22.9098 38.5388 20.0329 44.5824 18.2366 50.6918L6.21235 48.8295L15.7698 34.374C16.0991 33.876 16.6293 33.564 17.2243 33.5181ZM69.9889 63.8474C65.2559 67.7953 60.6616 70.6508 56.4268 72.717L27.2821 43.5722C29.9887 38.0441 33.292 33.4408 36.1526 30.0115C42.1243 22.8523 49.5514 16.6763 56.5297 13.067C70.2942 5.94724 84.7963 5.56384 92.2159 5.96775C93.1979 6.02127 93.979 6.80232 94.0325 7.78455C94.437 15.2041 94.0528 29.706 86.9331 43.4707C83.3239 50.4488 77.1479 57.8758 69.9889 63.8474Z" fill="white"/>
<path d="M68.5006 46.141C72.251 46.1406 76.0029 44.7129 78.8582 41.8576C81.625 39.091 83.1484 35.4125 83.1484 31.5C83.1484 27.5875 81.6248 23.909 78.8582 21.1424C73.1469 15.4309 63.8539 15.4313 58.143 21.1424C55.3762 23.909 53.8525 27.5875 53.8525 31.5C53.8525 35.4125 55.3764 39.091 58.143 41.8576C60.9988 44.7135 64.7488 46.1414 68.5006 46.141ZM62.2857 25.2854C63.999 23.5719 66.2496 22.7152 68.5002 22.7152C70.751 22.7152 73.0016 23.5719 74.7148 25.2854C76.3748 26.9453 77.2889 29.1523 77.2889 31.4998C77.2889 33.8473 76.3748 36.0545 74.7148 37.7145C71.2883 41.1412 65.7123 41.141 62.2855 37.7145C60.6256 36.0545 59.7113 33.8475 59.7113 31.5C59.7113 29.1525 60.6258 26.9453 62.2857 25.2854Z" fill="white"/>
<path d="M2.98818 82.4099C3.73799 82.4099 4.48779 82.1239 5.05967 81.5517L14.6247 71.9866C15.7688 70.8425 15.7688 68.9876 14.6247 67.8435C13.4808 66.6993 11.6257 66.6993 10.4815 67.8435L0.916699 77.4085C-0.227441 78.5526 -0.227441 80.4075 0.916699 81.5517C1.48857 82.1237 2.23838 82.4099 2.98818 82.4099Z" fill="white"/>
<path d="M23.391 76.6093C22.247 75.4652 20.3919 75.4652 19.2478 76.6093L0.85835 94.999C-0.285791 96.1431 -0.285791 97.998 0.85835 99.1421C1.43042 99.7142 2.18003 100 2.92983 100C3.67964 100 4.42944 99.7142 5.00132 99.1419L23.3908 80.7525C24.5351 79.6083 24.5351 77.7535 23.391 76.6093Z" fill="white"/>
<path d="M28.013 85.3752L18.4479 94.9402C17.3038 96.0844 17.3038 97.9393 18.4479 99.0834C19.02 99.6555 19.7698 99.9416 20.5194 99.9416C21.269 99.9416 22.019 99.6557 22.5909 99.0834L32.156 89.5184C33.3001 88.3742 33.3001 86.5193 32.156 85.3752C31.012 84.2311 29.1569 84.2311 28.013 85.3752Z" fill="white"/>
</g>
<defs>
<clipPath id="clip0_1_1140">
<rect width="100" height="100" fill="white"/>
</clipPath>
</defs>
</svg>
