<svg width="100" height="100" viewBox="0 0 100 100" fill="none" xmlns="http://www.w3.org/2000/svg">
<path d="M35.5448 27.1011C34.8819 26.6372 33.9685 26.7989 33.505 27.4622L28.8499 34.1202L25.8325 31.4384C25.2278 30.9007 24.3019 30.9554 23.7646 31.5601C23.2271 32.1648 23.2815 33.0905 23.8862 33.628L27.0974 36.4823C28.3093 37.5597 30.1814 37.3288 31.1023 36.0118L35.9062 29.1411C36.3696 28.478 36.2079 27.5646 35.5448 27.1011Z" fill="white"/>
<path d="M35.5456 48.4994C34.8827 48.0358 33.9692 48.1973 33.5058 48.8606L28.8507 55.5188L25.8335 52.8367C25.2288 52.2989 24.3028 52.3537 23.7655 52.9584C23.228 53.5631 23.2825 54.4889 23.8872 55.0264L27.0985 57.8811C28.311 58.9584 30.1825 58.7266 31.103 57.4104L35.9069 50.5395C36.3704 49.8762 36.2087 48.9629 35.5456 48.4994Z" fill="white"/>
<path d="M35.5448 69.6103C34.8819 69.1466 33.9685 69.3081 33.505 69.9714L28.8499 76.6294L25.8325 73.9476C25.2278 73.4099 24.3019 73.4646 23.7646 74.0693C23.2271 74.6739 23.2815 75.5997 23.8862 76.1372L27.0974 78.9915C28.3093 80.0689 30.1814 79.8378 31.1023 78.521L35.9062 71.6503C36.3696 70.9872 36.2079 70.0738 35.5448 69.6103Z" fill="white"/>
<path d="M63.9027 27.6064H43.2012C42.3922 27.6064 41.7363 28.2621 41.7363 29.0713C41.7363 29.8805 42.3922 30.5361 43.2012 30.5361H63.9025C64.7117 30.5361 65.3674 29.8805 65.3674 29.0713C65.3674 28.2621 64.7117 27.6064 63.9027 27.6064Z" fill="white"/>
<path d="M63.9027 34.1162H43.2012C42.3922 34.1162 41.7363 34.7719 41.7363 35.5811C41.7363 36.3902 42.3922 37.0459 43.2012 37.0459H63.9025C64.7117 37.0459 65.3674 36.3902 65.3674 35.5811C65.3674 34.7719 64.7117 34.1162 63.9027 34.1162Z" fill="white"/>
<path d="M65.3676 50C65.3676 49.1908 64.7119 48.5352 63.9027 48.5352H43.2012C42.3922 48.5352 41.7363 49.1908 41.7363 50C41.7363 50.8092 42.3922 51.4648 43.2012 51.4648H63.9025C64.7117 51.4648 65.3676 50.8092 65.3676 50Z" fill="white"/>
<path d="M43.2012 55.0449C42.3922 55.0449 41.7363 55.7006 41.7363 56.5098C41.7363 57.3189 42.3922 57.9746 43.2012 57.9746H53.5518C54.3609 57.9746 55.0166 57.3189 55.0166 56.5098C55.0166 55.7006 54.3609 55.0449 53.5518 55.0449H43.2012Z" fill="white"/>
<path d="M90.6339 30.0727C88.0558 28.0066 84.2984 28.4213 82.233 30.9984C80.7535 32.8443 46.3339 75.7895 43.6414 79.1488C43.4556 79.3803 43.7373 78.9076 38.6123 89.1729H17.6933C17.3292 89.1729 17.0332 88.8768 17.0332 88.5129V14.5623H26.7037V15.5502C26.7037 17.5799 28.355 19.2311 30.3845 19.2311H58.3779C60.4078 19.2311 62.0589 17.5799 62.0589 15.5502V14.5623H71.7294V36.9447C71.7294 37.7539 72.3851 38.4096 73.1943 38.4096C74.0035 38.4096 74.6591 37.7539 74.6591 36.9447V14.5623H76.9464C77.915 14.5623 78.7031 15.3504 78.7031 16.3189V28.2227C78.7031 29.0318 79.3587 29.6875 80.1679 29.6875C80.9771 29.6875 81.6328 29.0318 81.6328 28.2227V16.3189C81.6328 13.735 79.5304 11.6326 76.9464 11.6326H61.8808C61.2222 8.95566 58.8025 6.96387 55.9253 6.96387H53.1064C52.6218 6.96387 52.2275 6.56953 52.2275 6.08496C52.2275 2.72969 49.498 0 46.1427 0H42.6199C39.2648 0 36.5351 2.72969 36.5351 6.08477C36.5351 6.56934 36.1408 6.96367 35.6562 6.96367H32.8373C29.9599 6.96367 27.5404 8.95547 26.8818 11.6324H11.816C9.23198 11.6324 7.12964 13.7348 7.12964 16.3188V95.3135C7.12964 97.8975 9.23198 99.9998 11.816 99.9998H76.9462C79.5302 99.9998 81.6326 97.8975 81.6326 95.3135V57.9916C81.6326 57.1824 80.9769 56.5268 80.1677 56.5268C79.3586 56.5268 78.7029 57.1824 78.7029 57.9916V95.3137C78.7029 96.2822 77.9148 97.0703 76.9462 97.0703H11.816C10.8474 97.0703 10.0593 96.2822 10.0593 95.3137V16.3189C10.0593 15.3504 10.8474 14.5623 11.816 14.5623H14.1035V88.5131C14.1035 90.4924 15.7138 92.1027 17.6933 92.1027H37.8677C37.9962 92.9559 38.432 93.7596 39.1373 94.3248C40.4152 95.349 42.2685 95.3467 43.5443 94.3117L46.2671 92.1027H71.0693C73.0488 92.1027 74.6591 90.4924 74.6591 88.5131V66.6748C74.6591 65.8656 74.0035 65.21 73.1943 65.21C72.3851 65.21 71.7294 65.8656 71.7294 66.6748V88.5131C71.7294 88.877 71.4332 89.173 71.0693 89.173H49.88C52.9037 86.7047 52.7947 86.8398 52.9679 86.624C55.6617 83.2631 90.0814 40.3178 91.5597 38.4734C93.6205 35.9018 93.2052 32.1332 90.6339 30.0727ZM29.6334 13.0975C29.6334 11.3309 31.0707 9.89355 32.8373 9.89355H35.6562C37.7562 9.89355 39.4648 8.18496 39.4648 6.08496C39.4648 4.34531 40.8802 2.92988 42.6199 2.92988H46.1427C47.8826 2.92988 49.2978 4.34531 49.2978 6.08496C49.2978 8.18496 51.0064 9.89355 53.1064 9.89355H55.9253C57.6919 9.89355 59.1292 11.3309 59.1292 13.0975V15.5502C59.1292 15.9643 58.7921 16.3014 58.3779 16.3014H30.3845C29.9703 16.3014 29.6334 15.9643 29.6334 15.5502V13.0975ZM41.6986 92.0365C41.4876 92.2076 41.1812 92.208 40.9695 92.0389C40.7578 91.8689 40.6917 91.5693 40.8126 91.3266L45.3191 82.2773L49.5492 85.6678L41.6986 92.0365ZM51.6437 83.5916L46.8894 79.7811L78.2449 40.659L82.9992 44.4695L51.6437 83.5916ZM89.2736 36.6412L84.8314 42.1836L80.0771 38.3728L84.5191 32.8307C85.5736 31.515 87.4904 31.3078 88.8017 32.3588C90.1124 33.4092 90.3242 35.3303 89.2736 36.6412Z" fill="white"/>
</svg>
