<svg width="100" height="100" viewBox="0 0 100 100" fill="none" xmlns="http://www.w3.org/2000/svg">
<path d="M57.9916 51.2466L53.3289 53.2433C51.5861 53.9895 50.3314 55.5573 49.9854 57.4214" stroke="white" stroke-width="2.92969" stroke-miterlimit="10" stroke-linecap="round" stroke-linejoin="round"/>
<path d="M76.1066 50.3438L85.7059 53.6594C88.243 54.5357 90.0504 56.7922 90.3518 59.4594L92.7676 79.9572C93.0779 85.3676 88.3301 89.692 82.9721 88.8795L65.8711 86.5811" stroke="white" stroke-width="2.92969" stroke-miterlimit="10" stroke-linecap="round" stroke-linejoin="round"/>
<path d="M43.309 82.1465L38.4834 64.1604H59.3668L66.6594 91.3418H48.8945" stroke="white" stroke-width="2.92969" stroke-miterlimit="10" stroke-linecap="round" stroke-linejoin="round"/>
<path d="M46.829 94.2259L43.9952 95.2896C42.4639 95.8644 40.7565 95.089 40.1819 93.5578L37.7786 87.155C37.2038 85.6238 37.9792 83.9164 39.5104 83.3418L42.3442 82.2781C43.8754 81.7033 45.5829 82.4787 46.1575 84.0099L48.5608 90.4127C49.1356 91.9439 48.3602 93.6511 46.829 94.2259Z" stroke="white" stroke-width="2.92969" stroke-miterlimit="10" stroke-linecap="round" stroke-linejoin="round"/>
<path d="M62.793 74.9174L81.1586 77.5432L79.9045 65.7981" stroke="white" stroke-width="2.92969" stroke-miterlimit="10" stroke-linecap="round" stroke-linejoin="round"/>
<path d="M68.3705 65.7979L63.3555 74.9977" stroke="white" stroke-width="2.92969" stroke-miterlimit="10" stroke-linecap="round" stroke-linejoin="round"/>
<path d="M56.96 36.6492L58.5414 43.2527C59.783 47.6859 64.3834 50.2732 68.8168 49.0316C72.1957 48.0853 74.4219 44.3439 74.7397 40.655" stroke="white" stroke-width="2.73438" stroke-miterlimit="10" stroke-linecap="round" stroke-linejoin="round"/>
<path d="M73.0693 22.4461C77.4588 21.2168 82.0137 23.7785 83.243 28.1678C83.592 29.4141 83.6348 30.6734 83.4174 31.8666C86.6498 32.2389 89.492 34.5141 90.4236 37.8406C91.6529 42.2301 89.0912 46.785 84.7018 48.0143" stroke="white" stroke-width="2.73438" stroke-miterlimit="10" stroke-linecap="round" stroke-linejoin="round"/>
<path d="M58.4058 28.1862C58.4058 28.1862 57.0971 16.1636 68.3703 16.1636C74.9748 16.1636 76.5969 21.3099 76.759 21.8841" stroke="white" stroke-width="2.92969" stroke-miterlimit="10" stroke-linecap="round" stroke-linejoin="round"/>
<path d="M74.7785 31.4651C74.7785 31.4651 64.7088 37.9975 48.4336 35.0764" stroke="white" stroke-width="2.92969" stroke-miterlimit="10" stroke-linecap="round" stroke-linejoin="round"/>
<path d="M52.5712 31.0389C52.5712 31.0389 51.289 20.0568 61.2634 18.7441" stroke="white" stroke-width="2.92969" stroke-miterlimit="10" stroke-linecap="round" stroke-linejoin="round"/>
<path d="M65.8633 34.8306C65.8633 34.8306 68.2295 41.8083 79.3264 39.8245" stroke="white" stroke-width="2.92969" stroke-miterlimit="10" stroke-linecap="round" stroke-linejoin="round"/>
<path d="M25.0822 13.8164V21.6818H7.4375V4.03711H18.5748" stroke="white" stroke-width="2.73438" stroke-miterlimit="10" stroke-linecap="round" stroke-linejoin="round"/>
<path d="M13.3242 12.3936L15.9449 15.0143L26.1771 4.78223" stroke="white" stroke-width="2.92969" stroke-miterlimit="10" stroke-linecap="round" stroke-linejoin="round"/>
<path d="M25.0822 46.4287V54.2941H7.4375V36.6494H18.5748" stroke="white" stroke-width="2.73438" stroke-miterlimit="10" stroke-linecap="round" stroke-linejoin="round"/>
<path d="M13.3242 45.0059L15.9449 47.6268L26.1771 37.3945" stroke="white" stroke-width="2.92969" stroke-miterlimit="10" stroke-linecap="round" stroke-linejoin="round"/>
<path d="M25.0822 79.0411V86.9067H7.4375V69.262H18.5748" stroke="white" stroke-width="2.73438" stroke-miterlimit="10" stroke-linecap="round" stroke-linejoin="round"/>
<path d="M13.3242 77.6184L15.9449 80.2391L26.1771 70.0071" stroke="white" stroke-width="2.92969" stroke-miterlimit="10" stroke-linecap="round" stroke-linejoin="round"/>
</svg>
