<svg width="100" height="100" viewBox="0 0 100 100" fill="none" xmlns="http://www.w3.org/2000/svg">
<path d="M31.626 6.33223C32.4355 6.33223 33.0918 5.67598 33.0918 4.86641V2.03809C33.0918 1.22852 32.4355 0.572266 31.626 0.572266C30.8164 0.572266 30.1602 1.22852 30.1602 2.03809V4.86641C30.1602 5.67578 30.8164 6.33223 31.626 6.33223Z" fill="white"/>
<path d="M51.2756 13.6129L53.2754 11.6129C53.8479 11.0404 53.8479 10.1123 53.2754 9.54001C52.703 8.96736 51.7749 8.96755 51.2026 9.54001L49.2028 11.54C48.6303 12.1125 48.6303 13.0406 49.2028 13.6129C49.4889 13.8992 49.8641 14.0422 50.2393 14.0422C50.6143 14.0422 50.9893 13.899 51.2756 13.6129Z" fill="white"/>
<path d="M11.9752 48.7672L9.97524 50.767C9.40278 51.3395 9.40278 52.2674 9.97524 52.8399C10.2614 53.1262 10.6366 53.2692 11.0118 53.2692C11.387 53.2692 11.762 53.126 12.0483 52.8399L14.0483 50.8401C14.6208 50.2676 14.6208 49.3397 14.0483 48.7672C13.4758 48.1948 12.5477 48.1948 11.9752 48.7672Z" fill="white"/>
<path d="M60.7773 32.6559C61.5869 32.6559 62.2432 31.9996 62.2432 31.1901C62.2432 30.3805 61.5869 29.7242 60.7773 29.7242H57.9492C57.1396 29.7242 56.4834 30.3805 56.4834 31.1901C56.4834 31.9996 57.1396 32.6559 57.9492 32.6559H60.7773Z" fill="white"/>
<path d="M5.30195 29.7242H2.47363C1.66406 29.7242 1.00781 30.3805 1.00781 31.1901C1.00781 31.9996 1.66406 32.6559 2.47363 32.6559H5.30195C6.11152 32.6559 6.76777 31.9996 6.76777 31.1901C6.76777 30.3805 6.11133 29.7242 5.30195 29.7242Z" fill="white"/>
<path d="M51.2756 48.7672C50.7032 48.1948 49.775 48.1948 49.2028 48.7672C48.6303 49.3397 48.6303 50.2678 49.2028 50.8401L51.0354 52.6727C51.3215 52.9588 51.6967 53.102 52.0719 53.102C52.4471 53.102 52.8221 52.9588 53.1084 52.6727C53.6809 52.1002 53.6809 51.1721 53.1084 50.5999L51.2756 48.7672Z" fill="white"/>
<path d="M11.975 13.6125C12.2612 13.8987 12.6364 14.0418 13.0116 14.0418C13.3868 14.0418 13.7618 13.8987 14.0481 13.6125C14.6206 13.0401 14.6206 12.112 14.0481 11.5397L12.0481 9.5397C11.4756 8.96724 10.5475 8.96724 9.97524 9.5397C9.40278 10.1122 9.40278 11.0403 9.97524 11.6125L11.975 13.6125Z" fill="white"/>
<path d="M26.932 42.0469C27.0473 41.9319 27.1818 41.9051 27.3324 41.9672C27.483 42.0297 27.5592 42.1438 27.5592 42.3067C27.5592 44.2454 29.1363 45.8225 31.075 45.8225H32.1756C34.1143 45.8225 35.6914 44.2454 35.6914 42.3067C35.6914 42.1438 35.7678 42.0295 35.9182 41.9672C36.0687 41.9051 36.2033 41.9317 36.3186 42.0469C36.9826 42.711 37.8654 43.0766 38.8045 43.0766C39.7436 43.0766 40.6266 42.711 41.2906 42.0469L42.0689 41.2686C42.733 40.6045 43.0986 39.7217 43.0986 38.7827C43.0986 37.8436 42.733 36.9606 42.0689 36.2965C41.9537 36.1813 41.927 36.0465 41.9893 35.8961C42.0518 35.7456 42.1658 35.6694 42.3287 35.6694C44.2674 35.6694 45.8445 34.0922 45.8445 32.1536V31.053C45.8445 29.1143 44.2672 27.5372 42.3287 27.5372C42.1658 27.5372 42.0518 27.4608 41.9893 27.3104C41.927 27.1598 41.9537 27.0252 42.0689 26.91C42.733 26.2459 43.0986 25.3631 43.0986 24.4239C43.0986 23.4848 42.733 22.6018 42.0689 21.9379L41.2908 21.1596C40.6268 20.4956 39.7437 20.1299 38.8047 20.1299C37.8656 20.1299 36.9826 20.4956 36.3188 21.1596C36.2033 21.2747 36.0687 21.3014 35.9184 21.2393C35.7678 21.1768 35.6916 21.0627 35.6916 20.8999C35.6916 18.9612 34.1145 17.384 32.1758 17.384H31.0752C29.1365 17.384 27.5594 18.9612 27.5594 20.8999C27.5594 21.0627 27.483 21.177 27.3326 21.2393C27.182 21.3016 27.0475 21.2747 26.9322 21.1596C26.2682 20.4956 25.3852 20.1299 24.4463 20.1299C23.5072 20.1299 22.6242 20.4956 21.9602 21.1598L21.182 21.9379C20.518 22.602 20.1523 23.485 20.1523 24.4241C20.1523 25.3631 20.518 26.2461 21.182 26.9102C21.2973 27.0254 21.324 27.1602 21.2615 27.3106C21.1992 27.4612 21.085 27.5374 20.9221 27.5374C18.9834 27.5374 17.4062 29.1145 17.4062 31.0532V32.1538C17.4062 34.0924 18.9834 35.6696 20.9221 35.6696C21.085 35.6696 21.1992 35.7459 21.2615 35.8963C21.324 36.0469 21.2971 36.1815 21.182 36.2967C20.518 36.9608 20.1523 37.8438 20.1523 38.7829C20.1523 39.7219 20.518 40.6049 21.182 41.2688L21.9604 42.0471C23.3309 43.4176 25.5613 43.4176 26.932 42.0469ZM20.9219 32.7377C20.5996 32.7377 20.3377 32.4756 20.3377 32.1536V31.053C20.3377 30.7307 20.5998 30.4688 20.9219 30.4688C22.2609 30.4688 23.4574 29.6694 23.9697 28.4323C24.4822 27.1952 24.2014 25.7838 23.2545 24.837C23.1057 24.6881 23.0834 24.5143 23.0834 24.4239C23.0834 24.3334 23.1055 24.1598 23.2547 24.0106L24.0328 23.2325C24.2605 23.0045 24.6312 23.0043 24.859 23.2325C25.8059 24.1793 27.2172 24.4598 28.4541 23.9477C29.6914 23.4354 30.4908 22.2389 30.4908 20.8999C30.4908 20.5776 30.7529 20.3157 31.075 20.3157H32.1756C32.4979 20.3157 32.7598 20.5778 32.7598 20.8999C32.7598 22.2389 33.5592 23.4354 34.7963 23.9477C36.0334 24.4604 37.4445 24.1795 38.3916 23.2325C38.5404 23.0836 38.7143 23.0614 38.8047 23.0614C38.8951 23.0614 39.0688 23.0834 39.2178 23.2325L39.9961 24.0108C40.2238 24.2385 40.2238 24.6092 39.9961 24.837C39.0492 25.7838 38.7686 27.195 39.2809 28.4321C39.7934 29.6692 40.9896 30.4686 42.3287 30.4686C42.651 30.4686 42.9131 30.7307 42.9131 31.0528V32.1534C42.9131 32.4756 42.651 32.7375 42.3287 32.7375C40.9896 32.7375 39.7934 33.537 39.2809 34.7741C38.7684 36.0112 39.049 37.4225 39.9961 38.3692C40.2238 38.5969 40.2238 38.9676 39.9961 39.1954L39.2178 39.9737C38.9898 40.2014 38.6193 40.2014 38.3916 39.9737C37.4447 39.0268 36.0332 38.7461 34.7965 39.2584C33.5594 39.7709 32.76 40.9672 32.76 42.3063C32.76 42.6286 32.4979 42.8905 32.1758 42.8905H31.0752C30.7529 42.8905 30.491 42.6284 30.491 42.3063C30.491 40.967 29.6916 39.7708 28.4543 39.2584C28.0437 39.0883 27.6141 39.0057 27.1885 39.0057C26.3316 39.0057 25.4918 39.3409 24.8592 39.9735C24.6312 40.2014 24.2607 40.2012 24.033 39.9735L23.2547 39.1952C23.1059 39.0463 23.0836 38.8725 23.0836 38.7821C23.0836 38.6917 23.1057 38.518 23.2547 38.369C24.2016 37.4221 24.4822 36.011 23.9699 34.7739C23.4572 33.5372 22.2609 32.7377 20.9219 32.7377Z" fill="white"/>
<path d="M31.6256 36.6916C34.4313 36.6916 36.7141 34.409 36.7141 31.6031C36.7141 28.7973 34.4314 26.5146 31.6256 26.5146C28.8199 26.5146 26.5371 28.7973 26.5371 31.6031C26.5371 34.409 28.8197 36.6916 31.6256 36.6916ZM31.6256 29.4463C32.8148 29.4463 33.7824 30.4139 33.7824 31.6031C33.7824 32.7924 32.8148 33.76 31.6256 33.76C30.4363 33.76 29.4688 32.7924 29.4688 31.6031C29.4688 30.4139 30.4363 29.4463 31.6256 29.4463Z" fill="white"/>
<path d="M98.4342 54.4439L94.0617 45.2654C93.8936 44.9123 93.8021 44.5189 93.7973 44.1279L93.7137 37.4045C93.7137 16.8502 77.1658 0.0705078 56.826 0.000195313C56.783 0 56.74 0 56.6969 0C50.0852 0 43.599 1.76328 37.9318 5.10293C37.2344 5.51387 37.0021 6.4125 37.4131 7.10996C37.824 7.80742 38.7227 8.03965 39.4201 7.62871C44.6367 4.55469 50.6082 2.93164 56.6969 2.93164C56.7365 2.93164 56.7762 2.93164 56.8158 2.93184C75.5447 2.99668 90.782 18.4611 90.7822 37.4227L90.8658 44.1641C90.8758 44.976 91.0658 45.7926 91.415 46.526L95.7875 55.7045C96.6645 57.5455 95.3115 59.6352 93.3203 59.6354C90.185 59.5986 87.6111 62.1361 87.6109 65.2895L87.6103 77.1289C87.6102 79.9609 85.0953 82.1283 82.2977 81.7191L72.0637 80.2182C68.96 79.7629 66.1762 82.1715 66.1762 85.3053V88.5439L35.2123 85.6809V80.8236C35.2123 80.0141 34.5561 79.3578 33.7465 79.3578C32.9369 79.3578 32.2807 80.0141 32.2807 80.8236V85.4098L31.7422 85.36C28.8549 85.0926 26.3584 87.3699 26.3584 90.2689V95.0334C26.3584 97.7492 28.5678 99.9607 31.2836 99.9633L69.8025 100H69.8074C72.5299 100 74.7371 97.7971 74.7371 95.0701V93.8305C74.7371 91.2678 72.8129 89.1574 70.2611 88.9215L69.1076 88.8148V85.3051C69.1076 83.9551 70.3002 82.9232 71.6381 83.1186L81.8721 84.6195C86.4428 85.2902 90.5416 81.7428 90.5418 77.1289L90.5424 65.2895C90.5426 63.7809 91.7684 62.5492 93.306 62.5668C97.4771 62.567 100.231 58.2168 98.4342 54.4439ZM71.8055 93.8307V95.0703C71.8055 96.1738 70.9125 97.0686 69.8072 97.0686C69.8066 97.0686 69.8059 97.0686 69.8053 97.0686L31.2861 97.0316C30.1854 97.0307 29.2898 96.1342 29.2898 95.0334V90.2689C29.2898 89.1008 30.2904 88.1695 31.4721 88.2793L33.5957 88.4756C33.5963 88.4756 33.5967 88.4756 33.5973 88.4758L69.9912 91.841C71.0256 91.9365 71.8055 92.7918 71.8055 93.8307Z" fill="white"/>
<path d="M28.7371 75.4368H34.9266C38.7877 75.4368 41.9717 72.4852 42.3422 68.72C43.5104 68.1996 44.3279 67.0297 44.3279 65.6707V58.5944C44.3279 57.4397 43.7385 56.4205 42.8449 55.8207C43.9441 52.0051 45.8545 48.4075 48.4191 45.351C60.5031 30.951 49.952 9.11839 31.3139 9.36585C12.9406 9.62191 3.08594 31.1721 14.7438 45.244C17.3426 48.3811 19.2777 52.0194 20.3902 55.8321C19.5063 56.4332 18.9242 57.4469 18.9242 58.5942V65.6705C18.9242 67.1912 19.9473 68.475 21.3404 68.8766C21.7828 72.5664 24.9301 75.4368 28.7371 75.4368ZM22.2625 66.0776C22.0381 66.0776 21.8557 65.8952 21.8557 65.6707V58.5944C21.8557 58.37 22.0381 58.1875 22.2625 58.1875H40.9865C40.9914 58.1879 40.9963 58.1885 41.0012 58.1887C41.2197 58.1953 41.3959 58.3743 41.3959 58.5944V65.6707C41.3959 65.8952 41.2133 66.0776 40.9891 66.0776H22.2625ZM34.9266 72.5051H28.7371C26.5969 72.5051 24.8006 71.0096 24.3352 69.009H39.3285C38.8631 71.0096 37.0668 72.5051 34.9266 72.5051ZM31.3547 12.2971C47.6119 12.0827 56.5412 31.1112 46.1734 43.4666C43.2912 46.9012 41.158 50.9567 39.9576 55.2559H23.275C22.0627 50.9715 19.9094 46.8844 17.0012 43.3739C6.9 31.1807 15.452 12.519 31.3547 12.2971Z" fill="white"/>
</svg>
