<svg width="60" height="60" viewBox="0 0 60 60" fill="none" xmlns="http://www.w3.org/2000/svg">
<g clip-path="url(#clip0_110_48)">
<path d="M30 10.2138C30.4855 10.2138 30.8789 9.82043 30.8789 9.33516V0.878672C30.8789 0.393281 30.4855 0 30 0C29.5145 0 29.1211 0.393281 29.1211 0.878672V9.33516C29.1211 9.82055 29.5145 10.2138 30 10.2138Z" fill="white"/>
<path d="M18.9039 12.5432C19.0667 12.8251 19.3621 12.9826 19.6658 12.9826C19.8149 12.9826 19.9662 12.9447 20.1044 12.8649C20.5248 12.6222 20.6688 12.0849 20.4261 11.6646L17.9932 7.45186C17.7504 7.03163 17.2128 6.88772 16.7926 7.1303C16.3723 7.37299 16.2282 7.9103 16.4709 8.33053L18.9039 12.5432Z" fill="white"/>
<path d="M12.5383 18.9066L5.9762 15.119C5.55561 14.8763 5.01819 15.0202 4.77561 15.4406C4.53291 15.8608 4.67694 16.3981 5.09729 16.6408L11.6594 20.4284C11.798 20.5082 11.949 20.5463 12.0981 20.5463C12.4018 20.5463 12.6973 20.3888 12.86 20.1069C13.1028 19.6866 12.9587 19.1493 12.5383 18.9066Z" fill="white"/>
<path d="M50.6707 29.1213C50.1851 29.1213 49.7917 29.5147 49.7917 30C49.7917 30.4853 50.1851 30.8787 50.6707 30.8787H53.6478C54.1333 30.8787 54.5267 30.4853 54.5267 30C54.5267 29.5147 54.1333 29.1213 53.6478 29.1213H50.6707Z" fill="white"/>
<path d="M9.37363 30.8787C9.85914 30.8787 10.2525 30.4853 10.2525 30C10.2525 29.5147 9.85914 29.1213 9.37363 29.1213H6.39648C5.91098 29.1213 5.51758 29.5147 5.51758 30C5.51758 30.4853 5.91098 30.8787 6.39648 30.8787H9.37363Z" fill="white"/>
<path d="M47.9021 20.5464C48.0511 20.5464 48.2024 20.5084 48.3407 20.4285L54.9028 16.6409C55.3232 16.3982 55.4672 15.8609 55.2245 15.4407C54.9817 15.0203 54.4442 14.8765 54.0239 15.1191L47.4618 18.9067C47.0414 19.1494 46.8974 19.6867 47.1401 20.1069C47.3029 20.3889 47.5983 20.5464 47.9021 20.5464Z" fill="white"/>
<path d="M39.8959 12.8647C40.0344 12.9445 40.1854 12.9825 40.3345 12.9825C40.6383 12.9825 40.9337 12.825 41.0965 12.543L43.5294 8.33037C43.7721 7.91013 43.6281 7.37271 43.2077 7.13013C42.7871 6.88744 42.2497 7.03134 42.0071 7.45169L39.5742 11.6644C39.3315 12.0847 39.4755 12.622 39.8959 12.8647Z" fill="white"/>
<path d="M30 49.7861C29.5145 49.7861 29.1211 50.1795 29.1211 50.6648V59.1213C29.1211 59.6066 29.5145 60 30 60C30.4855 60 30.8789 59.6067 30.8789 59.1213V50.6648C30.8789 50.1794 30.4855 49.7861 30 49.7861Z" fill="white"/>
<path d="M20.1044 47.1353C19.6837 46.8926 19.1463 47.0365 18.9039 47.4568L16.4709 51.6695C16.2282 52.0897 16.3723 52.6271 16.7926 52.8697C16.9311 52.9496 17.0822 52.9876 17.2312 52.9876C17.535 52.9876 17.8304 52.8301 17.9932 52.5482L20.4261 48.3355C20.6688 47.9153 20.5248 47.378 20.1044 47.1353Z" fill="white"/>
<path d="M11.6594 39.5715L5.09729 43.3591C4.67694 43.6018 4.53291 44.1391 4.77561 44.5593C4.9385 44.8413 5.23381 44.9988 5.53756 44.9988C5.68663 44.9988 5.83791 44.9608 5.9762 44.8809L12.5383 41.0933C12.9587 40.8506 13.1027 40.3133 12.86 39.893C12.6172 39.4727 12.0796 39.3289 11.6594 39.5715Z" fill="white"/>
<path d="M54.9028 43.3592L48.3407 39.5715C47.92 39.3288 47.3826 39.4727 47.1401 39.8931C46.8974 40.3133 47.0414 40.8506 47.4618 41.0933L54.0239 44.881C54.1625 44.9608 54.3135 44.9988 54.4626 44.9988C54.7663 44.9988 55.0618 44.8413 55.2245 44.5594C55.4672 44.1392 55.3232 43.6017 54.9028 43.3592Z" fill="white"/>
<path d="M41.0965 47.4569C40.8536 47.0365 40.316 46.8928 39.8959 47.1353C39.4755 47.378 39.3315 47.9153 39.5742 48.3356L42.0071 52.5482C42.17 52.8302 42.4653 52.9877 42.7691 52.9877C42.9181 52.9877 43.0694 52.9497 43.2077 52.8698C43.6281 52.6271 43.7721 52.0898 43.5294 51.6695L41.0965 47.4569Z" fill="white"/>
<path d="M42.5304 21.1611C42.2121 20.7947 41.6569 20.7555 41.2905 21.0737C40.924 21.3919 40.8848 21.9469 41.2031 22.3132L43.9516 25.4777H38.4103L31.8182 17.5126L37.0383 17.5181L38.49 19.1894C38.8083 19.5558 39.3634 19.5949 39.7298 19.2769C40.0964 18.9587 40.1355 18.4037 39.8173 18.0374L38.1032 16.0639C37.9364 15.872 37.6948 15.7616 37.4405 15.7614H22.5053C22.2499 15.7616 22.0075 15.8728 21.8407 16.066C21.8407 16.066 13.4596 25.7784 13.4559 25.7825C13.1716 26.1119 13.1814 26.6376 13.4786 26.9558L17.5568 31.3276C17.8879 31.6824 18.4439 31.7019 18.7991 31.371C19.1541 31.04 19.1734 30.484 18.8425 30.129L16.1429 27.2352H21.3957L26.7868 38.6454L21.6259 33.113C21.2948 32.7581 20.7388 32.7384 20.3836 33.0696C20.0286 33.4005 20.0093 33.9566 20.3402 34.3115C20.3402 34.3115 29.3337 43.9523 29.347 43.9666C29.6951 44.3398 30.2866 44.3366 30.6322 43.9671C30.636 43.9631 46.5177 26.96 46.5212 26.9563C46.6255 26.8446 46.6965 26.7 46.7309 26.5515C46.7929 26.2831 46.723 25.988 46.5424 25.7805C46.5421 25.7799 42.5304 21.1611 42.5304 21.1611ZM36.1288 25.4777H23.8129L29.9508 18.013L36.1288 25.4777ZM16.0404 25.4777L22.9091 17.5181L28.0868 17.5126L21.5373 25.4777H16.0404ZM29.9857 41.3013L23.3398 27.2351H36.5636L29.9857 41.3013ZM33.1384 38.7089L38.5038 27.2351H43.8555L33.1384 38.7089Z" fill="white"/>
</g>
<defs>
<clipPath id="clip0_110_48">
<rect width="60" height="60" fill="white"/>
</clipPath>
</defs>
</svg>
