<svg width="60" height="60" viewBox="0 0 60 60" fill="none" xmlns="http://www.w3.org/2000/svg">
<path d="M44.538 31.5001C44.1936 34.8389 42.7141 37.9585 40.3466 40.338C37.9792 42.7175 34.8671 44.2127 31.53 44.5741C31.4628 44.5732 31.3961 44.5859 31.3339 44.6112C31.2716 44.6366 31.2151 44.6741 31.1676 44.7216C31.1201 44.7692 31.0825 44.8257 31.0572 44.8879C31.0318 44.9502 31.0192 45.0169 31.02 45.0841V55.9981C31.02 56.2686 30.9125 56.528 30.7212 56.7193C30.53 56.9106 30.2705 57.0181 30 57.0181C29.7295 57.0181 29.47 56.9106 29.2788 56.7193C29.0875 56.528 28.98 56.2686 28.98 55.9981V52.0381C28.9703 51.906 28.9134 51.7819 28.8198 51.6882C28.7262 51.5946 28.602 51.5378 28.47 51.5281C23.9335 51.1609 19.6304 49.3639 16.1802 46.3956C12.7299 43.4273 10.3105 39.4409 9.27 35.0101C9.23127 34.8788 9.21936 34.741 9.23497 34.6051C9.25059 34.4691 9.29341 34.3376 9.36089 34.2186C9.42837 34.0995 9.51912 33.9952 9.62775 33.9119C9.73637 33.8287 9.86065 33.7681 9.99317 33.7339C10.1257 33.6996 10.2637 33.6924 10.3991 33.7126C10.5345 33.7329 10.6644 33.7801 10.7811 33.8516C10.8978 33.9231 10.999 34.0174 11.0785 34.1288C11.158 34.2402 11.2143 34.3664 11.244 34.5001C12.169 38.4772 14.3259 42.061 17.4071 44.7404C20.4884 47.4198 24.3369 49.0582 28.404 49.4221C28.536 49.4881 28.662 49.4221 28.788 49.2961C28.8546 49.2584 28.9085 49.2018 28.9427 49.1334C28.9769 49.065 28.9899 48.9879 28.98 48.9121V45.0841C28.9808 45.0169 28.9682 44.9502 28.9428 44.8879C28.9175 44.8257 28.8799 44.7692 28.8324 44.7216C28.7849 44.6741 28.7284 44.6366 28.6661 44.6112C28.6039 44.5859 28.5372 44.5732 28.47 44.5741C25.1488 44.2041 22.0497 42.7242 19.674 40.3741C17.2988 37.9869 15.816 34.8561 15.474 31.5061C15.4545 31.3835 15.393 31.2715 15.2999 31.1894C15.2068 31.1072 15.0881 31.0601 14.964 31.0561H4.05C3.77152 31.0561 3.50445 30.9454 3.30754 30.7485C3.11062 30.5516 3 30.2845 3 30.0061C3 29.7276 3.11062 29.4605 3.30754 29.2636C3.50445 29.0667 3.77152 28.9561 4.05 28.9561H8.196C8.31972 28.9509 8.4379 28.9034 8.53075 28.8214C8.6236 28.7395 8.68547 28.6282 8.706 28.5061C8.97826 23.9763 10.6613 19.6453 13.5192 16.1203C16.377 12.5953 20.2664 10.0531 24.642 8.85006C24.907 8.79976 25.1812 8.85276 25.4083 8.99818C25.6354 9.1436 25.7983 9.37042 25.8636 9.63212C25.9288 9.89382 25.8914 10.1706 25.7591 10.4056C25.6268 10.6406 25.4096 10.8161 25.152 10.8961C21.2374 11.9517 17.7501 14.2034 15.1771 17.3368C12.6041 20.4702 11.0739 24.3289 10.8 28.3741C10.7831 28.4486 10.7838 28.526 10.802 28.6002C10.8202 28.6744 10.8554 28.7434 10.9049 28.8016C10.9544 28.8599 11.0168 28.9057 11.0871 28.9357C11.1574 28.9656 11.2337 28.9787 11.31 28.9741H14.94C15.0641 28.97 15.1828 28.9229 15.2759 28.8408C15.369 28.7586 15.4305 28.6466 15.45 28.5241C15.7898 25.1791 17.2687 22.0524 19.639 19.6679C22.0093 17.2834 25.1271 15.7858 28.47 15.4261C28.5372 15.4269 28.6039 15.4142 28.6661 15.3889C28.7284 15.3635 28.7849 15.326 28.8324 15.2785C28.8799 15.231 28.9175 15.1744 28.9428 15.1122C28.9682 15.0499 28.9808 14.9833 28.98 14.9161V4.00206C28.98 3.73153 29.0875 3.47209 29.2788 3.28081C29.47 3.08952 29.7295 2.98206 30 2.98206C30.2705 2.98206 30.53 3.08952 30.7212 3.28081C30.9125 3.47209 31.02 3.73153 31.02 4.00206V16.3801C31.0269 16.5245 31.0034 16.6688 30.9513 16.8036C30.8991 16.9385 30.8194 17.061 30.7171 17.1632C30.6149 17.2654 30.4924 17.3452 30.3576 17.3973C30.2227 17.4495 30.0784 17.4729 29.934 17.4661C18.84 17.4661 13.296 31.0501 21.138 38.8981C28.98 46.7461 42.366 41.1301 42.558 30.0001C42.5564 29.8657 42.5817 29.7323 42.6324 29.6078C42.6831 29.4833 42.7581 29.3703 42.8532 29.2752C42.9482 29.1802 43.0613 29.1051 43.1858 29.0544C43.3102 29.0037 43.4436 28.9784 43.578 28.9801H55.95C56.2285 28.9801 56.4955 29.0907 56.6925 29.2876C56.8894 29.4845 57 29.7516 57 30.0301C57 30.3085 56.8894 30.5756 56.6925 30.7725C56.4955 30.9694 56.2285 31.0801 55.95 31.0801H51.87C51.7434 31.075 51.6197 31.1189 51.5247 31.2027C51.4297 31.2866 51.3707 31.4038 51.36 31.5301C51.0289 36.0881 49.2661 40.425 46.3234 43.9215C43.3807 47.4181 39.4085 49.8955 34.974 51.0001C33.636 51.3181 33.174 49.2781 34.524 48.9601C38.4843 47.9754 42.0358 45.7731 44.6784 42.6634C47.3209 39.5537 48.9213 35.6933 49.254 31.6261C49.2709 31.5515 49.2702 31.4741 49.252 31.3999C49.2338 31.3257 49.1986 31.2567 49.1491 31.1985C49.0996 31.1403 49.0372 31.0944 48.9669 31.0644C48.8966 31.0345 48.8203 31.0214 48.744 31.0261H45.048C44.9239 31.0301 44.8052 31.0772 44.7121 31.1594C44.619 31.2415 44.5575 31.3535 44.538 31.4761V31.5001ZM52.8 14.5321L45.426 21.8641C45.2458 22.0596 44.9957 22.1761 44.73 22.1881H39.816C39.6819 22.1998 39.5524 22.243 39.438 22.3141L30.702 31.1161C30.5056 31.2996 30.2456 31.3997 29.9768 31.3955C29.708 31.3912 29.4514 31.2828 29.2609 31.0931C29.0704 30.9034 28.961 30.6472 28.9556 30.3784C28.9502 30.1096 29.0493 29.8492 29.232 29.6521L37.968 20.8441C38.0268 20.8146 38.076 20.7691 38.11 20.7128C38.144 20.6565 38.1613 20.5918 38.16 20.5261V15.6001C38.1588 15.4581 38.1863 15.3175 38.241 15.1865C38.2956 15.0555 38.3763 14.937 38.478 14.8381L45.81 7.51206C45.9516 7.35899 46.136 7.25212 46.3392 7.20534C46.5423 7.15857 46.7549 7.17408 46.9492 7.24983C47.1434 7.32559 47.3103 7.45809 47.4282 7.63008C47.5461 7.80206 47.6094 8.00556 47.61 8.21405V12.2341C47.6185 12.3665 47.6749 12.4914 47.7688 12.5853C47.8627 12.6791 47.9875 12.7356 48.12 12.7441H52.074C52.2849 12.7385 52.4926 12.7967 52.67 12.9109C52.8473 13.0251 52.9862 13.1901 53.0684 13.3844C53.1507 13.5786 53.1725 13.7932 53.131 14.0001C53.0896 14.2069 52.9868 14.3965 52.836 14.5441L52.8 14.5321ZM44.4 19.9321L48.672 15.6601C48.7462 15.5915 48.7987 15.5026 48.8229 15.4045C48.847 15.3064 48.8419 15.2033 48.808 15.1081C48.7741 15.0129 48.7131 14.9297 48.6324 14.8689C48.5516 14.8081 48.4549 14.7724 48.354 14.7661H46.554C46.2753 14.7726 46.0053 14.6693 45.8021 14.4784C45.599 14.2876 45.4789 14.0246 45.468 13.7461V12.0001C45.4675 11.8967 45.4367 11.7958 45.3794 11.7098C45.3221 11.6238 45.2408 11.5565 45.1456 11.5163C45.0505 11.4761 44.9456 11.4646 44.844 11.4834C44.7423 11.5022 44.6485 11.5504 44.574 11.6221L40.374 15.8941C40.2619 15.9917 40.1929 16.1297 40.182 16.2781V19.5961C40.1812 19.6633 40.1938 19.7299 40.2192 19.7922C40.2445 19.8544 40.2821 19.911 40.3296 19.9585C40.3771 20.006 40.4336 20.0435 40.4959 20.0689C40.5581 20.0942 40.6248 20.1069 40.692 20.1061H44.07C44.202 20.1061 44.328 20.1061 44.388 19.9741L44.4 19.9321ZM38.664 30.0121C38.6664 31.7276 38.1598 33.4053 37.2083 34.8327C36.2568 36.2602 34.9032 37.3733 33.3188 38.0312C31.7344 38.6891 29.9905 38.8621 28.3077 38.5285C26.625 38.1948 25.079 37.3694 23.8655 36.1568C22.652 34.9441 21.8256 33.3988 21.4907 31.7162C21.1559 30.0337 21.3278 28.2896 21.9845 26.7048C22.6413 25.12 23.7535 23.7656 25.1803 22.8131C26.6072 21.8607 28.2845 21.3529 30 21.3541C30.2578 21.3738 30.4986 21.4902 30.6743 21.6798C30.85 21.8695 30.9476 22.1185 30.9476 22.3771C30.9476 22.6356 30.85 22.8846 30.6743 23.0743C30.4986 23.2639 30.2578 23.3803 30 23.4001C28.2496 23.4001 26.5708 24.0954 25.3331 25.3331C24.0954 26.5709 23.4 28.2496 23.4 30.0001C23.4 31.7505 24.0954 33.4292 25.3331 34.667C26.5708 35.9047 28.2496 36.6001 30 36.6001C33.828 36.6001 36.378 33.7321 36.564 30.0001C36.558 29.8553 36.5819 29.7109 36.6341 29.5757C36.6863 29.4406 36.7658 29.3176 36.8676 29.2145C36.9694 29.1114 37.0913 29.0304 37.2258 28.9764C37.3602 28.9224 37.5043 28.8967 37.6492 28.9008C37.794 28.905 37.9364 28.9389 38.0676 29.0004C38.1988 29.0619 38.3159 29.1498 38.4116 29.2585C38.5074 29.3672 38.5797 29.4945 38.6242 29.6324C38.6686 29.7703 38.6842 29.9159 38.67 30.0601L38.664 30.0121Z" fill="white"/>
</svg>
