<svg width="60" height="60" viewBox="0 0 60 60" fill="none" xmlns="http://www.w3.org/2000/svg">
<path d="M30.0001 52.5C15.8251 52.5 4.65012 39.2625 4.18137 38.7C3.90074 38.3631 3.74707 37.9385 3.74707 37.5C3.74707 37.0615 3.90074 36.6369 4.18137 36.3C4.65012 35.7375 15.8251 22.5 30.0001 22.5C44.1751 22.5 55.3501 35.7375 55.8189 36.3C56.0995 36.6369 56.2532 37.0615 56.2532 37.5C56.2532 37.9385 56.0995 38.3631 55.8189 38.7C55.3501 39.2625 44.1751 52.5 30.0001 52.5ZM8.15637 37.5C11.2501 40.6312 19.9314 48.75 30.0001 48.75C40.0689 48.75 48.8439 40.6312 51.8439 37.5C48.8439 34.3688 40.0689 26.25 30.0001 26.25C19.9314 26.25 11.2501 34.3688 8.15637 37.5Z" fill="white"/>
<path d="M30 45C28.5166 45 27.0666 44.5601 25.8332 43.736C24.5999 42.9119 23.6386 41.7406 23.0709 40.3701C22.5032 38.9997 22.3547 37.4917 22.6441 36.0368C22.9335 34.582 23.6478 33.2456 24.6967 32.1967C25.7456 31.1478 27.082 30.4335 28.5368 30.1441C29.9917 29.8547 31.4997 30.0032 32.8701 30.5709C34.2406 31.1386 35.4119 32.0999 36.236 33.3332C37.0601 34.5666 37.5 36.0166 37.5 37.5C37.5 39.4891 36.7098 41.3968 35.3033 42.8033C33.8968 44.2098 31.9891 45 30 45ZM30 33.75C29.2583 33.75 28.5333 33.9699 27.9166 34.382C27.2999 34.794 26.8193 35.3797 26.5355 36.0649C26.2516 36.7502 26.1774 37.5042 26.3221 38.2316C26.4668 38.959 26.8239 39.6272 27.3484 40.1517C27.8728 40.6761 28.541 41.0333 29.2684 41.1779C29.9958 41.3226 30.7498 41.2484 31.4351 40.9646C32.1203 40.6807 32.706 40.2001 33.118 39.5834C33.5301 38.9667 33.75 38.2417 33.75 37.5C33.75 36.5054 33.3549 35.5516 32.6517 34.8484C31.9484 34.1451 30.9946 33.75 30 33.75Z" fill="white"/>
<path d="M30 16.875C29.5027 16.875 29.0258 16.6775 28.6742 16.3258C28.3225 15.9742 28.125 15.4973 28.125 15V9.375C28.125 8.87772 28.3225 8.40081 28.6742 8.04918C29.0258 7.69754 29.5027 7.5 30 7.5C30.4973 7.5 30.9742 7.69754 31.3258 8.04918C31.6775 8.40081 31.875 8.87772 31.875 9.375V15C31.875 15.4973 31.6775 15.9742 31.3258 16.3258C30.9742 16.6775 30.4973 16.875 30 16.875Z" fill="white"/>
<path d="M13.8189 21.3187C13.5722 21.3201 13.3276 21.2728 13.0991 21.1795C12.8707 21.0862 12.6629 20.9487 12.4877 20.7749L8.73769 17.0249C8.3896 16.6669 8.19799 16.1852 8.20502 15.6859C8.21205 15.1866 8.41715 14.7105 8.77519 14.3624C9.13323 14.0144 9.61489 13.8227 10.1142 13.8298C10.6135 13.8368 11.0896 14.0419 11.4377 14.3999L15.1877 18.1499C15.3634 18.3243 15.5029 18.5316 15.5981 18.7601C15.6933 18.9886 15.7423 19.2337 15.7423 19.4812C15.7423 19.7287 15.6933 19.9738 15.5981 20.2023C15.5029 20.4308 15.3634 20.6381 15.1877 20.8124C15.005 20.984 14.7897 21.1173 14.5546 21.2042C14.3195 21.2912 14.0693 21.3301 13.8189 21.3187Z" fill="white"/>
<path d="M46.1813 21.3187C45.9345 21.3201 45.6899 21.2728 45.4615 21.1795C45.233 21.0862 45.0252 20.9487 44.85 20.7749C44.6743 20.6006 44.5348 20.3933 44.4396 20.1648C44.3444 19.9363 44.2954 19.6912 44.2954 19.4437C44.2954 19.1962 44.3444 18.9511 44.4396 18.7226C44.5348 18.4941 44.6743 18.2868 44.85 18.1124L48.6 14.3624C48.9581 14.0144 49.4397 13.8227 49.939 13.8298C50.4384 13.8368 50.9144 14.0419 51.2625 14.3999C51.6106 14.758 51.8022 15.2396 51.7952 15.739C51.7882 16.2383 51.5831 16.7144 51.225 17.0624L47.475 20.8124C47.1245 21.1406 46.6614 21.3218 46.1813 21.3187Z" fill="white"/>
</svg>
