<svg width="64" height="64" viewBox="0 0 64 64" fill="none" xmlns="http://www.w3.org/2000/svg">
<g clip-path="url(#clip0_46_412)">
<path d="M32.5076 48.214C32.5039 48.2041 32.5 48.1943 32.496 48.1846C32.0966 47.1697 30.5999 47.1718 30.2034 48.1872C30.2001 48.1951 30.1969 48.2032 30.1939 48.2112L27.2669 55.8963C27.058 56.4447 27.3333 57.0586 27.8816 57.2675C28.4225 57.4733 29.0471 57.1927 29.2528 56.6527L29.7211 55.423H32.9573L33.4201 56.6496C33.6273 57.1988 34.2404 57.4751 34.7893 57.2685C35.3384 57.0613 35.6154 56.4482 35.4081 55.8993L32.5076 48.214ZM30.5303 53.2981L31.3465 51.1552L32.1553 53.2981H30.5303Z" fill="white"/>
<path d="M43.2042 47.4172C43.2007 47.4172 43.1971 47.4172 43.1937 47.4172C42.607 47.423 42.1358 47.9032 42.1415 48.49L42.1847 52.9529L38.6887 47.8905C38.4245 47.5077 37.9417 47.3417 37.4983 47.4799C37.0543 47.6182 36.752 48.0294 36.752 48.4942V56.2746C36.7955 57.6794 38.8338 57.6784 38.877 56.2746V51.9024L42.2013 56.7164C42.5101 57.1622 43.0263 57.3516 43.5167 57.1982C44.0163 57.0421 44.3392 56.5765 44.3392 56.0017L44.2665 48.4694C44.2608 47.8861 43.7863 47.4172 43.2042 47.4172Z" fill="white"/>
<path d="M49.2603 47.5325H47.1179C46.5342 47.5325 46.0554 48.0223 46.0554 48.6029V56.0365C46.0554 56.6586 46.4792 57.2219 47.1372 57.2219C47.202 57.2216 48.7304 57.2158 49.3414 57.2051C54.7278 57.1054 54.7312 47.4504 49.2603 47.5325ZM49.3044 55.0806C49.0465 55.0851 48.608 55.0888 48.192 55.0915C48.1845 52.9739 48.1864 51.8423 48.1823 49.6575H49.2603C49.7277 49.6575 51.2525 49.8536 51.2525 52.3773C51.2524 54.2213 50.274 55.0636 49.3044 55.0806Z" fill="white"/>
<path d="M17.0146 51.7587C18.1818 49.9137 16.7738 47.3858 14.576 47.4173H12.3118C11.725 47.4173 11.2493 47.893 11.2493 48.4798V56.2747C11.2493 56.8555 11.7379 57.3372 12.3164 57.3372C12.3164 57.3372 14.3978 57.328 14.9714 57.328C17.9095 57.3275 19.2364 53.6248 17.0146 51.7587ZM14.576 49.5424C15.5403 49.5678 15.5399 50.9797 14.576 51.0048C14.4121 51.0048 13.3743 51.0069 13.3743 51.0069V49.5424H14.576ZM14.9715 55.2033C14.6756 55.2033 13.9804 55.2058 13.3743 55.208V53.1332C13.5053 53.1327 14.9715 53.1317 14.9715 53.1317C16.3406 53.1754 16.3396 55.16 14.9715 55.2033Z" fill="white"/>
<path d="M25.908 50.5057C25.908 48.8029 24.4711 47.4175 22.705 47.4175H20.6335C20.0459 47.416 19.5684 47.8924 19.5685 48.48V56.2749C19.6159 57.6786 21.6442 57.6836 21.6934 56.2749V54.3017L24.0476 56.9767C24.4294 57.4104 25.1132 57.4542 25.5472 57.0724C25.9877 56.6846 26.0305 56.0132 25.6429 55.5727L23.7514 53.4236C25.0051 53.0045 25.908 51.8551 25.908 50.5057ZM22.705 51.469C22.469 51.469 22.0809 51.4705 21.7045 51.4722C21.7001 50.6487 21.7019 50.3904 21.6992 49.5422H22.705C24.1304 49.6024 24.1291 51.4095 22.705 51.469Z" fill="white"/>
<path d="M59.322 52.5681L63.8364 44.6301C64.0565 44.2431 64.0542 43.7683 63.8303 43.3836C63.6065 42.9988 63.1949 42.7621 62.7498 42.7621H58.9767C60.849 40.3718 60.948 36.7226 59.1218 34.2347C58.6798 33.3507 58.2778 32.6217 58.2594 31.5958C58.2414 30.5945 58.5434 29.603 59.1214 28.7843C61.8669 24.8972 60.042 19.302 55.5458 17.774C53.6725 17.1363 52.3659 15.342 52.3405 13.3618C52.2772 8.61297 47.5095 5.1546 42.9738 6.55847C41.0672 7.1486 38.9838 6.47147 37.7897 4.8731C34.9427 1.0636 29.0595 1.06397 26.2125 4.8731C25.028 6.45835 22.9162 7.14097 21.0268 6.5586C16.4929 5.15235 11.7253 8.6141 11.6619 13.3598C11.6325 15.3405 10.3325 17.1352 8.45717 17.7737C3.9608 19.3018 2.14192 24.903 4.87892 28.7847C6.02055 30.3993 6.02017 32.6216 4.87767 34.2355C3.05317 36.7252 3.15305 40.3721 5.02542 42.7621H1.25155C0.298421 42.7397 -0.331454 43.8637 0.185671 44.665L5.02555 52.5671L0.200671 60.0563C-0.336579 60.8565 0.281171 62.0056 1.25155 61.9833H62.75C63.2002 61.9833 63.6154 61.7413 63.8374 61.35C64.0593 60.9585 64.0537 60.4778 63.8228 60.0917L59.322 52.5681ZM6.05355 38.3905C6.05355 37.4205 6.3538 36.4816 6.92005 35.6777C8.66717 33.2097 8.66692 29.8117 6.9213 27.343C5.13817 24.814 6.33255 21.1362 9.2623 20.1407C12.1287 19.1651 14.1168 16.4227 14.1618 13.3955C14.2033 10.2868 17.3208 8.02647 20.2884 8.9471C23.1769 9.8381 26.405 8.7926 28.2153 6.36985C30.0775 3.87872 33.9252 3.8781 35.7874 6.36972C37.6132 8.8136 40.7987 9.84935 43.7132 8.94672C46.6802 8.02847 49.7995 10.2847 49.8409 13.3947C49.8798 16.4227 51.8764 19.166 54.7409 20.1408C57.6828 21.1407 58.8745 24.8013 57.0793 27.3425C55.336 29.812 55.3344 33.2068 57.0792 35.6761C58.8429 38.0593 57.7728 41.679 55.0464 42.7622H49.8835C54.5242 35.607 54.118 25.6532 48.8133 18.947C46.0887 15.4016 42.2303 12.7851 37.9487 11.58C37.2835 11.3928 36.5937 11.7801 36.4067 12.4445C36.2197 13.109 36.6067 13.7993 37.2712 13.9865C41.0375 15.0467 44.4327 17.3493 46.8312 20.4703C51.863 26.8107 51.8352 36.413 46.8397 42.7625H17.7517C9.95155 32.7283 14.8537 17.6403 27.0327 14.0711C27.694 13.8731 28.0697 13.1765 27.8717 12.5151C27.6738 11.8537 26.9774 11.4782 26.3157 11.6761C13.2177 15.5056 7.30855 31.2868 14.7079 42.7625H8.9563C7.21167 42.033 6.05355 40.3022 6.05355 38.3905ZM3.5438 59.4835L7.55242 53.2608C7.81242 52.8572 7.8183 52.3403 7.56755 51.931L3.48292 45.262H60.6012L56.7887 51.9658C56.5659 52.3575 56.5712 52.8387 56.8024 53.2255L60.5457 59.4832H3.5438V59.4835Z" fill="white"/>
<path d="M25.8296 30.9857L24.5001 30.0226C25.5012 27.5827 23.5616 24.7282 20.9108 24.7827C16.253 24.9028 15.6593 31.4177 20.1672 32.4098L22.0178 38.3669C22.1802 38.8898 22.6641 39.2461 23.2116 39.2461H41.2113C41.7556 39.2461 42.2375 38.8938 42.4025 38.3751L44.3013 32.4083C48.8028 31.4074 48.2021 24.9018 43.5496 24.7826C40.8837 24.7263 38.9408 27.6163 39.9748 30.0589L38.7685 30.9503C37.9612 31.5466 36.7838 31.3317 36.2392 30.4906L35.1865 28.8667C37.3723 26.4513 35.5911 22.4446 32.3013 22.4716C29.0122 22.4446 27.2303 26.4517 29.4162 28.8664L28.347 30.5157C27.805 31.3516 26.6373 31.5711 25.8296 30.9857ZM20.9108 27.2827C21.6552 27.2827 22.2608 27.8884 22.2608 28.6328C22.179 30.4188 19.6336 30.4233 19.5608 28.6328C19.5608 27.8884 20.1665 27.2827 20.9108 27.2827ZM43.5495 27.2827C44.2938 27.2827 44.8995 27.8884 44.8995 28.6328C44.8265 30.4239 42.281 30.4182 42.1995 28.6328C42.1993 27.8884 42.8051 27.2827 43.5495 27.2827ZM32.3012 24.9718C33.7317 24.9859 34.1601 26.9026 32.8973 27.5313C32.5248 27.7141 32.0813 27.7153 31.7083 27.5328C30.4415 26.9058 30.8697 24.9858 32.3012 24.9718ZM30.4443 31.8761L31.5921 30.1058C32.0586 30.1934 32.5437 30.1934 33.0102 30.1058L34.141 31.8501C35.4563 33.8816 38.3051 34.4003 40.2538 32.9614L41.6096 31.9596C41.6688 31.9941 41.7286 32.0269 41.7893 32.0582L40.2973 36.7463H24.1321L22.6752 32.0566C22.7463 32.0199 22.8165 31.9809 22.8853 31.9397L24.3632 33.0102C26.3165 34.4252 29.134 33.8971 30.4443 31.8761Z" fill="white"/>
<path d="M31.142 12.5299C31.3434 13.0209 31.8591 13.3395 32.3884 13.2983C32.9042 13.2582 33.3502 12.8984 33.496 12.402C33.805 11.3499 32.6365 10.4252 31.6812 10.966C31.1402 11.2723 30.9024 11.954 31.142 12.5299Z" fill="white"/>
</g>
<defs>
<clipPath id="clip0_46_412">
<rect width="64" height="64" fill="white"/>
</clipPath>
</defs>
</svg>
