<svg width="64" height="64" viewBox="0 0 64 64" fill="none" xmlns="http://www.w3.org/2000/svg">
<path d="M58 10H6C4.35 10 3 11.35 3 13V51C3 52.65 4.35 54 6 54H38V58C38 58.38 38.21 58.72 38.55 58.89C38.89 59.06 39.29 59.02 39.6 58.8L43 56.25L46.4 58.8C46.58 58.93 46.79 59 47 59C47.15 59 47.31 58.96 47.45 58.89C47.79 58.72 48 58.37 48 58V54H58C59.65 54 61 52.65 61 51V13C61 11.35 59.65 10 58 10ZM38.78 44.59C38.34 44.57 37.75 44.55 37.59 44.4C37.44 44.25 37.42 43.65 37.4 43.21C37.38 42.64 37.35 42 37.12 41.43C36.89 40.87 36.48 40.44 36.08 40.01C35.76 39.67 35.35 39.24 35.35 38.99C35.35 38.74 35.75 38.32 36.08 37.97C36.48 37.55 36.89 37.11 37.12 36.55C37.36 35.98 37.38 35.33 37.4 34.77C37.42 34.33 37.44 33.74 37.59 33.58C37.74 33.43 38.34 33.41 38.78 33.39C39.35 33.37 39.99 33.34 40.56 33.11C41.11 32.88 41.55 32.47 41.97 32.07C42.32 31.75 42.74 31.34 42.99 31.34C43.24 31.34 43.66 31.74 44.01 32.07C44.43 32.47 44.87 32.88 45.43 33.11C46 33.35 46.65 33.37 47.21 33.39C47.65 33.41 48.24 33.43 48.4 33.58C48.55 33.73 48.57 34.33 48.59 34.77C48.61 35.34 48.64 35.98 48.87 36.55C49.1 37.11 49.51 37.54 49.91 37.97C50.23 38.31 50.64 38.74 50.64 38.99C50.64 39.24 50.24 39.66 49.91 40.01C49.51 40.43 49.1 40.87 48.87 41.43C48.63 42 48.61 42.65 48.59 43.21C48.57 43.65 48.55 44.24 48.4 44.4C48.25 44.55 47.65 44.57 47.21 44.59C46.64 44.61 46 44.64 45.43 44.87C44.88 45.1 44.44 45.51 44.02 45.91C43.67 46.23 43.25 46.64 43 46.64C42.75 46.64 42.33 46.24 41.98 45.91C41.56 45.51 41.12 45.1 40.56 44.87C39.99 44.63 39.34 44.61 38.78 44.59ZM48 46.55C48.64 46.49 49.31 46.33 49.82 45.82C50.53 45.11 50.56 44.11 50.6 43.3C50.62 42.88 50.63 42.45 50.73 42.21C50.82 41.99 51.1 41.69 51.38 41.4C51.94 40.8 52.65 40.05 52.65 39.01C52.65 37.97 51.95 37.23 51.38 36.62C51.11 36.33 50.82 36.03 50.73 35.81C50.63 35.57 50.61 35.13 50.6 34.72C50.57 33.91 50.53 32.9 49.83 32.2C49.12 31.49 48.12 31.46 47.31 31.42C46.89 31.4 46.46 31.39 46.22 31.29C46 31.2 45.7 30.92 45.41 30.64C44.81 30.08 44.06 29.37 43.02 29.37C41.98 29.37 41.24 30.07 40.63 30.64C40.34 30.91 40.04 31.2 39.82 31.29C39.58 31.39 39.14 31.41 38.73 31.42C37.92 31.45 36.91 31.49 36.21 32.2C35.5 32.91 35.47 33.91 35.43 34.72C35.41 35.14 35.4 35.57 35.3 35.81C35.21 36.03 34.93 36.33 34.65 36.62C34.09 37.22 33.38 37.97 33.38 39.01C33.38 40.05 34.08 40.79 34.65 41.4C34.92 41.69 35.21 41.99 35.3 42.21C35.4 42.45 35.42 42.89 35.43 43.3C35.46 44.11 35.5 45.12 36.2 45.82C36.71 46.33 37.38 46.49 38.02 46.55V48H9V16H55V48H48V46.55ZM43.6 54.2C43.24 53.93 42.76 53.93 42.4 54.2L40 56V46.84C40.19 46.97 40.4 47.17 40.61 47.37C41.21 47.93 41.96 48.64 43 48.64C44.04 48.64 44.78 47.94 45.39 47.37C45.6 47.17 45.82 46.97 46 46.84V56L43.6 54.2ZM59 51C59 51.55 58.55 52 58 52H48V50H56C56.55 50 57 49.55 57 49V15C57 14.45 56.55 14 56 14H8C7.45 14 7 14.45 7 15V49C7 49.55 7.45 50 8 50H38V52H6C5.45 52 5 51.55 5 51V13C5 12.45 5.45 12 6 12H58C58.55 12 59 12.45 59 13V51ZM48 39C48 36.24 45.76 34 43 34C40.24 34 38 36.24 38 39C38 41.76 40.24 44 43 44C45.76 44 48 41.76 48 39ZM40 39C40 37.35 41.35 36 43 36C44.65 36 46 37.35 46 39C46 40.65 44.65 42 43 42C41.35 42 40 40.65 40 39ZM24.28 20.41C24.28 19.86 24.73 19.41 25.28 19.41H39.28C39.83 19.41 40.28 19.86 40.28 20.41C40.28 20.96 39.83 21.41 39.28 21.41H25.28C24.73 21.41 24.28 20.96 24.28 20.41ZM50.28 25.41C50.28 25.96 49.83 26.41 49.28 26.41H15.28C14.73 26.41 14.28 25.96 14.28 25.41C14.28 24.86 14.73 24.41 15.28 24.41H49.28C49.83 24.41 50.28 24.86 50.28 25.41ZM33.28 30.41C33.28 30.96 32.83 31.41 32.28 31.41H15.28C14.73 31.41 14.28 30.96 14.28 30.41C14.28 29.86 14.73 29.41 15.28 29.41H32.28C32.83 29.41 33.28 29.86 33.28 30.41ZM30.28 35.41C30.28 35.96 29.83 36.41 29.28 36.41H15.28C14.73 36.41 14.28 35.96 14.28 35.41C14.28 34.86 14.73 34.41 15.28 34.41H29.28C29.83 34.41 30.28 34.86 30.28 35.41ZM29 41.17C29 41.72 28.55 42.17 28 42.17C27.65 42.17 27 42.62 26.48 42.98C25.78 43.46 25.06 43.96 24.27 44.06C23.86 44.11 23.47 43.92 23.27 43.56C23.24 43.51 23.22 43.45 23.2 43.4C22.75 43.7 22.25 43.95 21.66 44.03C21.39 44.07 21.12 43.99 20.9 43.82C20.8 43.74 20.72 43.65 20.66 43.54C20.34 43.82 19.98 44.1 19.54 44.3C19.16 44.48 18.71 44.4 18.41 44.1C18.11 43.8 18.03 43.35 18.21 42.97C18.75 41.81 18.89 41.16 18.92 40.84C18.18 41.11 16.61 42.35 15.81 44.02C15.64 44.38 15.28 44.59 14.91 44.59C14.77 44.59 14.62 44.56 14.48 44.49C13.98 44.25 13.77 43.66 14.01 43.16C15.11 40.85 18.09 38.07 19.96 38.95C20.72 39.31 20.95 39.99 20.94 40.75C21.14 40.64 21.36 40.55 21.59 40.48C22.02 40.35 22.49 40.54 22.73 40.93C22.78 41.01 22.81 41.08 22.84 41.16C23.26 40.83 23.73 40.48 24.27 40.27C24.57 40.15 24.91 40.19 25.17 40.36C25.44 40.53 25.6 40.82 25.63 41.13C26.35 40.64 27.15 40.16 28.01 40.16C28.56 40.16 29.01 40.61 29.01 41.16L29 41.17Z" fill="white"/>
</svg>
