<svg width="64" height="64" viewBox="0 0 64 64" fill="none" xmlns="http://www.w3.org/2000/svg">
<g clip-path="url(#clip0_46_438)">
<path d="M62.9075 35.4557C62.1509 33.7765 60.7095 32.7229 59.7469 31.2981C59.2353 30.5044 58.5407 28.7867 57.2494 29.5463C54.9834 31.2072 60.0724 34.8341 60.638 36.5035C62.3797 40.2746 61.4837 44.6513 57.9748 49.5113C56.364 51.4519 55.182 53.8399 54.3265 56.2296C53.455 57.3887 51.7702 58.0612 49.6891 58.0773C49.6645 58.0774 49.6401 58.0775 49.6154 58.0775C47.0529 58.0775 44.5019 57.0483 43.3842 55.5594C42.7761 54.6849 42.7014 53.6912 42.6149 52.5416C42.4969 50.9733 42.35 49.0214 40.5785 47.3424C40.1773 46.9623 38.0848 45.1099 36.2827 45.9585C35.4243 46.364 35.0266 47.1614 34.824 48.0167C34.2411 47.0044 33.4261 45.9252 32.1885 45.1262C29.4517 43.3596 25.5949 43.8786 22.9262 44.4253C19.7565 45.0035 18.3577 46.3105 16.7388 47.8235C16.3518 48.1852 15.9525 48.5583 15.5014 48.9494C15.1673 49.1093 14.8962 49.0152 14.0043 48.4896C13.2144 48.0239 12.2309 47.4445 10.9738 47.5881C9.4811 47.7586 8.65552 48.6471 7.99219 49.3609C7.41272 49.9846 7.07487 50.3211 6.47715 50.3994C5.81207 50.4025 4.70326 50.2986 4.3069 49.6287C3.94818 49.0222 4.13754 47.9486 4.81337 46.7568C4.8475 46.6967 4.8765 46.6338 4.90024 46.5688C5.65345 44.5056 5.52496 42.1626 4.54764 40.1401C4.28691 39.6011 4.01317 39.1276 3.74844 38.6697C3.1661 37.6626 2.70625 36.8673 2.57363 35.7473C2.52001 35.2996 2.11253 31.314 4.26803 29.2553C5.10436 28.4569 5.87419 28.378 7.03924 28.2587C8.00769 28.1594 9.16462 28.0392 10.5175 27.457L15.9222 36.4214C16.1485 36.7967 16.5546 37.026 16.9927 37.026C17.4308 37.026 17.8369 36.7967 18.0631 36.4214L27.1626 21.3286C27.7755 20.3117 28.2258 19.2511 28.5007 18.176C28.7161 17.3342 28.8347 16.4827 28.8618 15.6345C29.586 14.8468 30.631 14.3001 31.6742 14.1812C35.6788 13.6759 35.3082 19.6597 38.0669 21.3876C39.7618 22.6911 42.5647 23.1656 44.4209 21.4778C46.5967 19.4832 45.1193 16.1747 45.5411 13.7844C45.8842 14.9058 47.0948 16.6591 47.8327 17.1654C48.2011 17.4914 48.4952 17.7515 48.8755 18.3776C49.7706 20.474 49.6597 21.6028 50.8112 23.3683C51.7206 24.7137 53.808 23.2636 52.8659 21.9443C51.9692 20.487 51.9864 19.1051 51.076 17.1866C50.0528 15.4017 49.3728 15.5665 48.4212 14.0347C47.118 12.3117 47.9385 9.41763 45.8632 9.11327C43.8423 8.96278 43.2992 12.0817 43.0383 13.58L43.0244 13.6595C42.8744 14.5032 42.9645 15.4723 43.0515 16.4095C43.1694 17.6778 43.303 19.1154 42.7392 19.6283C41.9189 20.3741 40.4945 20.1008 39.5893 19.4047C37.6096 17.6549 37.8352 14.6734 35.5667 12.8904C34.4299 11.9439 32.9472 11.5206 31.3912 11.6974C30.4036 11.81 29.4368 12.1536 28.5764 12.6744C28.1953 11.0025 27.4455 9.40563 26.3475 7.99134C24.0931 5.08789 20.6834 3.42261 16.9927 3.42261C13.302 3.42261 9.8922 5.08789 7.63796 7.99134C5.36334 10.9209 4.57839 14.6332 5.48459 18.176C5.75957 19.2512 6.20979 20.3117 6.82276 21.3286L9.21112 25.29C8.34904 25.6104 7.58221 25.6902 6.78451 25.7718C5.47821 25.9057 3.99755 26.0573 2.54163 27.4473C-0.355323 30.2138 -0.0662143 34.7269 0.0911515 36.0427C0.284265 37.6726 0.945101 38.8157 1.58419 39.9208C1.82617 40.3394 2.07653 40.7724 2.2969 41.228C2.95748 42.5949 3.06273 44.23 2.58363 45.622C1.47682 47.6246 1.32408 49.496 2.15541 50.9012C2.706 51.8319 3.91618 52.9345 6.57152 52.8982C6.60902 52.8977 6.64639 52.8956 6.68364 52.8917C8.2773 52.7265 9.17099 51.7646 9.82358 51.0624C10.3884 50.4546 10.7088 50.1345 11.2577 50.0717C11.6835 50.024 12.1708 50.3104 12.735 50.643C14.741 52.0238 16.5977 51.7669 18.446 49.6499C19.9952 48.202 20.9304 47.328 23.3869 46.8824C23.3964 46.8807 23.4058 46.8789 23.4152 46.8771C25.6548 46.4173 28.8603 45.9532 30.8327 47.2264C32.172 48.0912 32.862 49.5868 33.3656 50.6787C33.5633 51.1074 33.7342 51.4777 33.9272 51.7753C34.5604 52.7515 35.3661 52.6903 35.6839 52.6189C36.136 52.5166 36.7218 52.181 36.9439 51.1632C37.0232 50.7997 37.0554 50.3827 37.0894 49.9413C37.1221 49.5159 37.1958 48.5605 37.369 48.2396C37.6868 48.2852 38.3818 48.708 38.8593 49.1571C39.9297 50.1717 40.0147 51.3003 40.1222 52.7292C40.2223 54.0605 40.3359 55.5694 41.3487 57.0107C41.3552 57.0198 41.3617 57.029 41.3684 57.0378C42.9716 59.1941 46.1989 60.5775 49.611 60.5774C49.6434 60.5774 49.676 60.5773 49.7084 60.577C52.6286 60.5545 55.0662 59.4821 56.3962 57.6347C56.9543 56.735 57.1799 55.7517 57.5622 54.8255C58.1131 53.4899 59.0951 52.2284 60.0011 50.9752C61.7843 48.5053 62.9863 46.0701 63.5741 43.7369C64.3136 40.8007 64.0894 38.0143 62.9075 35.4557ZM7.90632 17.5564C7.19286 14.7672 7.81482 11.8396 9.61234 9.52437C11.3896 7.23526 14.0797 5.92234 16.9925 5.92234C19.9054 5.92234 22.5955 7.23526 24.3727 9.52437C25.6574 11.1789 26.3411 13.1462 26.3666 15.1522C26.3661 15.1812 26.3657 15.21 26.3671 15.2389C26.3696 16.0115 26.275 16.7892 26.0788 17.5564C25.8643 18.3951 25.5085 19.2301 25.0216 20.0378L16.9925 33.3551L8.96351 20.0378C8.47653 19.2301 8.12093 18.3951 7.90632 17.5564Z" fill="white"/>
<path d="M55.2463 27.5938C55.9366 27.5938 56.4962 27.0342 56.4962 26.3439C56.4962 25.6536 55.9366 25.094 55.2463 25.094C54.5559 25.094 53.9963 25.6536 53.9963 26.3439C53.9963 27.0342 54.5559 27.5938 55.2463 27.5938Z" fill="white"/>
<path d="M22.3654 15.2948C22.3654 12.3324 19.9553 9.92212 16.9928 9.92212C14.0304 9.92212 11.6201 12.3324 11.6201 15.2948C11.6201 18.2573 14.0304 20.6675 16.9928 20.6675C19.9551 20.6674 22.3654 18.2573 22.3654 15.2948ZM14.1198 15.2948C14.1198 13.7108 15.4086 12.422 16.9927 12.422C18.5767 12.422 19.8654 13.7108 19.8654 15.2948C19.8654 16.8788 18.5767 18.1676 16.9927 18.1676C15.4086 18.1675 14.1198 16.8788 14.1198 15.2948Z" fill="white"/>
</g>
<defs>
<clipPath id="clip0_46_438">
<rect width="64" height="64" fill="white"/>
</clipPath>
</defs>
</svg>
