<svg width="64" height="64" viewBox="0 0 64 64" fill="none" xmlns="http://www.w3.org/2000/svg">
<mask id="mask0_46_428" style="mask-type:alpha" maskUnits="userSpaceOnUse" x="0" y="0" width="64" height="64">
<rect width="64" height="64" fill="#D9D9D9"/>
</mask>
<g mask="url(#mask0_46_428)">
<path d="M27.7147 28.7104H17.0023C15.8952 28.7104 14.9977 29.608 14.9977 30.715V47.8552C14.9977 48.9623 15.8952 49.8598 17.0023 49.8598H27.715C28.822 49.8598 29.7196 48.9623 29.7196 47.8552V30.715C29.7193 29.608 28.8218 28.7104 27.7147 28.7104ZM25.7101 45.8507H19.0068V32.7196H25.7104L25.7101 45.8507Z" fill="white"/>
<path d="M46.9977 28.7104H36.285C35.1779 28.7104 34.2804 29.608 34.2804 30.715V47.8552C34.2804 48.9623 35.1779 49.8598 36.285 49.8598H46.9977C48.1048 49.8598 49.0023 48.9623 49.0023 47.8552V30.715C49.0023 29.608 48.1048 28.7104 46.9977 28.7104ZM44.9931 45.8507H38.2896V32.7196H44.9931V45.8507Z" fill="white"/>
<path d="M59.8529 3H17.0023C15.8952 3 14.9977 3.89752 14.9977 5.00458C14.9977 6.11164 15.8952 7.00915 17.0023 7.00915H59.8529C59.9291 7.00915 59.9908 7.07089 59.9908 7.14707V15.488C59.9908 16.7054 59.1639 17.7932 58.1081 17.9651C57.4178 18.0774 56.7525 17.8964 56.2345 17.4559C55.7232 17.0211 55.43 16.3874 55.43 15.7173C55.43 14.6102 54.5325 13.7127 53.4255 13.7127C52.3184 13.7127 51.4209 14.6102 51.4209 15.7173C51.4209 16.9748 50.3977 17.9977 49.1405 17.9977C47.8832 17.9977 46.8601 16.9746 46.8601 15.7173C46.8601 14.6102 45.9625 13.7127 44.8555 13.7127C43.7484 13.7127 42.8509 14.6102 42.8509 15.7173C42.8509 16.9748 41.8278 17.9977 40.5705 17.9977C39.2491 17.9977 38.2901 17.0387 38.2901 15.7173C38.2901 14.6102 37.3926 13.7127 36.2855 13.7127C35.1785 13.7127 34.2809 14.6102 34.2809 15.7173C34.2809 17.0598 33.3431 17.9977 32.0003 17.9977C30.7427 17.9977 29.7199 16.9746 29.7199 15.7173C29.7199 14.6102 28.8223 13.7127 27.7153 13.7127C26.6082 13.7127 25.7107 14.6102 25.7107 15.7173C25.7107 17.0387 24.7517 17.9977 23.4303 17.9977C22.1303 17.9977 21.1499 17.0173 21.1499 15.7173C21.1499 14.6102 20.2524 13.7127 19.1453 13.7127C18.0383 13.7127 17.1407 14.6102 17.1407 15.7173C17.1407 16.9748 16.1176 17.9977 14.8603 17.9977C13.6031 17.9977 12.5799 16.9746 12.5799 15.7173C12.5799 14.6102 11.6824 13.7127 10.5753 13.7127C9.46829 13.7127 8.57077 14.6102 8.57077 15.7173C8.57077 16.3874 8.27757 17.0211 7.76627 17.4559C7.24802 17.8967 6.58276 18.0782 5.89265 17.9651C4.83691 17.7932 4.00996 16.7054 4.00996 15.488V7.14707C4.00996 7.07089 4.0717 7.00915 4.14787 7.00915H8.43285C9.53992 7.00915 10.4374 6.11164 10.4374 5.00458C10.4374 3.89752 9.53992 3 8.43285 3H4.14707C1.86025 3 0 4.86051 0 7.14734V15.4882C0 18.3174 1.78594 20.8137 4.28498 21.6752V56.5634H2.00458C0.897516 56.5634 0 57.4609 0 58.5679C0 59.675 0.897516 60.5725 2.00458 60.5725H61.9954C63.1025 60.5725 64 59.675 64 58.5679C64 57.4609 63.1025 56.5634 61.9954 56.5634H59.715V21.6749C62.2141 20.8135 64 18.3171 64 15.488V7.14707C64 4.86051 62.1395 3 59.8529 3ZM55.7056 56.5634H8.29414V21.6781C9.04438 21.4266 9.74732 21.0337 10.3629 20.5101C10.4358 20.4481 10.5072 20.3845 10.577 20.3198C11.7006 21.3662 13.2067 22.0071 14.8598 22.0071C16.5025 22.0071 18.0006 21.3737 19.1221 20.3388C20.2398 21.379 21.7478 22.0071 23.43 22.0071C25.1123 22.0071 26.6202 21.3788 27.738 20.3388C28.8595 21.374 30.3573 22.0071 32.0003 22.0071C33.6985 22.0071 35.1993 21.4004 36.3085 20.381C37.4214 21.3959 38.9112 22.0071 40.5705 22.0071C42.2244 22.0071 43.7316 21.3654 44.8555 20.3177C45.9794 21.3654 47.4866 22.0071 49.1405 22.0071C50.7936 22.0071 52.2997 21.3662 53.4233 20.3198C53.4931 20.3848 53.5644 20.4481 53.6374 20.5101C54.2529 21.0337 54.9559 21.4266 55.7061 21.6781V56.5634H55.7056Z" fill="white"/>
</g>
</svg>
