<svg width="60" height="60" viewBox="0 0 60 60" fill="none" xmlns="http://www.w3.org/2000/svg">
<path d="M30 57.1875C28.6875 57.1875 27.457 56.6719 26.5312 55.7461L22.3359 51.5508C21.7617 50.9766 21 50.6602 20.1914 50.6602H14.25C11.543 50.6602 9.33984 48.457 9.33984 45.75V39.8086C9.33984 39 9.02344 38.2383 8.44922 37.6641L4.25391 33.4688C2.34375 31.5586 2.34375 28.4414 4.25391 26.5312L8.44922 22.3359C9.02344 21.7617 9.33984 21 9.33984 20.1914V14.25C9.33984 11.543 11.543 9.33984 14.25 9.33984H20.1914C21 9.33984 21.7617 9.02344 22.3359 8.44922L26.5312 4.25391C27.457 3.32812 28.6875 2.8125 30 2.8125C31.3125 2.8125 32.543 3.32812 33.4688 4.25391L37.6641 8.44922C38.2383 9.02344 39 9.33984 39.8086 9.33984H45.75C48.457 9.33984 50.6602 11.543 50.6602 14.25V20.1914C50.6602 21 50.9766 21.7617 51.5508 22.3359L55.7461 26.5312C57.6562 28.4414 57.6562 31.5586 55.7461 33.4688L51.5508 37.6641C50.9766 38.2383 50.6602 39 50.6602 39.8086V45.75C50.6602 48.457 48.457 50.6602 45.75 50.6602H39.8086C39 50.6602 38.2383 50.9766 37.6641 51.5508L33.4688 55.7461C32.543 56.6719 31.3125 57.1875 30 57.1875ZM14.25 11.2148C12.5742 11.2148 11.2148 12.5742 11.2148 14.25V20.1914C11.2148 21.5039 10.6992 22.7344 9.77344 23.6602L5.57812 27.8555C4.39453 29.0391 4.39453 30.9609 5.57812 32.1445L9.77344 36.3398C10.6992 37.2656 11.2148 38.4961 11.2148 39.8086V45.75C11.2148 47.4258 12.5742 48.7852 14.25 48.7852H20.1914C21.5039 48.7852 22.7344 49.3008 23.6602 50.2266L27.8555 54.4219C28.4297 54.9961 29.1914 55.3125 30 55.3125C30.8086 55.3125 31.5703 54.9961 32.1445 54.4219L36.3398 50.2266C37.2656 49.3008 38.4961 48.7852 39.8086 48.7852H45.75C47.4258 48.7852 48.7852 47.4258 48.7852 45.75V39.8086C48.7852 38.4961 49.3008 37.2656 50.2266 36.3398L54.4219 32.1445C55.6055 30.9609 55.6055 29.0391 54.4219 27.8555L50.2266 23.6602C49.3008 22.7344 48.7852 21.5039 48.7852 20.1914V14.25C48.7852 12.5742 47.4258 11.2148 45.75 11.2148H39.8086C38.4961 11.2148 37.2656 10.6992 36.3398 9.77344L32.1445 5.57812C31.5703 5.00391 30.8086 4.6875 30 4.6875C29.1914 4.6875 28.4297 5.00391 27.8555 5.57812L23.6602 9.77344C22.7344 10.6992 21.5039 11.2148 20.1914 11.2148H14.25Z" fill="white"/>
<path d="M30 47.1211C20.5547 47.1211 12.8789 39.4336 12.8789 30C12.8789 20.5664 20.5547 12.8789 30 12.8789C39.4453 12.8789 47.1211 20.5547 47.1211 30C47.1211 39.4453 39.4453 47.1211 30 47.1211ZM30 14.7539C21.5859 14.7539 14.7539 21.5977 14.7539 30C14.7539 38.4023 21.5859 45.2461 30 45.2461C38.4141 45.2461 45.2461 38.4023 45.2461 30C45.2461 21.5977 38.4141 14.7539 30 14.7539Z" fill="white"/>
<path d="M36.5625 39.375H23.4375C23.0156 39.375 22.6523 39.0938 22.5351 38.6953L18.7851 25.4883C18.6796 25.1133 18.8203 24.7031 19.1367 24.4688C19.4531 24.2344 19.8867 24.2227 20.2031 24.4453L25.0195 27.6563L29.1914 20.9766C29.3671 20.707 29.6601 20.5312 29.9882 20.5312C30.3164 20.5312 30.6093 20.6953 30.7851 20.9766L34.957 27.6563L39.7734 24.4453C40.1015 24.2227 40.5234 24.2344 40.8398 24.4688C41.1562 24.7031 41.2968 25.1016 41.1914 25.4883L37.4414 38.6953C37.3476 39.0938 36.9843 39.375 36.5625 39.375ZM24.1406 37.5H35.8593L38.7187 27.4219L35.2148 29.7656C35.0039 29.9062 34.746 29.9531 34.5 29.9062C34.2539 29.8477 34.0312 29.707 33.9023 29.4844L30 23.25L26.1093 29.4727C25.9804 29.6836 25.7578 29.8359 25.5117 29.8945C25.2656 29.9531 25.0078 29.8945 24.7968 29.7539L21.2929 27.4102L24.1406 37.5Z" fill="white"/>
</svg>
