<svg width="60" height="60" viewBox="0 0 60 60" fill="none" xmlns="http://www.w3.org/2000/svg">
<mask id="mask0_84_71" style="mask-type:alpha" maskUnits="userSpaceOnUse" x="0" y="0" width="60" height="60">
<rect width="60" height="60" fill="#D9D9D9"/>
</mask>
<g mask="url(#mask0_84_71)">
<path d="M26.8383 57.1264C27.0918 57.2049 27.3557 57.245 27.6211 57.2455C27.8801 57.2449 28.1375 57.206 28.3852 57.1302C32.1542 56.05 35.7157 54.3461 38.9217 52.0892C39.1122 51.9411 39.2383 51.7252 39.2737 51.4865C39.309 51.2478 39.251 51.0046 39.1116 50.8076C38.9722 50.6106 38.7622 50.4749 38.5254 50.4289C38.2885 50.3828 38.0429 50.4298 37.8399 50.5602C34.8002 52.698 31.4237 54.3112 27.8508 55.333C27.6953 55.3827 27.5282 55.3827 27.3727 55.333C22.706 54.0083 18.3904 51.6673 14.7352 48.478C14.6442 48.3885 14.536 48.3184 14.4171 48.2722C14.2982 48.226 14.1711 48.2045 14.0435 48.2091C13.916 48.2137 13.7908 48.2443 13.6755 48.299C13.5603 48.3537 13.4574 48.4313 13.3731 48.5272C13.2889 48.623 13.2251 48.7351 13.1857 48.8564C13.1463 48.9778 13.1321 49.1059 13.1439 49.2329C13.1558 49.36 13.1934 49.4833 13.2546 49.5953C13.3157 49.7073 13.3991 49.8056 13.4995 49.8842C17.3575 53.2521 21.9125 55.7253 26.8383 57.1264Z" fill="white"/>
<path d="M9.84512 44.6331C9.74908 44.7103 9.6692 44.8057 9.61006 44.9138C9.55091 45.0219 9.51365 45.1406 9.50042 45.2631C9.48718 45.3856 9.49823 45.5095 9.53293 45.6277C9.56762 45.746 9.62529 45.8562 9.70262 45.9521C9.98387 46.3009 10.2848 46.6496 10.5942 46.9984C10.6759 47.0907 10.7749 47.1661 10.8857 47.2201C10.9966 47.2742 11.1169 47.3059 11.24 47.3134C11.363 47.3209 11.4863 47.3041 11.6029 47.264C11.7195 47.2239 11.827 47.1612 11.9193 47.0795C12.0117 46.9978 12.087 46.8987 12.1411 46.7879C12.1951 46.6771 12.2268 46.5568 12.2343 46.4337C12.2419 46.3106 12.2251 46.1873 12.185 46.0707C12.1448 45.9542 12.0821 45.8467 12.0004 45.7543C11.7107 45.4271 11.4295 45.0981 11.167 44.7756C11.0898 44.6791 10.9942 44.5989 10.8859 44.5395C10.7775 44.4801 10.6585 44.4427 10.5357 44.4295C10.4128 44.4162 10.2886 44.4274 10.1701 44.4623C10.0516 44.4973 9.94113 44.5553 9.84512 44.6331Z" fill="white"/>
<path d="M51.0473 10.9507C47.641 10.3579 44.3038 9.42027 41.0873 8.15231C36.8798 6.48701 32.9125 4.26944 29.2898 1.55793C28.8082 1.19581 28.2221 1 27.6196 1C27.0171 1 26.431 1.19581 25.9494 1.55793C24.1446 2.9081 22.253 4.13825 20.287 5.24043C20.1793 5.30053 20.0845 5.38128 20.0081 5.47805C19.9317 5.57482 19.8751 5.68572 19.8416 5.80439C19.8082 5.92305 19.7984 6.04716 19.8129 6.16961C19.8275 6.29205 19.866 6.41042 19.9264 6.51794C19.9868 6.62546 20.0677 6.72002 20.1647 6.7962C20.2616 6.87238 20.3727 6.92869 20.4914 6.96189C20.6102 6.9951 20.7343 7.00456 20.8567 6.98972C20.9791 6.97489 21.0974 6.93605 21.2048 6.87543C23.244 5.73014 25.2057 4.45207 27.0773 3.0495C27.2329 2.92984 27.4237 2.86496 27.6201 2.86496C27.8164 2.86496 28.0072 2.92984 28.1629 3.0495C31.92 5.86348 36.0348 8.16493 40.3991 9.89324C43.7371 11.2098 47.2002 12.1835 50.7351 12.7995C50.9274 12.8321 51.1042 12.9258 51.2392 13.0665C51.3743 13.2073 51.4605 13.3878 51.4851 13.5814C52.0879 17.5432 53.0057 27.8201 48.5132 37.6414C48.4596 37.7536 48.4289 37.8754 48.4229 37.9996C48.4168 38.1238 48.4355 38.2479 48.4779 38.3648C48.5203 38.4817 48.5855 38.589 48.6698 38.6805C48.7541 38.7719 48.8557 38.8457 48.9687 38.8975C49.0818 38.9493 49.204 38.9781 49.3283 38.9822C49.4526 38.9863 49.5764 38.9657 49.6927 38.9214C49.8089 38.8772 49.9152 38.8103 50.0053 38.7246C50.0954 38.6389 50.1676 38.5362 50.2176 38.4223C54.921 28.1407 53.9676 17.4279 53.3394 13.2973C53.2544 12.7141 52.9868 12.1729 52.575 11.7513C52.1631 11.3297 51.6283 11.0494 51.0473 10.9507Z" fill="white"/>
<path d="M26.7164 50.5206C27.0063 50.6269 27.3124 50.6818 27.6211 50.6828C27.925 50.6824 28.2264 50.6288 28.5118 50.5243C29.8051 50.0694 31.0661 49.5272 32.2861 48.9015C32.3956 48.8451 32.493 48.7677 32.5726 48.6737C32.6522 48.5797 32.7125 48.471 32.75 48.3537C32.7876 48.2364 32.8017 48.1128 32.7915 47.9901C32.7813 47.8673 32.747 47.7478 32.6907 47.6382C32.6343 47.5287 32.5569 47.4314 32.4629 47.3518C32.3689 47.2722 32.2601 47.2119 32.1428 47.1743C32.0255 47.1368 31.9019 47.1227 31.7792 47.1329C31.6564 47.1431 31.5369 47.1773 31.4274 47.2337C30.2807 47.8233 29.0952 48.3339 27.8789 48.7618C27.7086 48.8284 27.5195 48.8284 27.3492 48.7618C23.1461 47.3219 19.3684 44.8566 16.358 41.589C9.28175 33.8725 8.65831 23.5412 8.91519 18.0897C8.924 17.9444 8.9606 17.8021 9.023 17.6706C9.11381 17.4493 9.11659 17.2016 9.03077 16.9784C8.94495 16.7551 8.77702 16.573 8.56136 16.4695C8.34571 16.366 8.09864 16.3488 7.87075 16.4215C7.64285 16.4942 7.45137 16.6513 7.3355 16.8606C7.16837 17.2137 7.07066 17.5956 7.04769 17.9856C6.77581 23.7484 7.44519 34.644 14.9799 42.8603C18.1947 46.3493 22.2285 48.9821 26.7164 50.5206Z" fill="white"/>
<path d="M44.8467 33.8078C44.9495 33.8462 45.0584 33.8659 45.1682 33.8659C45.3604 33.8659 45.5479 33.8068 45.7054 33.6966C45.8628 33.5864 45.9826 33.4305 46.0485 33.25C47.7565 28.3499 48.4859 23.1621 48.1954 17.9809C48.1773 17.602 48.0844 17.2305 47.9218 16.8877C47.7593 16.545 47.5305 16.2378 47.2485 15.9841C47.1592 15.8917 47.0518 15.8186 46.933 15.7695C46.8143 15.7203 46.6867 15.6961 46.5582 15.6984C46.4297 15.7006 46.303 15.7293 46.186 15.7825C46.0691 15.8358 45.9643 15.9126 45.8782 16.008C45.7922 16.1035 45.7267 16.2156 45.6858 16.3375C45.6449 16.4593 45.6295 16.5883 45.6405 16.7163C45.6516 16.8444 45.6888 16.9688 45.75 17.0818C45.8112 17.1949 45.8949 17.2941 45.996 17.3734C46.0941 17.4624 46.1736 17.57 46.2299 17.6898C46.2863 17.8097 46.3183 17.9396 46.3242 18.0719C46.6032 23.002 45.9123 27.939 44.2907 32.6031C44.248 32.7187 44.2285 32.8416 44.2334 32.9647C44.2382 33.0879 44.2673 33.2088 44.3189 33.3207C44.3706 33.4326 44.4438 33.5332 44.5343 33.6168C44.6249 33.7004 44.731 33.7653 44.8467 33.8078Z" fill="white"/>
<path d="M22.5689 26.7588C22.0116 26.2128 21.2626 25.9071 20.4825 25.9071C19.7024 25.9071 18.9533 26.2128 18.3961 26.7588L17.2223 27.956C16.6762 28.5194 16.3707 29.2732 16.3707 30.0579C16.3707 30.8425 16.6762 31.5964 17.2223 32.1597L24.4054 39.4901C24.6768 39.7686 25.0011 39.99 25.3594 40.1412C25.7176 40.2923 26.1025 40.3702 26.4914 40.3702C26.8802 40.3702 27.2651 40.2923 27.6234 40.1412C27.9817 39.99 28.306 39.7686 28.5773 39.4901L41.7698 26.0266C42.316 25.4632 42.6214 24.7094 42.6214 23.9247C42.6214 23.1401 42.316 22.3862 41.7698 21.8229L40.5961 20.6257C40.3254 20.3465 40.0013 20.1247 39.6431 19.9735C39.2849 19.8222 38.8999 19.7447 38.5111 19.7454C38.122 19.7446 37.7367 19.8222 37.3782 19.9734C37.0196 20.1246 36.6952 20.3465 36.4242 20.6257L27.2367 30.0007C27.038 30.1972 26.7699 30.3074 26.4904 30.3074C26.211 30.3074 25.9429 30.1972 25.7442 30.0007L22.5689 26.7588ZM28.5773 31.3122L37.7648 21.9372C37.8616 21.837 37.9776 21.7572 38.1059 21.7027C38.2342 21.6482 38.3722 21.6202 38.5115 21.6202C38.6509 21.6202 38.7889 21.6482 38.9172 21.7027C39.0455 21.7572 39.1615 21.837 39.2583 21.9372L40.432 23.1354C40.6373 23.3469 40.7521 23.63 40.7521 23.9247C40.7521 24.2195 40.6373 24.5026 40.432 24.7141L27.2376 38.1785C27.039 38.375 26.7708 38.4852 26.4914 38.4852C26.212 38.4852 25.9438 38.375 25.7451 38.1785L18.562 30.8472C18.3567 30.6357 18.2419 30.3526 18.2419 30.0579C18.2419 29.7631 18.3567 29.48 18.562 29.2685L19.7358 28.0704C19.9347 27.874 20.203 27.764 20.4825 27.764C20.762 27.764 21.0302 27.874 21.2292 28.0704L24.4054 31.3122C24.9626 31.8579 25.7115 32.1635 26.4914 32.1635C27.2713 32.1635 28.0201 31.8579 28.5773 31.3122Z" fill="white"/>
<path d="M53.1032 45.0737C47.1586 43.9787 46.5126 43.3328 45.4157 37.3862C45.3756 37.1712 45.2615 36.9769 45.0932 36.8371C44.9249 36.6974 44.713 36.6208 44.4942 36.6208C44.2754 36.6208 44.0635 36.6974 43.8952 36.8371C43.7269 36.9769 43.6128 37.1712 43.5726 37.3862C42.4776 43.3309 41.8317 43.9768 35.8851 45.0737C35.6701 45.1139 35.4758 45.228 35.336 45.3963C35.1963 45.5646 35.1198 45.7765 35.1198 45.9953C35.1198 46.2141 35.1963 46.426 35.336 46.5943C35.4758 46.7626 35.6701 46.8767 35.8851 46.9168C41.8298 48.0118 42.4757 48.6578 43.5726 54.6043C43.6128 54.8194 43.7269 55.0136 43.8952 55.1534C44.0635 55.2932 44.2754 55.3697 44.4942 55.3697C44.713 55.3697 44.9249 55.2932 45.0932 55.1534C45.2615 55.0136 45.3756 54.8194 45.4157 54.6043C46.5107 48.6597 47.1567 48.0137 53.1032 46.9168C53.3183 46.8767 53.5125 46.7626 53.6523 46.5943C53.7921 46.426 53.8686 46.2141 53.8686 45.9953C53.8686 45.7765 53.7921 45.5646 53.6523 45.3963C53.5125 45.228 53.3183 45.1139 53.1032 45.0737ZM44.4961 50.41C44.2176 49.3488 43.6621 48.3807 42.8863 47.605C42.1106 46.8292 41.1425 46.2737 40.0814 45.9953C41.1425 45.7169 42.1106 45.1613 42.8863 44.3856C43.6621 43.6098 44.2176 42.6418 44.4961 41.5806C44.7745 42.6418 45.33 43.6098 46.1058 44.3856C46.8815 45.1613 47.8496 45.7169 48.9107 45.9953C47.8496 46.2737 46.8815 46.8292 46.1058 47.605C45.33 48.3807 44.7745 49.3488 44.4961 50.41Z" fill="white"/>
</g>
</svg>
